SplineFontDB: 3.0
FontName: Classica-BoldOblique
FullName: Classica Bold Oblique
FamilyName: Classica
Weight: Bold
Copyright: Copyright (c) 2020-2024 by Wojciech Kalinowski "wmk69" with Reserved Font Name "Classica-BoldOblique".\nThis Font Software is licensed under the SIL Open Font License, Version 1.1.
Version: 2.1.1; 2021-05-14
ItalicAngle: -12
UnderlinePosition: -80
UnderlineWidth: 320
Ascent: 1638
Descent: 410
InvalidEm: 0
LayerCount: 2
Layer: 0 1 "Warstwa t+AUIA-a" 1
Layer: 1 1 "Plan pierwszy" 0
XUID: [1021 783 23647091 3308014]
StyleMap: 0x0021
FSType: 0
OS2Version: 3
OS2_WeightWidthSlopeOnly: 0
OS2_UseTypoMetrics: 1
CreationTime: 1260698820
ModificationTime: 1620982502
PfmFamily: 17
TTFWeight: 700
TTFWidth: 5
LineGap: 300
VLineGap: 0
Panose: 2 14 8 2 7 5 4 13 5 4
OS2TypoAscent: 2000
OS2TypoAOffset: 0
OS2TypoDescent: -500
OS2TypoDOffset: 0
OS2TypoLinegap: 300
OS2WinAscent: 2000
OS2WinAOffset: 0
OS2WinDescent: 500
OS2WinDOffset: 0
HheadAscent: 2000
HheadAOffset: 0
HheadDescent: -500
HheadDOffset: 0
OS2SubXSize: 1434
OS2SubYSize: 1331
OS2SubXOff: 0
OS2SubYOff: 287
OS2SupXSize: 1434
OS2SupYSize: 1331
OS2SupXOff: 0
OS2SupYOff: 977
OS2StrikeYSize: 102
OS2StrikeYPos: 512
OS2CapHeight: 1510
OS2XHeight: 1100
OS2Vendor: '    '
OS2CodePages: 20000093.00000000
OS2UnicodeRanges: 8000002f.4000204b.00000000.00000000
Lookup: 258 0 0 "'kern' Horizontal Kerning lookup 0" { "'kern' Horizontal Kerning lookup 0-1 subtable" [307,0,6] } ['kern' ('DFLT' <'dflt' > 'grek' <'dflt' > 'latn' <'dflt' > ) ]
MarkAttachClasses: 1
DEI: 91125
KernClass2: 61 47 "'kern' Horizontal Kerning lookup 0-1 subtable"
 252 H I J M N U Igrave Iacute Icircumflex Idieresis Ntilde Ugrave Uacute Ucircumflex Udieresis Hcircumflex Hbar Itilde Imacron Ibreve Iogonek Idotaccent IJ Jcircumflex Nacute Ncommaaccent Ncaron Utilde Umacron Ubreve Uring Uhungarumlaut Uogonek uni1E40 Eng
 84 A Agrave Aacute Acircumflex Atilde Adieresis Aring Amacron Abreve Aogonek Aringacute

StartChar: .notdef
Encoding: 65536 -1 0
Width: 1034
Flags: W
HStem: 0 118<323 761> 1392 118<594 1032>
VStem: 110 814<0 814> 431 814<696 1510>
DStem2: 110 0 297.918 0 0.207912 0.978148<159.707 1462.21> 735.918 0 924 0 0.207912 0.978148<120.636 1423.14>
LayerCount: 2
Fore
SplineSet
110 0 m 1,0,-1
 431 1510 l 1,1,-1
 1245 1510 l 1,2,-1
 924 0 l 1,3,-1
 110 0 l 1,0,-1
323 118 m 1,4,-1
 761 118 l 1,5,-1
 1032 1392 l 1,6,-1
 594 1392 l 1,7,-1
 323 118 l 1,4,-1
EndSplineSet
Validated: 1
EndChar

StartChar: exclam
Encoding: 33 33 4
Width: 744
GlyphClass: 2
Flags: W
HStem: -19 370<316.695 495.305> 1490 20G<486 900>
VStem: 321 294<450 744>
DStem2: 221.311 -19 515.311 -19 0.207912 0.978148<540.604 1479.17>
LayerCount: 2
Fore
SplineSet
367 -19 m 0,0,1
 289 -19 289 -19 249 35 c 0,2,3
 220 74 220 74 220 125 c 0,4,5
 220 145 220 145 224 166 c 0,6,7
 240 243 240 243 304.5 297 c 128,-1,8
 369 351 369 351 445 351 c 0,9,10
 523 351 523 351 563 297 c 0,11,12
 592 258 592 258 592 207 c 0,13,14
 592 187 592 187 588 166 c 0,15,16
 572 89 572 89 507.5 35 c 128,-1,17
 443 -19 443 -19 367 -19 c 0,0,1
486 1510 m 1,18,-1
 900 1510 l 1,19,20
 833 1364 833 1364 796 1210 c 2,21,-1
 615 450 l 1,22,-1
 321 450 l 1,23,-1
 462 1210 l 2,24,25
 486 1339 486 1339 486 1510 c 1,18,-1
EndSplineSet
Validated: 1
EndChar

StartChar: quotedbl
Encoding: 34 34 5
Width: 643
GlyphClass: 2
Flags: W
HStem: 1120 410<345 504.72 673 832.72>
VStem: 288 660
LayerCount: 2
Fore
SplineSet
673 1530 m 1,0,-1
 948 1530 l 1,1,2
 886 1380 886 1380 831 1120 c 9,3,-1
 616 1120 l 1,4,5
 671 1380 671 1380 673 1530 c 1,0,-1
345 1530 m 1,6,-1
 620 1530 l 1,7,8
 558 1380 558 1380 503 1120 c 9,9,-1
 288 1120 l 1,10,11
 343 1380 343 1380 345 1530 c 1,6,-1
EndSplineSet
Validated: 1
EndChar

StartChar: numbersign
Encoding: 35 35 6
Width: 1278
GlyphClass: 2
Flags: W
HStem: 453 249<305.949 470.655 1049.35 1217.05> 483 191<707 813> 792 249<377.949 543.655 1124.31 1289.05> 822 191<781 887>
VStem: 402 249<268 388.059> 606 249<1109.76 1226> 741 249<268 388.059> 945 249<1110.06 1226>
LayerCount: 2
Fore
SplineSet
606 1226 m 1,0,-1
 855 1226 l 1,1,2
 810 1120 810 1120 781 1013 c 1,3,-1
 926 1013 l 1,4,5
 942 1118 942 1118 945 1226 c 1,6,-1
 1194 1226 l 1,7,8
 1149 1120 1149 1120 1121 1014 c 1,9,10
 1227 1020 1227 1020 1339 1041 c 1,11,-1
 1286 792 l 1,12,13
 1184 814 1184 814 1078 820 c 1,14,-1
 1046 675 l 1,15,16
 1153 681 1153 681 1267 702 c 1,17,-1
 1214 453 l 1,18,19
 1112 475 1112 475 1007 481 c 1,20,21
 991 375 991 375 990 268 c 1,22,-1
 741 268 l 1,23,24
 785 376 785 376 813 482 c 1,25,-1
 669 483 l 1,26,27
 653 376 653 376 651 268 c 1,28,-1
 402 268 l 1,29,30
 446 375 446 375 474 481 c 1,31,32
 367 474 367 474 256 453 c 1,33,-1
 309 702 l 1,34,35
 412 681 412 681 516 675 c 1,36,-1
 547 820 l 1,37,38
 440 813 440 813 328 792 c 1,39,-1
 381 1041 l 1,40,41
 483 1020 483 1020 588 1014 c 1,42,43
 604 1119 604 1119 606 1226 c 1,0,-1
887 821 m 1,44,-1
 740 822 l 1,45,-1
 707 674 l 1,46,-1
 855 674 l 1,47,-1
 887 821 l 1,44,-1
EndSplineSet
Validated: 1
EndChar

StartChar: dollar
Encoding: 36 36 7
Width: 1110
GlyphClass: 2
Flags: W
HStem: -20 177<335.111 539> 1355 173<967 1047.7>
VStem: 387 314<1049.24 1287.01> 504 100<-180 -80> 840 331<326.456 610.686> 901 100<1590 1690>
DStem2: 504 -180 604 -180 0.207912 0.978148<20.7912 166.715 419.525 851.994 1237.97 1555.9 1766.94 1911.68>
LayerCount: 2
Fore
SplineSet
461 -20 m 24,0,1
 245 -20 245 -20 62 105 c 1,2,-1
 139 468 l 1,3,-1
 149 468 l 1,4,5
 176 372 176 372 225 303 c 0,6,7
 328 157 328 157 510 157 c 0,8,9
 545 157 545 157 577 164 c 1,10,-1
 692 705 l 1,11,-1
 574 796 l 2,12,13
 387 939 387 939 387 1114 c 0,14,15
 387 1161 387 1161 401 1211 c 0,16,17
 445 1370 445 1370 619 1463 c 0,18,19
 726 1520 726 1520 867 1528 c 1,20,-1
 901 1690 l 1,21,-1
 1001 1690 l 1,22,-1
 967 1528 l 1,23,24
 1105 1519 1105 1519 1229 1459 c 1,25,-1
 1166 1160 l 1,26,-1
 1156 1160 l 1,27,28
 1086 1342 1086 1342 930 1355 c 1,29,-1
 846 961 l 1,30,-1
 943 888 l 2,31,32
 1171 716 1171 716 1171 510 c 0,33,34
 1171 462 1171 462 1158 412 c 0,35,36
 1116 245 1116 245 951 123 c 0,37,38
 820 26 820 26 641 -5 c 1,39,-1
 604 -180 l 1,40,-1
 504 -180 l 1,41,-1
 539 -17 l 1,42,43
 501 -20 501 -20 461 -20 c 24,0,1
761 1031 m 1,44,-1
 827 1342 l 1,45,46
 808 1335 808 1335 791 1325 c 0,47,48
 717 1281 717 1281 704 1206 c 0,49,50
 701 1187 701 1187 701 1170 c 0,51,52
 701 1094 701 1094 761 1031 c 1,44,-1
777 633 m 1,53,-1
 687 210 l 1,54,55
 707 223 707 223 725 240 c 0,56,57
 817 322 817 322 836 429 c 0,58,59
 840 452 840 452 840 475 c 0,60,61
 840 563 840 563 777 633 c 1,53,-1
EndSplineSet
Validated: 1
EndChar

StartChar: percent
Encoding: 37 37 8
Width: 1745
GlyphClass: 2
Flags: W
HStem: -20 160<1214.76 1411.81> 0 21G<382 700.5> 530 160<1278.49 1475.73> 820 160<589.761 786.809> 1370 160<653.491 850.733> 1490 20G<1366.5 1683>
VStem: 354 206<1037 1268.25> 880 207<1081.75 1313.97> 979 206<197.004 428.249> 1505 207<241.751 473.965>
DStem2: 1240 1225 1474 1251 0.557671 0.830062<-1332.75 321.31>
LayerCount: 2
Fore
SplineSet
1270 -20 m 0,0,1
 1129 -20 1129 -20 1047 77 c 0,2,3
 979 157 979 157 979 267 c 0,4,5
 979 300 979 300 985 335 c 0,6,7
 1010 483 1010 483 1148 595 c 0,8,9
 1265 690 1265 690 1421 690 c 0,10,11
 1562 690 1562 690 1644 593 c 0,12,13
 1712 513 1712 513 1712 403 c 0,14,15
 1712 370 1712 370 1706 335 c 0,16,17
 1681 187 1681 187 1543 75 c 0,18,19
 1426 -20 1426 -20 1270 -20 c 0,0,1
1386 530 m 0,20,21
 1320 530 1320 530 1266 475 c 0,22,23
 1210 420 1210 420 1192 336 c 0,24,25
 1185 303 1185 303 1185 276 c 0,26,27
 1185 228 1185 228 1206 196 c 0,28,29
 1243 140 1243 140 1303 140 c 0,30,31
 1368 140 1368 140 1424 195.5 c 128,-1,32
 1480 251 1480 251 1498 336 c 0,33,34
 1505 368 1505 368 1505 395 c 0,35,36
 1505 442 1505 442 1484 475 c 0,37,38
 1447 530 1447 530 1386 530 c 0,20,21
796 1530 m 0,39,40
 937 1530 937 1530 1019 1433 c 0,41,42
 1087 1353 1087 1353 1087 1243 c 0,43,44
 1087 1210 1087 1210 1081 1175 c 0,45,46
 1056 1027 1056 1027 918 915 c 0,47,48
 801 820 801 820 645 820 c 0,49,50
 504 820 504 820 422 917 c 0,51,52
 354 997 354 997 354 1107 c 0,53,54
 354 1140 354 1140 360 1175 c 0,55,56
 385 1323 385 1323 523 1435 c 0,57,58
 640 1530 640 1530 796 1530 c 0,39,40
761 1370 m 0,59,60
 695 1370 695 1370 641 1315 c 0,61,62
 585 1260 585 1260 567 1176 c 0,63,64
 560 1143 560 1143 560 1116 c 0,65,66
 560 1068 560 1068 581 1036 c 0,67,68
 618 980 618 980 678 980 c 0,69,70
 743 980 743 980 799 1035.5 c 128,-1,71
 855 1091 855 1091 873 1176 c 0,72,73
 880 1208 880 1208 880 1235 c 0,74,75
 880 1282 880 1282 859 1315 c 0,76,77
 822 1370 822 1370 761 1370 c 0,59,60
382 0 m 1,78,79
 498 120 498 120 591 259 c 10,80,-1
 1240 1225 l 2,81,82
 1332 1362 1332 1362 1401 1510 c 1,83,-1
 1683 1510 l 1,84,85
 1572 1397 1572 1397 1474 1251 c 2,86,-1
 825 285 l 2,87,88
 737 155 737 155 664 0 c 1,89,-1
 382 0 l 1,78,79
EndSplineSet
Validated: 1
EndChar

StartChar: quotesingle
Encoding: 39 39 9
Width: 315
GlyphClass: 2
Flags: W
HStem: 1120 410<345 504.72>
VStem: 288 332
LayerCount: 2
Fore
SplineSet
345 1530 m 1,0,-1
 620 1530 l 1,1,2
 558 1380 558 1380 503 1120 c 9,3,-1
 288 1120 l 1,4,5
 343 1380 343 1380 345 1530 c 1,0,-1
EndSplineSet
Validated: 1
EndChar

StartChar: parenleft
Encoding: 40 40 10
Width: 847
GlyphClass: 2
Flags: W
VStem: 283 305<48.6439 716.751>
LayerCount: 2
Fore
SplineSet
864 1760 m 1,0,-1
 1111 1760 l 1,1,2
 763 1339 763 1339 640 755 c 0,3,4
 588 508 588 508 588 287 c 0,5,6
 588 -9 588 -9 684 -250 c 1,7,-1
 437 -250 l 1,8,9
 283 63 283 63 283 407 c 0,10,11
 283 581 283 581 320 755 c 0,12,13
 434 1292 434 1292 864 1760 c 1,0,-1
EndSplineSet
Validated: 1
EndChar

StartChar: parenright
Encoding: 41 41 11
Width: 847
GlyphClass: 2
Flags: W
VStem: 580 305<792.791 1461.36>
LayerCount: 2
Fore
SplineSet
731 1760 m 1,0,1
 885 1447 885 1447 885 1103 c 0,2,3
 885 928 885 928 848 755 c 0,4,5
 734 218 734 218 304 -250 c 1,6,-1
 57 -250 l 1,7,8
 402 168 402 168 528 755 c 0,9,10
 580 997 580 997 580 1223 c 0,11,12
 580 1519 580 1519 484 1760 c 1,13,-1
 731 1760 l 1,0,1
EndSplineSet
Validated: 1
EndChar

StartChar: asterisk
Encoding: 42 42 12
Width: 1066
GlyphClass: 2
Flags: W
HStem: 1490 20G<728.5 978>
VStem: 553 248<677 797.064> 730 248<1391.38 1510>
LayerCount: 2
Fore
SplineSet
730 1510 m 1,0,-1
 978 1510 l 1,1,2
 927 1384 927 1384 895 1258 c 1,3,4
 1015 1324 1015 1324 1131 1409 c 1,5,-1
 1210 1194 l 1,6,7
 1079 1152 1079 1152 956 1094 c 1,8,9
 1053 1035 1053 1035 1167 993 c 1,10,-1
 997 778 l 1,11,12
 918 862 918 862 825 929 c 1,13,14
 801 799 801 799 801 677 c 1,15,-1
 553 677 l 1,16,17
 604 799 604 799 635 929 c 1,18,19
 510 860 510 860 399 778 c 1,20,-1
 321 993 l 1,21,22
 448 1033 448 1033 576 1094 c 1,23,24
 474 1155 474 1155 364 1194 c 1,25,-1
 533 1409 l 1,26,27
 610 1327 610 1327 705 1258 c 1,28,29
 727 1383 727 1383 730 1510 c 1,0,-1
EndSplineSet
Validated: 1
EndChar

StartChar: plus
Encoding: 43 43 13
Width: 1173
GlyphClass: 2
Flags: W
HStem: 612 264<292.959 618.844 869.172 1196.04> 642 204<300.501 620 868 1188.47>
VStem: 511 264<268 385.188> 713 264<1102.81 1220>
DStem2: 541.233 268 745.233 268 0.207912 0.978148<53.269 382.204 633.308 962.316>
LayerCount: 2
Fore
SplineSet
296 876 m 1,0,1
 440 846 440 846 590 846 c 2,2,-1
 664 846 l 1,3,-1
 680 920 l 2,4,5
 712 1070 712 1070 713 1220 c 1,6,-1
 977 1220 l 1,7,8
 915 1070 915 1070 884 920 c 2,9,-1
 868 846 l 1,10,-1
 943 846 l 2,11,12
 1091 846 1091 846 1249 876 c 1,13,-1
 1193 612 l 1,14,15
 1048 642 1048 642 899 642 c 2,16,-1
 824 642 l 1,17,-1
 809 568 l 2,18,19
 778 420 778 420 775 268 c 1,20,-1
 511 268 l 1,21,22
 573 418 573 418 605 568 c 2,23,-1
 620 642 l 1,24,-1
 546 642 l 2,25,26
 396 642 396 642 240 612 c 1,27,-1
 296 876 l 1,0,1
EndSplineSet
Validated: 1
EndChar

StartChar: comma
Encoding: 44 44 14
Width: 378
GlyphClass: 2
Flags: W
HStem: -312 621
VStem: 128 252<-28.9282 131>
LayerCount: 2
Fore
SplineSet
270 309 m 1,0,1
 380 246 380 246 380 131 c 0,2,3
 380 103 380 103 373 71 c 0,4,5
 321 -172 321 -172 -46 -312 c 1,6,-1
 -44 -302 l 1,7,8
 89 -182 89 -182 122 -24 c 0,9,10
 128 4 128 4 128 28 c 0,11,12
 128 106 128 106 65 140 c 1,13,-1
 270 309 l 1,0,1
EndSplineSet
Validated: 1
EndChar

StartChar: hyphen
Encoding: 45 45 15
Width: 1173
GlyphClass: 2
Flags: W
HStem: 612 264<292.959 1196.04> 642 204<300.501 1188.47>
LayerCount: 2
Fore
SplineSet
296 876 m 1,0,1
 440 846 440 846 590 846 c 2,2,-1
 943 846 l 2,3,4
 1091 846 1091 846 1249 876 c 1,5,-1
 1193 612 l 1,6,7
 1048 642 1048 642 899 642 c 2,8,-1
 546 642 l 2,9,10
 396 642 396 642 240 612 c 1,11,-1
 296 876 l 1,0,1
EndSplineSet
Validated: 1
EndChar

StartChar: period
Encoding: 46 46 16
Width: 404
GlyphClass: 2
Flags: W
HStem: -20 370<147.695 326.305>
VStem: 51 372<76 254>
LayerCount: 2
Fore
SplineSet
198 -20 m 0,0,1
 120 -20 120 -20 80 34 c 0,2,3
 51 73 51 73 51 124 c 0,4,5
 51 144 51 144 55 165 c 0,6,7
 71 242 71 242 135.5 296 c 128,-1,8
 200 350 200 350 276 350 c 0,9,10
 354 350 354 350 394 296 c 0,11,12
 423 257 423 257 423 206 c 0,13,14
 423 186 423 186 419 165 c 0,15,16
 403 88 403 88 338.5 34 c 128,-1,17
 274 -20 274 -20 198 -20 c 0,0,1
EndSplineSet
Validated: 1
EndChar

StartChar: slash
Encoding: 47 47 17
Width: 1246
GlyphClass: 2
Flags: W
DStem2: 1073 1405 1386 1431 0.558161 0.829733<-1722.1 320.755>
LayerCount: 2
Fore
SplineSet
-28 -180 m 1,0,1
 99 -42 99 -42 181 79 c 10,2,-1
 1073 1405 l 2,3,4
 1165 1542 1165 1542 1233 1690 c 1,5,-1
 1595 1690 l 1,6,7
 1475 1563 1475 1563 1386 1431 c 2,8,-1
 494 105 l 2,9,10
 411 -19 411 -19 334 -180 c 1,11,-1
 -28 -180 l 1,0,1
EndSplineSet
Validated: 1
EndChar

StartChar: zero
Encoding: 48 48 18
Width: 1462
GlyphClass: 2
Flags: W
HStem: -20 174<649.943 896.389> 1356 174<886.323 1133.01>
VStem: 245 327<278.966 786.306> 1211 327<723.784 1231.03>
LayerCount: 2
Fore
SplineSet
727 -20 m 128,-1,1
 478 -20 478 -20 343 177 c 0,2,3
 245 321 245 321 245 527 c 0,4,5
 245 634 245 634 270 755 c 0,6,7
 346 1115 346 1115 588 1333 c 0,8,9
 807 1530 807 1530 1056 1530 c 128,-1,10
 1305 1530 1305 1530 1440 1333 c 0,11,12
 1538 1189 1538 1189 1538 983 c 0,13,14
 1538 877 1538 877 1512 755 c 0,15,16
 1436 395 1436 395 1195 177 c 0,17,0
 976 -20 976 -20 727 -20 c 128,-1,1
763.5 154 m 128,-1,19
 885 154 885 154 989 288 c 0,20,21
 1109 442 1109 442 1174 755 c 0,22,23
 1211 933 1211 933 1211 1058 c 0,24,25
 1211 1156 1211 1156 1188 1222 c 0,26,27
 1141 1356 1141 1356 1019 1356 c 128,-1,28
 897 1356 897 1356 794 1222 c 0,29,30
 677 1070 677 1070 609 755 c 0,31,32
 572 579 572 579 572 454 c 0,33,34
 572 355 572 355 595 288 c 0,35,18
 642 154 642 154 763.5 154 c 128,-1,19
EndSplineSet
Validated: 1
EndChar

StartChar: one
Encoding: 49 49 19
Width: 823
GlyphClass: 2
Flags: W
HStem: 0 21G<282 644> 1530 20G<823.6 941.5>
DStem2: 273 1235 372 1083 0.777852 0.628448<0 241.046> 311.932 0 613.304 0 0.207912 0.978148<73.4325 1272.67>
LayerCount: 2
Fore
SplineSet
282 0 m 1,0,1
 344 150 344 150 376 300 c 2,2,-1
 567 1200 l 2,3,4
 573 1227 573 1227 574 1246 c 1,5,-1
 372 1083 l 1,6,-1
 273 1235 l 1,7,-1
 601 1500 l 1,8,-1
 972 1550 l 1,9,10
 911 1403 911 1403 879 1250 c 2,11,-1
 677 300 l 2,12,13
 645 150 645 150 643 0 c 1,14,-1
 282 0 l 1,0,1
EndSplineSet
Validated: 1
EndChar

StartChar: two
Encoding: 50 50 20
Width: 1294
GlyphClass: 2
Flags: W
HStem: 0 204<460 1184> 1355 175<662.573 988.689>
VStem: 385 10<1043 1046.46> 1061 345<981.366 1284.1>
LayerCount: 2
Fore
SplineSet
80 0 m 1,0,1
 216 364 216 364 759 715 c 0,2,3
 1011 878 1011 878 1054 1084 c 0,4,5
 1061 1117 1061 1117 1061 1147 c 0,6,7
 1061 1217 1061 1217 1024 1274 c 0,8,9
 971 1355 971 1355 840 1355 c 0,10,11
 682 1355 682 1355 558 1234 c 0,12,13
 476 1154 476 1154 395 1043 c 1,14,-1
 385 1043 l 1,15,-1
 461 1404 l 1,16,17
 676 1530 676 1530 936 1530 c 0,18,19
 1175 1530 1175 1530 1310 1399 c 0,20,21
 1406 1306 1406 1306 1406 1157 c 0,22,23
 1406 1116 1406 1116 1399 1070 c 0,24,25
 1350 762 1350 762 897 543 c 0,26,27
 595 397 595 397 460 204 c 1,28,-1
 927 204 l 2,29,30
 1084 204 1084 204 1235 242 c 1,31,-1
 1184 0 l 1,32,-1
 80 0 l 1,0,1
EndSplineSet
Validated: 1
EndChar

StartChar: three
Encoding: 51 51 21
Width: 1243
GlyphClass: 2
Flags: W
HStem: -20 174<352.991 703.323> 1336 174<493 980>
VStem: 179 10<444.132 467> 907 338<371.242 680.897>
DStem2: 538 863 898 918 0.682758 0.730644<285.978 643.005>
LayerCount: 2
Fore
SplineSet
501 -20 m 0,0,1
 244 -20 244 -20 103 106 c 1,2,-1
 179 467 l 1,3,-1
 189 467 l 1,4,5
 210 360 210 360 252 298 c 0,6,7
 349 154 349 154 516 154 c 0,8,9
 662 154 662 154 762 238 c 0,10,11
 868 328 868 328 898 469 c 0,12,13
 907 510 907 510 907 545 c 0,14,15
 907 636 907 636 850 696 c 0,16,17
 782 769 782 769 589 769 c 1,18,-1
 538 863 l 1,19,-1
 980 1336 l 1,20,-1
 754 1336 l 2,21,22
 601 1336 601 1336 448 1298 c 1,23,-1
 493 1510 l 1,24,-1
 1348 1510 l 1,25,-1
 1349 1336 l 1,26,27
 1197 1239 1197 1239 1091 1125 c 2,28,-1
 898 918 l 1,29,30
 1053 905 1053 905 1144 814 c 0,31,32
 1245 715 1245 715 1245 573 c 0,33,34
 1245 526 1245 526 1234 475 c 0,35,36
 1189 261 1189 261 986 112 c 0,37,38
 807 -20 807 -20 501 -20 c 0,0,1
EndSplineSet
Validated: 1
EndChar

StartChar: five
Encoding: 53 53 22
Width: 1242
GlyphClass: 2
Flags: W
HStem: -20 174<374.725 712.883> 773 174<680.371 833.544> 1336 174<780 1283.93>
VStem: 907 337<368.852 697.506>
LayerCount: 2
Fore
SplineSet
501 -20 m 0,0,1
 254 -20 254 -20 103 106 c 1,2,-1
 179 465 l 1,3,-1
 189 465 l 1,4,5
 210 380 210 380 270 295 c 0,6,7
 369 154 369 154 553 154 c 0,8,9
 668 154 668 154 761 234 c 0,10,11
 866 325 866 325 897 469 c 0,12,13
 907 515 907 515 907 555 c 0,14,15
 907 638 907 638 865 695 c 0,16,17
 808 773 808 773 693 773 c 0,18,19
 591 773 591 773 520 731 c 1,20,-1
 318 890 l 1,21,-1
 580 1510 l 1,22,-1
 1333 1510 l 1,23,-1
 1288 1297 l 1,24,25
 1158 1336 1158 1336 996 1336 c 2,26,-1
 780 1336 l 1,27,-1
 679 947 l 1,28,29
 749 954 749 954 813 954 c 0,30,31
 1042 954 1042 954 1155 825 c 0,32,33
 1244 723 1244 723 1244 581 c 0,34,35
 1244 528 1244 528 1232 470 c 0,36,37
 1188 261 1188 261 986 112 c 24,38,39
 807 -20 807 -20 501 -20 c 0,0,1
EndSplineSet
Validated: 1
EndChar

StartChar: six
Encoding: 54 54 23
Width: 1398
GlyphClass: 2
Flags: W
HStem: -20 175<627.25 881.167> 863 171<759.083 1013.54> 1356 174<924.342 1244.73>
VStem: 241 316<260.381 613.695> 1084 326<409.364 787.825> 1375 10<1068 1085.72>
LayerCount: 2
Fore
SplineSet
895 863 m 128,-1,1
 790 863 790 863 697 767 c 0,2,3
 605 672 605 672 571 509 c 0,4,5
 557 443 557 443 557 389 c 0,6,7
 557 308 557 308 587 251 c 0,8,9
 640 155 640 155 745 155 c 128,-1,10
 850 155 850 155 943 251 c 0,11,12
 1035 346 1035 346 1070 509 c 0,13,14
 1084 575 1084 575 1084 629 c 0,15,16
 1084 710 1084 710 1053 767 c 0,17,0
 1000 863 1000 863 895 863 c 128,-1,1
708 -20 m 0,18,19
 463 -20 463 -20 331 175 c 0,20,21
 241 310 241 310 241 508 c 0,22,23
 241 617 241 617 268 745 c 0,24,25
 346 1112 346 1112 594 1334 c 0,26,27
 813 1530 813 1530 1097 1530 c 0,28,29
 1324 1530 1324 1530 1462 1428 c 1,30,-1
 1385 1068 l 1,31,-1
 1375 1068 l 1,32,33
 1315 1356 1315 1356 1107 1356 c 0,34,35
 960 1356 960 1356 851 1264 c 0,36,37
 717 1151 717 1151 644 940 c 1,38,39
 790 1034 790 1034 974 1034 c 0,40,41
 1194 1034 1194 1034 1324 876 c 0,42,43
 1410 772 1410 772 1410 629 c 0,44,45
 1410 574 1410 574 1397 513 c 0,46,47
 1352 299 1352 299 1162 139 c 0,48,49
 974 -20 974 -20 708 -20 c 0,18,19
EndSplineSet
Validated: 1
EndChar

StartChar: seven
Encoding: 55 55 24
Width: 1105
GlyphClass: 2
Flags: W
HStem: 0 21G<13 470> 1336 174<331 972>
DStem2: 972 1336 598 285 0.571466 0.820626<-1397.11 -2.12814>
LayerCount: 2
Fore
SplineSet
13 0 m 1,0,1
 132 130 132 130 222 259 c 2,2,-1
 972 1336 l 1,3,-1
 594 1336 l 2,4,5
 431 1336 431 1336 288 1306 c 1,6,-1
 331 1510 l 1,7,-1
 1359 1510 l 1,8,-1
 1379 1336 l 1,9,10
 1251 1232 1251 1232 1164 1106 c 2,11,-1
 598 285 l 2,12,13
 503 148 503 148 437 0 c 1,14,-1
 13 0 l 1,0,1
EndSplineSet
Validated: 1
EndChar

StartChar: eight
Encoding: 56 56 25
Width: 1327
GlyphClass: 2
Flags: W
HStem: -20 174<493.305 836.068> 1358 172<852.99 1109.72>
VStem: 193 211<241.844 529.131> 471 295<1048.16 1272.83> 1008 310<319.09 586.329> 1148 207<1086.93 1311.39>
LayerCount: 2
Fore
SplineSet
932 966 m 1,0,1
 1114 1031 1114 1031 1144 1178 c 0,2,3
 1148 1198 1148 1198 1148 1217 c 0,4,5
 1148 1265 1148 1265 1121 1302 c 0,6,7
 1080 1358 1080 1358 1001 1358 c 0,8,9
 912 1358 912 1358 855 1316 c 0,10,11
 787 1268 787 1268 770 1186 c 0,12,13
 766 1167 766 1167 766 1149 c 0,14,15
 766 1063 766 1063 867 1004 c 2,16,-1
 932 966 l 1,0,1
659 -20 m 0,17,18
 415 -20 415 -20 290 115 c 0,19,20
 193 221 193 221 193 351 c 0,21,22
 193 391 193 391 202 434 c 0,23,24
 270 756 270 756 589 855 c 1,25,26
 471 952 471 952 471 1097 c 0,27,28
 471 1145 471 1145 484 1198 c 0,29,30
 520 1345 520 1345 660 1439 c 0,31,32
 796 1530 796 1530 983 1530 c 0,33,34
 1172 1530 1172 1530 1276 1423 c 0,35,36
 1355 1341 1355 1341 1355 1221 c 0,37,38
 1355 1197 1355 1197 1352 1172 c 0,39,40
 1326 967 1326 967 1099 865 c 1,41,42
 1318 746 1318 746 1318 526 c 0,43,44
 1318 469 1318 469 1303 405 c 0,45,46
 1264 236 1264 236 1101 117 c 0,47,48
 914 -20 914 -20 659 -20 c 0,17,18
745 735 m 1,49,50
 464 653 464 653 412 434 c 0,51,52
 404 398 404 398 404 366 c 0,53,54
 404 287 404 287 455 232 c 0,55,56
 526 154 526 154 651 154 c 0,57,58
 790 154 790 154 886 230 c 0,59,60
 983 307 983 307 1003 411 c 0,61,62
 1008 437 1008 437 1008 461 c 0,63,64
 1008 576 1008 576 893 645 c 2,65,-1
 745 735 l 1,49,50
EndSplineSet
Validated: 1
EndChar

StartChar: nine
Encoding: 57 57 26
Width: 1398
GlyphClass: 2
Flags: W
HStem: -20 174<474.269 794.658> 476 171<705.46 959.917> 1355 175<837.833 1091.75>
VStem: 309 326<722.175 1100.64> 334 10<424.281 442> 1162 316<896.305 1249.62>
LayerCount: 2
Fore
SplineSet
824 647 m 128,-1,1
 929 647 929 647 1022 743 c 0,2,3
 1114 838 1114 838 1148 1001 c 0,4,5
 1162 1067 1162 1067 1162 1121 c 0,6,7
 1162 1202 1162 1202 1132 1259 c 0,8,9
 1079 1355 1079 1355 974 1355 c 128,-1,10
 869 1355 869 1355 776 1259 c 0,11,12
 684 1164 684 1164 649 1001 c 0,13,14
 635 935 635 935 635 881 c 0,15,16
 635 800 635 800 666 743 c 0,17,0
 719 647 719 647 824 647 c 128,-1,1
622 -20 m 0,18,19
 395 -20 395 -20 257 82 c 1,20,-1
 334 442 l 1,21,-1
 344 442 l 1,22,23
 404 154 404 154 612 154 c 0,24,25
 759 154 759 154 868 246 c 0,26,27
 1002 359 1002 359 1075 570 c 1,28,29
 929 476 929 476 745 476 c 0,30,31
 525 476 525 476 395 634 c 0,32,33
 309 738 309 738 309 881 c 0,34,35
 309 936 309 936 322 997 c 0,36,37
 367 1211 367 1211 557 1371 c 0,38,39
 745 1530 745 1530 1011 1530 c 0,40,41
 1256 1530 1256 1530 1388 1335 c 0,42,43
 1478 1200 1478 1200 1478 1002 c 0,44,45
 1478 893 1478 893 1451 765 c 0,46,47
 1373 398 1373 398 1125 176 c 0,48,49
 906 -20 906 -20 622 -20 c 0,18,19
EndSplineSet
Validated: 1
EndChar

StartChar: colon
Encoding: 58 58 27
Width: 405
GlyphClass: 2
Flags: W
HStem: -20 370<147.695 326.305> 569 370<273.695 452.305>
VStem: 51 498
LayerCount: 2
Fore
SplineSet
402 939 m 0,0,1
 480 939 480 939 520 885 c 0,2,3
 549 846 549 846 549 795 c 0,4,5
 549 775 549 775 545 754 c 0,6,7
 529 677 529 677 464.5 623 c 128,-1,8
 400 569 400 569 324 569 c 0,9,10
 246 569 246 569 206 623 c 0,11,12
 177 662 177 662 177 713 c 0,13,14
 177 733 177 733 181 754 c 0,15,16
 197 831 197 831 261.5 885 c 128,-1,17
 326 939 326 939 402 939 c 0,0,1
198 -20 m 0,18,19
 120 -20 120 -20 80 34 c 0,20,21
 51 73 51 73 51 124 c 0,22,23
 51 144 51 144 55 165 c 0,24,25
 71 242 71 242 135.5 296 c 128,-1,26
 200 350 200 350 276 350 c 0,27,28
 354 350 354 350 394 296 c 0,29,30
 423 257 423 257 423 206 c 0,31,32
 423 186 423 186 419 165 c 0,33,34
 403 88 403 88 338.5 34 c 128,-1,35
 274 -20 274 -20 198 -20 c 0,18,19
EndSplineSet
Validated: 1
EndChar

StartChar: semicolon
Encoding: 59 59 28
Width: 405
GlyphClass: 2
Flags: W
HStem: 569 370<273.695 452.305>
VStem: 128 252<-28.9282 131>
LayerCount: 2
Fore
SplineSet
402 939 m 0,0,1
 480 939 480 939 520 885 c 0,2,3
 549 846 549 846 549 795 c 0,4,5
 549 775 549 775 545 754 c 0,6,7
 529 677 529 677 464.5 623 c 128,-1,8
 400 569 400 569 324 569 c 0,9,10
 246 569 246 569 206 623 c 0,11,12
 177 662 177 662 177 713 c 0,13,14
 177 733 177 733 181 754 c 0,15,16
 197 831 197 831 261.5 885 c 128,-1,17
 326 939 326 939 402 939 c 0,0,1
270 309 m 1,18,19
 380 246 380 246 380 131 c 0,20,21
 380 103 380 103 373 71 c 0,22,23
 321 -172 321 -172 -46 -312 c 1,24,-1
 -44 -302 l 1,25,26
 89 -182 89 -182 122 -24 c 0,27,28
 128 4 128 4 128 28 c 0,29,30
 128 106 128 106 65 140 c 1,31,-1
 270 309 l 1,18,19
EndSplineSet
Validated: 1
EndChar

StartChar: less
Encoding: 60 60 29
Width: 1290
GlyphClass: 2
Flags: W
HStem: 602 282<298 430.504>
DStem2: 588 716 512 522 0.889337 -0.457253<2.51791 692.419> 603 966 588 716 0.922867 0.385119<-106.858 689.231>
LayerCount: 2
Fore
SplineSet
1414 1337 m 1,0,-1
 1342 997 l 1,1,2
 1194 961 1194 961 1036 897 c 2,3,-1
 588 716 l 1,4,-1
 956 522 l 2,5,6
 1089 452 1089 452 1220 422 c 1,7,-1
 1162 150 l 1,8,9
 1050 245 1050 245 936 304 c 2,10,-1
 512 522 l 2,11,12
 379 590 379 590 238 602 c 1,13,-1
 298 884 l 1,14,15
 439 898 439 898 603 966 c 2,16,-1
 1123 1183 l 2,17,18
 1264 1242 1264 1242 1414 1337 c 1,0,-1
EndSplineSet
Validated: 1
EndChar

StartChar: equal
Encoding: 61 61 30
Width: 1173
GlyphClass: 2
Flags: W
HStem: 428 264<253.959 1157.04> 458 204<261.501 1149.47> 797 264<332.905 1235.1> 827 204<340.501 1227.47>
LayerCount: 2
Fore
SplineSet
257 692 m 1,0,1
 401 662 401 662 551 662 c 2,2,-1
 904 662 l 2,3,4
 1052 662 1052 662 1210 692 c 1,5,-1
 1154 428 l 1,6,7
 1009 458 1009 458 860 458 c 2,8,-1
 507 458 l 2,9,10
 357 458 357 458 201 428 c 1,11,-1
 257 692 l 1,0,1
336 1061 m 1,12,13
 480 1031 480 1031 629 1031 c 2,14,-1
 982 1031 l 2,15,16
 1130 1031 1130 1031 1289 1061 c 1,17,-1
 1232 797 l 1,18,19
 1087 827 1087 827 939 827 c 2,20,-1
 586 827 l 2,21,22
 436 827 436 827 279 797 c 1,23,-1
 336 1061 l 1,12,13
EndSplineSet
Validated: 1
EndChar

StartChar: greater
Encoding: 62 62 31
Width: 1290
GlyphClass: 2
Flags: W
HStem: 603 282<1175.7 1308>
DStem2: 571 590 484 304 0.922867 0.385119<-317.125 479.399> 671 1183 1018 771 0.888897 -0.458108<-194.344 494.47>
LayerCount: 2
Fore
SplineSet
444 1337 m 1,0,1
 556 1242 556 1242 671 1183 c 2,2,-1
 1094 965 l 2,3,4
 1227 897 1227 897 1368 885 c 1,5,-1
 1308 603 l 1,6,7
 1167 589 1167 589 1004 521 c 2,8,-1
 484 304 l 2,9,10
 342 245 342 245 192 150 c 1,11,-1
 264 490 l 1,12,13
 412 526 412 526 571 590 c 2,14,-1
 1018 771 l 1,15,-1
 650 965 l 2,16,17
 517 1035 517 1035 387 1065 c 1,18,-1
 444 1337 l 1,0,1
EndSplineSet
Validated: 1
EndChar

StartChar: question
Encoding: 63 63 32
Width: 1234
GlyphClass: 2
Flags: W
HStem: -20 370<485.695 664.305> 1354 176<622.113 960.325>
VStem: 334 10<1054 1059.49> 1030 333<976.407 1284.96>
LayerCount: 2
Fore
SplineSet
536 -20 m 0,0,1
 458 -20 458 -20 418 34 c 0,2,3
 389 73 389 73 389 124 c 0,4,5
 389 144 389 144 393 165 c 0,6,7
 409 242 409 242 473.5 296 c 128,-1,8
 538 350 538 350 614 350 c 0,9,10
 692 350 692 350 732 296 c 0,11,12
 761 257 761 257 761 206 c 0,13,14
 761 186 761 186 757 165 c 0,15,16
 741 88 741 88 676.5 34 c 128,-1,17
 612 -20 612 -20 536 -20 c 0,0,1
917 1530 m 0,18,19
 1155 1530 1155 1530 1275 1395 c 0,20,21
 1363 1295 1363 1295 1363 1169 c 0,22,23
 1363 1132 1363 1132 1356 1093 c 0,24,25
 1306 831 1306 831 993 672 c 0,26,27
 773 559 773 559 750 449 c 1,28,-1
 514 449 l 1,29,30
 555 641 555 641 825 815 c 0,31,32
 989 920 989 920 1021 1070 c 0,33,34
 1030 1114 1030 1114 1030 1151 c 0,35,36
 1030 1226 1030 1226 993 1277 c 0,37,38
 935 1354 935 1354 814 1354 c 0,39,40
 631 1354 631 1354 484 1215 c 0,41,42
 407 1142 407 1142 344 1054 c 1,43,-1
 334 1054 l 1,44,-1
 407 1395 l 1,45,46
 651 1530 651 1530 917 1530 c 0,18,19
EndSplineSet
Validated: 1
EndChar

StartChar: at
Encoding: 64 64 33
Width: 1588
GlyphClass: 2
Flags: W
HStem: -430 174<614.613 1070.02> -20 155<862.88 1067.51> 0 21G<1105 1458> 624 153<945.325 1183.18> 940 180<832.615 1243.91>
VStem: 165 196<-7.24292 441.889> 493 316<187.25 479.189> 1231 225<0 450> 1296 282<738.788 891.05>
LayerCount: 2
Fore
SplineSet
970 135 m 128,-1,1
 1055 135 1055 135 1132 209 c 0,2,3
 1200 274 1200 274 1222 380 c 0,4,5
 1230 418 1230 418 1231 450 c 0,6,7
 1231 508 1231 508 1205 551 c 0,8,9
 1161 624 1161 624 1073.5 624 c 128,-1,10
 986 624 986 624 909 551 c 0,11,12
 837 486 837 486 816 380 c 0,13,14
 809 345 809 345 809 311 c 0,15,16
 809 251 809 251 836 209 c 0,17,0
 885 135 885 135 970 135 c 128,-1,1
1456 0 m 1,18,-1
 1105 0 l 1,19,20
 1130 44 1130 44 1145 93 c 1,21,22
 1057 -20 1057 -20 883 -20 c 0,23,24
 687 -20 687 -20 577 93 c 0,25,26
 493 179 493 179 493 298 c 0,27,28
 493 337 493 337 502 380 c 0,29,30
 540 557 540 557 704 667 c 128,-1,31
 868 777 868 777 1070 777 c 0,32,33
 1197 777 1197 777 1295 738 c 1,34,35
 1296 753 1296 753 1296 767 c 0,36,37
 1296 821 1296 821 1280 853 c 0,38,39
 1237 940 1237 940 1079 940 c 0,40,41
 844 940 844 940 660 798 c 0,42,43
 439 628 439 628 378 345 c 0,44,45
 361 267 361 267 361 197 c 0,46,47
 361 21 361 21 468 -102 c 0,48,49
 602 -256 602 -256 839 -256 c 0,50,51
 1063 -256 1063 -256 1267 -98 c 1,52,-1
 1370 -227 l 1,53,54
 1106 -430 1106 -430 800 -430 c 128,-1,55
 494 -430 494 -430 316 -227 c 0,56,57
 165 -55 165 -55 165 178 c 0,58,59
 165 258 165 258 183 344 c 0,60,61
 258 713 258 713 546 933 c 0,62,63
 792 1120 792 1120 1134 1120 c 0,64,65
 1395 1120 1395 1120 1508 979 c 0,66,67
 1578 891 1578 891 1578 763 c 0,68,69
 1578 705 1578 705 1564 639 c 2,70,-1
 1490 294 l 2,71,72
 1460 154 1460 154 1456 0 c 1,18,-1
EndSplineSet
Validated: 1
EndChar

StartChar: A
Encoding: 65 65 34
Width: 1720
GlyphClass: 2
Flags: W
HStem: 0 21G<5 359.5 1339 1715> 571 165<791 1190> 1490 20G<987.5 1341>
DStem2: 214 259 680 571 0.558263 0.829664<-146.979 519.006 717.867 1242.24> 1376 1225 1081 1177 0.241117 -0.970496<-24.3973 429.725 599.742 1175.95>
LayerCount: 2
Fore
SplineSet
5 0 m 1,0,1
 125 127 125 127 214 259 c 2,2,-1
 864 1225 l 2,3,4
 950 1352 950 1352 1025 1510 c 1,5,-1
 1337 1510 l 1,6,7
 1345 1350 1345 1350 1376 1225 c 2,8,-1
 1616 259 l 2,9,10
 1646 138 1646 138 1715 0 c 1,11,-1
 1342 0 l 1,12,13
 1336 154 1336 154 1303 285 c 2,14,-1
 1231 571 l 1,15,-1
 680 571 l 1,16,-1
 488 285 l 2,17,18
 392 142 392 142 327 0 c 1,19,-1
 5 0 l 1,0,1
1081 1177 m 1,20,-1
 791 736 l 1,21,-1
 1190 736 l 1,22,-1
 1081 1177 l 1,20,-1
EndSplineSet
Validated: 1
EndChar

StartChar: B
Encoding: 66 66 35
Width: 1211
GlyphClass: 2
Flags: W
HStem: 0 174<499 733.906> 746 176<651 845.751> 1336 174<733.227 941.156>
VStem: 922 337<360.239 670.132> 985 290<1046.03 1296.12>
DStem2: 160.233 0 454.595 0 0.207912 0.978148<245.153 824.042 1003.89 1426.25>
LayerCount: 2
Fore
SplineSet
499 174 m 1,0,-1
 572 174 l 2,1,2
 685 174 685 174 787 252 c 0,3,4
 886 329 886 329 914 463 c 0,5,6
 922 502 922 502 922 537 c 0,7,8
 922 618 922 618 876 673 c 0,9,10
 816 746 816 746 694 746 c 2,11,-1
 614 746 l 1,12,-1
 519 303 l 2,13,14
 506 240 506 240 499 174 c 1,0,-1
130 0 m 1,15,16
 193 153 193 153 224 300 c 2,17,-1
 417 1210 l 2,18,19
 449 1361 449 1361 451 1510 c 1,20,-1
 886 1510 l 2,21,22
 1089 1510 1089 1510 1194 1410 c 0,23,24
 1275 1333 1275 1333 1275 1220 c 0,25,26
 1275 1181 1275 1181 1265 1137 c 0,27,28
 1224 955 1224 955 1012 854 c 1,29,30
 1100 828 1100 828 1153 781 c 0,31,32
 1259 687 1259 687 1259 550 c 0,33,34
 1259 508 1259 508 1249 463 c 0,35,36
 1209 273 1209 273 1022 137 c 0,37,38
 834 0 834 0 550 0 c 2,39,-1
 130 0 l 1,15,16
651 922 m 1,40,-1
 727 922 l 2,41,42
 815 922 815 922 888 982 c 0,43,44
 957 1040 957 1040 980 1146 c 0,45,46
 985 1169 985 1169 985 1190 c 0,47,48
 984 1242 984 1242 954 1282 c 0,49,50
 912 1336 912 1336 815 1336 c 2,51,-1
 746 1336 l 1,52,53
 724 1264 724 1264 712 1208 c 2,54,-1
 651 922 l 1,40,-1
EndSplineSet
Validated: 1
EndChar

StartChar: C
Encoding: 67 67 36
Width: 1565
GlyphClass: 2
Flags: W
HStem: -20 175<770.68 1200.34> 1355 175<1010.63 1443.31>
VStem: 200 356<378.033 840.293>
LayerCount: 2
Fore
SplineSet
929 -20 m 0,0,1
 545 -20 545 -20 346 198 c 0,2,3
 200 357 200 357 200 580 c 0,4,5
 200 662 200 662 220 753 c 0,6,7
 295 1104 295 1104 581 1319 c 0,8,9
 863 1530 863 1530 1258 1530 c 0,10,11
 1575 1530 1575 1530 1779 1385 c 1,12,-1
 1702 1020 l 1,13,-1
 1691 1020 l 1,14,15
 1569 1355 1569 1355 1220 1355 c 0,16,17
 997 1355 997 1355 801 1174 c 0,18,19
 632 1017 632 1017 576 755 c 0,20,21
 556 662 556 662 556 583 c 0,22,23
 556 438 556 438 622 338 c 0,24,25
 743 155 743 155 957 155 c 0,26,27
 1302 155 1302 155 1598 490 c 1,28,-1
 1609 490 l 1,29,-1
 1545 186 l 1,30,31
 1264 -20 1264 -20 929 -20 c 0,0,1
EndSplineSet
Validated: 1
EndChar

StartChar: D
Encoding: 68 68 37
Width: 1639
GlyphClass: 2
Flags: W
HStem: 0 175<515 976> 1335 175<749.251 1205.5>
VStem: 1410 346<654.732 1117.3>
DStem2: 159.807 0 469.807 0 0.207912 0.978148<249.056 1429.37>
LayerCount: 2
Fore
SplineSet
130 0 m 1,0,1
 192 150 192 150 224 300 c 2,2,-1
 417 1210 l 2,3,4
 449 1360 449 1360 451 1510 c 1,5,-1
 1037 1510 l 2,6,7
 1425 1510 1425 1510 1614 1295 c 0,8,9
 1756 1132 1756 1132 1756 908 c 0,10,11
 1756 834 1756 834 1739 755 c 0,12,13
 1667 421 1667 421 1382 211 c 0,14,15
 1096 0 1096 0 716 0 c 2,16,-1
 130 0 l 1,0,1
515 175 m 1,17,-1
 753 175 l 2,18,19
 991 175 991 175 1169 348 c 0,20,21
 1344 520 1344 520 1394 756 c 0,22,23
 1410 833 1410 833 1410 903 c 0,24,25
 1410 1047 1410 1047 1342 1162 c 0,26,27
 1240 1335 1240 1335 1000 1335 c 2,28,-1
 764 1335 l 1,29,30
 741 1272 741 1272 727 1210 c 2,31,-1
 534 300 l 2,32,33
 519 230 519 230 515 175 c 1,17,-1
EndSplineSet
Validated: 1
EndChar

StartChar: E
Encoding: 69 69 38
Width: 1108
GlyphClass: 2
Flags: W
HStem: 0 174<515 1048> 671 175<650 1059.5> 1306 204<766.312 1209.02> 1336 174<748.631 1201.5>
DStem2: 160.446 0 470.375 0 0.207912 0.978148<248.277 750.428 929.297 1430.28>
LayerCount: 2
Fore
SplineSet
130 0 m 1,0,1
 192 150 192 150 224 299 c 2,2,-1
 417 1209 l 2,3,4
 449 1360 449 1360 451 1510 c 1,5,-1
 1249 1510 l 1,6,-1
 1206 1306 l 1,7,8
 1062 1336 1062 1336 912 1336 c 2,9,-1
 764 1336 l 1,10,11
 741 1275 741 1275 727 1210 c 2,12,-1
 650 846 l 1,13,-1
 808 846 l 2,14,15
 958 846 958 846 1114 876 c 1,16,-1
 1064 641 l 1,17,18
 920 671 920 671 771 671 c 2,19,-1
 613 671 l 1,20,-1
 534 300 l 2,21,22
 520 235 520 235 515 174 c 1,23,-1
 785 174 l 2,24,25
 943 174 943 174 1091 204 c 1,26,-1
 1048 0 l 1,27,-1
 130 0 l 1,0,1
EndSplineSet
Validated: 1
EndChar

StartChar: F
Encoding: 70 70 39
Width: 1028
GlyphClass: 2
Flags: W
HStem: 0 21G<130 501> 671 175<650 1059.5> 1306 204<766.312 1209.02> 1336 174<748.631 1201.5>
DStem2: 160.446 0 470.375 0 0.207912 0.978148<75.1969 750.428 929.297 1430.28>
LayerCount: 2
Fore
SplineSet
130 0 m 1,0,1
 192 149 192 149 224 299 c 2,2,-1
 417 1209 l 2,3,4
 449 1360 449 1360 451 1510 c 1,5,-1
 1249 1510 l 1,6,-1
 1206 1306 l 1,7,8
 1062 1336 1062 1336 912 1336 c 2,9,-1
 764 1336 l 1,10,11
 741 1275 741 1275 727 1210 c 2,12,-1
 650 846 l 1,13,-1
 808 846 l 2,14,15
 958 846 958 846 1114 876 c 1,16,-1
 1064 641 l 1,17,18
 920 671 920 671 771 671 c 2,19,-1
 613 671 l 1,20,-1
 534 300 l 2,21,22
 502 150 502 150 500 0 c 1,23,-1
 130 0 l 1,0,1
EndSplineSet
Validated: 1
EndChar

StartChar: G
Encoding: 71 71 40
Width: 1656
GlyphClass: 2
Flags: W
HStem: -20 175<768.844 1201.96> 671 175<1048 1369> 1355 175<1008.54 1443.54>
VStem: 200 347<383.877 843.33>
DStem2: 1222.01 -20 1541.56 -20 0.207912 0.978148<267.757 706.461>
LayerCount: 2
Fore
SplineSet
929 -20 m 0,0,1
 545 -20 545 -20 346 198 c 0,2,3
 200 357 200 357 200 580 c 0,4,5
 200 662 200 662 220 753 c 0,6,7
 295 1104 295 1104 581 1319 c 0,8,9
 863 1530 863 1530 1258 1530 c 0,10,11
 1575 1530 1575 1530 1779 1385 c 1,12,-1
 1702 1020 l 1,13,-1
 1691 1020 l 1,14,15
 1570 1355 1570 1355 1220 1355 c 0,16,17
 991 1355 991 1355 796 1174 c 0,18,19
 621 1012 621 1012 566 755 c 0,20,21
 547 667 547 667 547 591 c 0,22,23
 547 444 547 444 617 338 c 0,24,25
 738 155 738 155 957 155 c 0,26,27
 1124 155 1124 155 1280 234 c 1,28,-1
 1276 234 l 1,29,-1
 1369 671 l 1,30,-1
 1311 671 l 2,31,32
 1161 671 1161 671 1004 641 c 1,33,-1
 1048 846 l 1,34,-1
 1726 845 l 1,35,-1
 1593 222 l 1,36,37
 1269 -20 1269 -20 929 -20 c 0,0,1
EndSplineSet
Validated: 1
EndChar

StartChar: H
Encoding: 72 72 41
Width: 1589
GlyphClass: 2
Flags: W
HStem: 0 21G<130 501 1090 1460> 671 175<650 1263> 1490 20G<450 821 1410 1780>
DStem2: 160.233 0 470.375 0 0.207912 0.978148<75.2411 750.473 929.341 1532.86> 1120.23 0 1429.23 0 0.207912 0.978148<75.0332 686.02 864.889 1532.89>
LayerCount: 2
Fore
SplineSet
130 0 m 1,0,1
 192 150 192 150 224 300 c 2,2,-1
 417 1210 l 2,3,4
 449 1360 449 1360 451 1510 c 1,5,-1
 821 1510 l 1,6,7
 759 1360 759 1360 727 1210 c 2,8,-1
 650 846 l 1,9,-1
 1300 846 l 1,10,-1
 1377 1210 l 2,11,12
 1409 1361 1409 1361 1411 1510 c 1,13,-1
 1780 1510 l 1,14,15
 1718 1360 1718 1360 1686 1210 c 2,16,-1
 1493 300 l 2,17,18
 1461 150 1461 150 1459 0 c 1,19,-1
 1090 0 l 1,20,21
 1152 150 1152 150 1184 300 c 2,22,-1
 1263 671 l 1,23,-1
 613 671 l 1,24,-1
 534 300 l 2,25,26
 502 150 502 150 500 0 c 1,27,-1
 130 0 l 1,0,1
EndSplineSet
Validated: 1
EndChar

StartChar: I
Encoding: 73 73 42
Width: 630
GlyphClass: 2
Flags: W
HStem: 0 21G<130 501> 1490 20G<450 821>
DStem2: 159.807 0 469.807 0 0.207912 0.978148<75.3298 1532.95>
LayerCount: 2
Fore
SplineSet
130 0 m 1,0,1
 192 150 192 150 224 300 c 2,2,-1
 417 1210 l 2,3,4
 449 1360 449 1360 451 1510 c 1,5,-1
 821 1510 l 1,6,7
 759 1360 759 1360 727 1210 c 2,8,-1
 534 300 l 2,9,10
 502 150 502 150 500 0 c 1,11,-1
 130 0 l 1,0,1
EndSplineSet
Validated: 1
EndChar

StartChar: J
Encoding: 74 74 43
Width: 630
GlyphClass: 2
Flags: W
HStem: 1490 20G<450 821>
DStem2: 117.253 -200 427.253 -200 0.207912 0.978148<254.586 1737.42>
LayerCount: 2
Fore
SplineSet
451 1510 m 1,0,-1
 821 1510 l 1,1,2
 759 1360 759 1360 727 1210 c 2,3,-1
 511 194 l 2,4,5
 427 -200 427 -200 -63 -200 c 1,6,-1
 -60 -190 l 1,7,8
 138 -107 138 -107 201 194 c 2,9,-1
 417 1210 l 2,10,11
 449 1360 449 1360 451 1510 c 1,0,-1
EndSplineSet
Validated: 1
EndChar

StartChar: K
Encoding: 75 75 44
Width: 1522
GlyphClass: 2
Flags: W
HStem: 0 21G<130 501.5 999 1517> 1490 20G<450 821 1273 1705>
DStem2: 160.233 0 469.505 0 0.207912 0.978148<75.3077 658.281 989.547 1532.89> 820 790 593 581 0.638299 -0.769789<15.9919 737.31> 662 905 820 790 0.760042 0.649873<45.3513 895.496>
LayerCount: 2
Fore
SplineSet
130 0 m 1,0,1
 192 151 192 151 224 300 c 2,2,-1
 417 1210 l 2,3,4
 449 1361 449 1361 451 1510 c 1,5,-1
 821 1510 l 1,6,7
 759 1360 759 1360 727 1210 c 2,8,-1
 662 905 l 1,9,-1
 1093 1273 l 2,10,11
 1216 1378 1216 1378 1330 1510 c 1,12,-1
 1705 1510 l 1,13,14
 1552 1416 1552 1416 1434 1315 c 2,15,-1
 820 790 l 9,16,-1
 1320 187 l 2,17,18
 1408 81 1408 81 1517 0 c 1,19,-1
 1029 0 l 1,20,21
 969 126 969 126 883 230 c 2,22,-1
 593 581 l 1,23,-1
 534 300 l 2,24,25
 503 152 503 152 500 0 c 1,26,-1
 130 0 l 1,0,1
EndSplineSet
Validated: 1
EndChar

StartChar: L
Encoding: 76 76 45
Width: 1073
GlyphClass: 2
Flags: W
HStem: 0 174<530 1063> 1490 20G<450 836>
DStem2: 159.807 0 484.807 0 0.207912 0.978148<250.051 1532.95>
LayerCount: 2
Fore
SplineSet
130 0 m 1,0,1
 192 150 192 150 224 300 c 2,2,-1
 417 1210 l 2,3,4
 449 1360 449 1360 451 1510 c 1,5,-1
 836 1510 l 1,6,7
 774 1361 774 1361 742 1210 c 2,8,-1
 562 364 l 2,9,10
 541 266 541 266 530 174 c 1,11,-1
 800 174 l 2,12,13
 958 174 958 174 1106 204 c 1,14,-1
 1063 0 l 1,15,-1
 130 0 l 1,0,1
EndSplineSet
Validated: 1
EndChar

StartChar: M
Encoding: 77 77 46
Width: 1960
GlyphClass: 2
Flags: W
HStem: 0 21G<80 386.5 830 1110.5 1529 1880> 1490 20G<528.5 803 1751.5 2068>
VStem: 534 269<1263.42 1510>
DStem2: 474 1209 629 916 0.288406 0.957508<-1181.35 -235.847> 842 1225 629 916 0.247985 -0.968764<246.527 862.955> 1056 389 1240 285 0.564011 0.825767<1.39596 804.987> 1597 301 1887 296 0.122831 0.992428<-150.721 643.118>
LayerCount: 2
Fore
SplineSet
80 0 m 1,0,1
 153 143 153 143 199 296 c 2,2,-1
 474 1209 l 2,3,4
 491 1264 491 1264 505 1332 c 0,5,6
 523 1415 523 1415 534 1510 c 1,7,-1
 803 1510 l 1,8,9
 803 1377 803 1377 842 1225 c 2,10,-1
 1056 389 l 1,11,-1
 1627 1225 l 2,12,13
 1715 1354 1715 1354 1788 1510 c 1,14,-1
 2068 1510 l 1,15,16
 2033 1395 2033 1395 2021 1332 c 0,17,18
 2004 1240 2004 1240 2000 1209 c 2,19,-1
 1887 296 l 2,20,21
 1875 199 1875 199 1875 112 c 0,22,23
 1875 55 1875 55 1880 0 c 1,24,-1
 1529 0 l 1,25,26
 1557 86 1557 86 1575 171 c 0,27,28
 1588 231 1588 231 1597 301 c 2,29,-1
 1678 939 l 1,30,-1
 1240 285 l 2,31,32
 1142 138 1142 138 1079 0 c 1,33,-1
 830 0 l 1,34,35
 830 133 830 133 791 285 c 2,36,-1
 629 916 l 1,37,-1
 443 301 l 2,38,39
 421 229 421 229 409 171 c 0,40,41
 390 82 390 82 383 0 c 1,42,-1
 80 0 l 1,0,1
EndSplineSet
Validated: 1
EndChar

StartChar: N
Encoding: 78 78 47
Width: 1525
GlyphClass: 2
Flags: W
HStem: 0 21G<130 433 1109 1396> 1490 20G<450 750 1422 1716>
VStem: 451 280<1374.56 1510> 1127 268<0 132.5>
DStem2: 159.807 0 401.318 0 0.207912 0.978148<61.1617 1082.78> 833 1252 616 1010 0.477788 -0.878475<108.911 845.487> 1133.17 0 1365.23 0 0.207912 0.978148<523.438 1532.59>
LayerCount: 2
Fore
SplineSet
130 0 m 1,0,1
 193 153 193 153 224 300 c 2,2,-1
 417 1210 l 2,3,4
 449 1361 449 1361 451 1510 c 1,5,-1
 731 1510 l 1,6,7
 769 1368 769 1368 833 1252 c 2,8,-1
 1242 512 l 1,9,-1
 1390 1210 l 2,10,11
 1420 1351 1420 1351 1424 1510 c 1,12,-1
 1716 1510 l 1,13,14
 1654 1360 1654 1360 1622 1210 c 2,15,-1
 1429 300 l 2,16,17
 1397 149 1397 149 1395 0 c 1,18,-1
 1127 0 l 1,19,20
 1091 136 1091 136 1025 258 c 2,21,-1
 616 1010 l 1,22,-1
 466 300 l 2,23,24
 434 149 434 149 432 0 c 1,25,-1
 130 0 l 1,0,1
EndSplineSet
Validated: 1
EndChar

StartChar: O
Encoding: 79 79 48
Width: 1766
GlyphClass: 2
Flags: W
HStem: -20 175<740.693 1107.75> 1355 175<979.095 1347.1>
VStem: 201 345<371.508 846.834> 1539 346<662.649 1139.03>
LayerCount: 2
Fore
SplineSet
879 -20 m 0,0,1
 523 -20 523 -20 343 191 c 0,2,3
 201 357 201 357 201 582 c 0,4,5
 201 664 201 664 220 755 c 0,6,7
 290 1083 290 1083 580 1315 c 0,8,9
 847 1530 847 1530 1208.5 1530 c 128,-1,10
 1570 1530 1570 1530 1746 1315 c 0,11,12
 1885 1146 1885 1146 1885 926 c 0,13,14
 1885 844 1885 844 1866 755 c 0,15,16
 1795 422 1795 422 1505 191 c 0,17,18
 1239 -20 1239 -20 879 -20 c 0,0,1
916 155 m 128,-1,20
 1117 155 1117 155 1291.5 328 c 128,-1,21
 1466 501 1466 501 1520 754 c 0,22,23
 1539 843 1539 843 1539 922 c 0,24,25
 1539 1070 1539 1070 1473 1182 c 0,26,27
 1371 1355 1371 1355 1171 1355 c 128,-1,28
 971 1355 971 1355 794 1182 c 0,29,30
 620 1012 620 1012 565 755 c 0,31,32
 546 666 546 666 546 588 c 0,33,34
 546 440 546 440 613 328 c 0,35,19
 715 155 715 155 916 155 c 128,-1,20
EndSplineSet
Validated: 1
EndChar

StartChar: P
Encoding: 80 80 49
Width: 1211
GlyphClass: 2
Flags: W
HStem: 0 21G<130 505> 584 176<632 881.969> 1336 174<747.841 984.375>
VStem: 1063 321<944.637 1261.32>
DStem2: 160.233 0 470.083 0 0.207912 0.978148<72.0785 661.423 841.478 1429.66>
LayerCount: 2
Fore
SplineSet
632 760 m 1,0,-1
 712 760 l 2,1,2
 843 760 843 760 932 836 c 0,3,4
 1027 916 1027 916 1054 1046 c 0,5,6
 1063 1089 1063 1089 1063 1126 c 0,7,8
 1063 1207 1063 1207 1020 1259 c 0,9,10
 956 1336 956 1336 834 1336 c 2,11,-1
 761 1336 l 1,12,13
 741 1273 741 1273 726 1206 c 2,14,-1
 632 760 l 1,0,-1
130 0 m 1,15,16
 193 152 193 152 224 300 c 2,17,-1
 417 1210 l 2,18,19
 449 1361 449 1361 451 1510 c 1,20,-1
 891 1510 l 2,21,22
 1159 1510 1159 1510 1285 1379 c 0,23,24
 1384 1278 1384 1278 1384 1140 c 0,25,26
 1384 1094 1384 1094 1373 1045 c 0,27,28
 1326 832 1326 832 1144 708 c 0,29,30
 960 584 960 584 694 584 c 2,31,-1
 594 584 l 1,32,-1
 533 296 l 2,33,34
 505 163 505 163 505 26 c 0,35,36
 505 13 505 13 505 0 c 1,37,-1
 130 0 l 1,15,16
EndSplineSet
Validated: 1
EndChar

StartChar: Q
Encoding: 81 81 50
Width: 1766
GlyphClass: 2
Flags: W
HStem: -20 175<740.693 1068.68> 1355 175<979.345 1346.85>
VStem: 201 345<371.508 846.834> 1539 346<661.863 1139.03>
LayerCount: 2
Fore
SplineSet
879 -20 m 0,0,1
 523 -20 523 -20 343 191 c 0,2,3
 201 357 201 357 201 582 c 0,4,5
 201 664 201 664 220 755 c 0,6,7
 290 1083 290 1083 580 1315 c 0,8,9
 847 1530 847 1530 1208.5 1530 c 128,-1,10
 1570 1530 1570 1530 1746 1315 c 0,11,12
 1885 1146 1885 1146 1885 926 c 0,13,14
 1885 844 1885 844 1866 755 c 0,15,16
 1795 422 1795 422 1505 191 c 0,17,18
 1459 155 1459 155 1411 125 c 1,19,-1
 1420 103 l 2,20,21
 1469 -9 1469 -9 1559 -132 c 1,22,-1
 1173 -132 l 1,23,24
 1160 -58 1160 -58 1139 11 c 1,25,26
 1016 -20 1016 -20 879 -20 c 0,0,1
1315 352 m 1,27,28
 1470 516 1470 516 1520 754 c 0,29,30
 1539 843 1539 843 1539 922 c 0,31,32
 1539 1070 1539 1070 1473 1182 c 0,33,34
 1370 1355 1370 1355 1171 1355 c 128,-1,35
 972 1355 972 1355 794 1182 c 0,36,37
 620 1012 620 1012 565 755 c 0,38,39
 546 666 546 666 546 588 c 0,40,41
 546 440 546 440 613 328 c 0,42,43
 715 155 715 155 916 155 c 0,44,45
 996 155 996 155 1071 182 c 1,46,-1
 1023 287 l 2,47,48
 964 417 964 417 884 522 c 1,49,-1
 1270 522 l 1,50,51
 1285 442 1285 442 1315 352 c 1,27,28
EndSplineSet
Validated: 1
EndChar

StartChar: R
Encoding: 82 82 51
Width: 1364
GlyphClass: 2
Flags: W
HStem: 0 21G<130 505 942 1359> 584 176<632 729> 1336 174<747.841 984.375>
VStem: 1063 321<945.211 1261.25>
DStem2: 160.233 0 470.083 0 0.207912 0.978148<76.6277 661.423 841.478 1429.66> 1032 647 729 584 0.415133 -0.909761<-0.556102 552.108>
LayerCount: 2
Fore
SplineSet
130 0 m 1,0,1
 193 152 193 152 224 300 c 2,2,-1
 417 1210 l 2,3,4
 449 1361 449 1361 451 1510 c 1,5,-1
 891 1510 l 2,6,7
 1157 1510 1157 1510 1285 1379 c 0,8,9
 1384 1278 1384 1278 1384 1140 c 0,10,11
 1384 1094 1384 1094 1373 1045 c 0,12,13
 1328 834 1328 834 1145 709 c 0,14,15
 1092 673 1092 673 1032 647 c 1,16,-1
 1220 235 l 2,17,18
 1280 104 1280 104 1359 0 c 1,19,-1
 955 0 l 1,20,21
 929 148 929 148 874 268 c 2,22,-1
 729 584 l 1,23,-1
 594 584 l 1,24,-1
 533 296 l 2,25,26
 505 162 505 162 505 0 c 1,27,-1
 130 0 l 1,0,1
632 760 m 1,28,-1
 712 760 l 2,29,30
 842 760 842 760 932 836 c 0,31,32
 1027 916 1027 916 1054 1046 c 0,33,34
 1063 1089 1063 1089 1063 1126 c 0,35,36
 1063 1207 1063 1207 1020 1259 c 0,37,38
 956 1336 956 1336 834 1336 c 2,39,-1
 761 1336 l 1,40,41
 741 1273 741 1273 726 1206 c 2,42,-1
 632 760 l 1,28,-1
EndSplineSet
Validated: 1
EndChar

StartChar: S
Encoding: 83 83 52
Width: 1110
GlyphClass: 2
Flags: W
HStem: -20 177<335.111 671.531> 1356 174<771.408 1048.78>
VStem: 387 314<1052.74 1286.77> 840 331<325.88 601.237>
DStem2: 805 996 571 793 0.793014 -0.609203<-157.351 292.115>
LayerCount: 2
Fore
SplineSet
461 -20 m 0,0,1
 245 -20 245 -20 62 105 c 1,2,-1
 139 468 l 1,3,-1
 149 468 l 1,4,5
 176 372 176 372 225 303 c 0,6,7
 328 157 328 157 510 157 c 0,8,9
 633 157 633 157 725 240 c 0,10,11
 817 322 817 322 836 429 c 0,12,13
 840 452 840 452 840 475 c 0,14,15
 840 586 840 586 722 677 c 2,16,-1
 571 793 l 2,17,18
 387 934 387 934 387 1114 c 0,19,20
 387 1161 387 1161 401 1211 c 0,21,22
 445 1370 445 1370 619 1463 c 0,23,24
 746 1530 746 1530 919 1530 c 0,25,26
 1084 1530 1084 1530 1229 1459 c 1,27,-1
 1166 1160 l 1,28,-1
 1156 1160 l 1,29,30
 1081 1356 1081 1356 905 1356 c 0,31,32
 843 1356 843 1356 791 1325 c 0,33,34
 716 1280 716 1280 704 1206 c 0,35,36
 701 1187 701 1187 701 1170 c 0,37,38
 701 1075 701 1075 805 996 c 2,39,-1
 945 890 l 2,40,41
 1171 719 1171 719 1171 510 c 0,42,43
 1171 462 1171 462 1158 412 c 0,44,45
 1116 245 1116 245 951 123 c 0,46,47
 758 -20 758 -20 461 -20 c 0,0,1
EndSplineSet
Validated: 1
EndChar

StartChar: T
Encoding: 84 84 53
Width: 1200
GlyphClass: 2
Flags: W
HStem: 0 21G<415 786> 1306 204<331 717.047 1050.95 1471.02> 1336 174<331 719 1033.63 1463.59>
DStem2: 444.807 0 754.807 0 0.207912 0.978148<75.3298 1361.9>
LayerCount: 2
Fore
SplineSet
415 0 m 1,0,1
 477 150 477 150 509 300 c 2,2,-1
 702 1210 l 2,3,4
 716 1274 716 1274 719 1336 c 1,5,-1
 594 1336 l 2,6,7
 448 1336 448 1336 288 1306 c 1,8,-1
 331 1510 l 1,9,-1
 1511 1510 l 1,10,-1
 1468 1306 l 1,11,12
 1327 1336 1327 1336 1174 1336 c 2,13,-1
 1049 1336 l 1,14,15
 1026 1274 1026 1274 1012 1210 c 2,16,-1
 819 300 l 2,17,18
 787 150 787 150 785 0 c 1,19,-1
 415 0 l 1,0,1
EndSplineSet
Validated: 1
EndChar

StartChar: U
Encoding: 85 85 54
Width: 1600
GlyphClass: 2
Flags: W
HStem: -20 201<694.77 961.237> 0 21G<1094 1471> 1490 20G<450 831 1421 1791>
VStem: 273 321<285.281 739.031>
DStem2: 155.8 -20 475.524 -20 0.207912 0.978148<558.274 1553.28> 1125.52 -20 1435.98 -20 0.207912 0.978148<389.486 1553.59>
LayerCount: 2
Fore
SplineSet
1470 0 m 1,0,-1
 1094 0 l 1,1,2
 1149 99 1149 99 1165 157 c 1,3,4
 983 -20 983 -20 711 -20 c 0,5,6
 463 -20 463 -20 341 171 c 0,7,8
 273 276 273 276 273 436 c 0,9,10
 273 533 273 533 298 649 c 2,11,-1
 417 1208 l 2,12,13
 449 1358 449 1358 451 1510 c 1,14,-1
 831 1510 l 1,15,16
 771 1369 771 1369 737 1210 c 2,17,-1
 619 655 l 2,18,19
 594 538 594 538 594 455 c 0,20,21
 594 377 594 377 616 327 c 0,22,23
 680 181 680 181 841 181 c 0,24,25
 997 181 997 181 1118 312 c 0,26,27
 1219 422 1219 422 1269 655 c 2,28,-1
 1388 1212 l 2,29,30
 1421 1366 1421 1366 1421 1510 c 1,31,-1
 1791 1510 l 1,32,33
 1728 1357 1728 1357 1697 1210 c 2,34,-1
 1504 300 l 2,35,36
 1472 149 1472 149 1470 0 c 1,0,-1
EndSplineSet
Validated: 1
EndChar

StartChar: V
Encoding: 86 86 55
Width: 1710
GlyphClass: 2
Flags: W
HStem: 0 21G<700 1038> 1490 20G<326 711 1656 2026>
DStem2: 747 1225 425 1251 0.241117 -0.970496<-281.343 877.979> 959 373 1167 285 0.558263 0.829664<0.0291478 1348.23>
LayerCount: 2
Fore
SplineSet
704 0 m 1,0,1
 696 160 696 160 665 285 c 2,2,-1
 425 1251 l 2,3,4
 395 1372 395 1372 326 1510 c 1,5,-1
 708 1510 l 1,6,7
 714 1358 714 1358 747 1225 c 2,8,-1
 959 373 l 1,9,-1
 1533 1225 l 2,10,11
 1618 1352 1618 1352 1694 1510 c 1,12,-1
 2026 1510 l 1,13,14
 1906 1383 1906 1383 1817 1251 c 2,15,-1
 1167 285 l 2,16,17
 1070 141 1070 141 1006 0 c 1,18,-1
 704 0 l 1,0,1
EndSplineSet
Validated: 1
EndChar

StartChar: W
Encoding: 87 87 56
Width: 2001
GlyphClass: 2
Flags: W
HStem: 0 21G<449 778 1246 1574> 1490 20G<331 685 1196.5 1456 1973.5 2312>
DStem2: 676 1213 383 1230 0.0801274 -0.996785<-104.175 727.477> 736 488 873 297 0.450658 0.892697<0 620.196> 1447 1213 1201 948 0.0827088 -0.996574<243.746 737.527> 1508 478 1669 297 0.450655 0.892698<0 1136.85>
LayerCount: 2
Fore
SplineSet
449 0 m 1,0,1
 462 95 462 95 462 189 c 0,2,3
 462 247 462 247 458 297 c 2,4,-1
 383 1230 l 2,5,6
 370 1387 370 1387 331 1510 c 1,7,-1
 685 1510 l 1,8,9
 672 1413 672 1413 672 1319 c 0,10,11
 672 1261 672 1261 676 1213 c 2,12,-1
 736 488 l 1,13,-1
 1102 1213 l 2,14,15
 1174 1356 1174 1356 1219 1510 c 1,16,-1
 1456 1510 l 1,17,18
 1443 1413 1443 1413 1443 1319 c 0,19,20
 1443 1261 1443 1261 1447 1213 c 2,21,-1
 1508 478 l 1,22,-1
 1881 1213 l 2,23,24
 1949 1347 1949 1347 1998 1510 c 1,25,-1
 2312 1510 l 1,26,27
 2218 1384 2218 1384 2140 1230 c 2,28,-1
 1669 297 l 2,29,30
 1596 152 1596 152 1552 0 c 1,31,-1
 1246 0 l 1,32,33
 1259 97 1259 97 1259 191 c 0,34,35
 1259 249 1259 249 1255 297 c 2,36,-1
 1201 948 l 1,37,-1
 873 297 l 2,38,39
 800 152 800 152 756 0 c 1,40,-1
 449 0 l 1,0,1
EndSplineSet
Validated: 1
EndChar

StartChar: X
Encoding: 88 88 57
Width: 1467
GlyphClass: 2
Flags: W
HStem: 0 21G<10 421.5 1035 1457> 1490 20G<331 761 1361 1778>
DStem2: 951 969 470 1275 0.440425 -0.897789<-542.22 0 336.722 907.263> 747 731 839 539 0.684596 0.728923<-779.256 -76.9703 468.057 988.956>
LayerCount: 2
Fore
SplineSet
10 0 m 1,0,1
 148 119 148 119 256 229 c 2,2,-1
 747 731 l 1,3,-1
 470 1275 l 2,4,5
 411 1391 411 1391 331 1510 c 1,6,-1
 745 1510 l 1,7,8
 777 1349 777 1349 826 1242 c 2,9,-1
 951 969 l 1,10,-1
 1207 1247 l 2,11,12
 1312 1361 1312 1361 1410 1510 c 1,13,-1
 1778 1510 l 1,14,15
 1646 1398 1646 1398 1532 1281 c 2,16,-1
 1043 779 l 1,17,-1
 1318 235 l 2,18,19
 1377 119 1377 119 1457 0 c 1,20,-1
 1045 0 l 1,21,22
 1025 136 1025 136 964 268 c 2,23,-1
 839 539 l 1,24,-1
 583 263 l 2,25,26
 463 134 463 134 380 0 c 1,27,-1
 10 0 l 1,0,1
EndSplineSet
Validated: 1
EndChar

StartChar: Y
Encoding: 89 89 58
Width: 1453
GlyphClass: 2
Flags: W
HStem: 0 21G<535 916> 1490 20G<326 721.5 1396 1769>
DStem2: 785 1237 455 1268 0.361947 -0.932199<-276.283 419.144> 564.601 0 885.302 0 0.207912 0.978148<77.4515 651.231> 936 846 1019 629 0.630455 0.776225<0 825.146>
LayerCount: 2
Fore
SplineSet
535 0 m 1,0,1
 598 152 598 152 629 300 c 2,2,-1
 700 637 l 25,3,-1
 455 1268 l 2,4,5
 404 1400 404 1400 326 1510 c 1,6,-1
 714 1510 l 1,7,8
 729 1382 729 1382 785 1237 c 2,9,-1
 936 846 l 1,10,-1
 1248 1237 l 2,11,12
 1357 1373 1357 1373 1435 1510 c 1,13,-1
 1769 1510 l 1,14,15
 1650 1406 1650 1406 1538 1268 c 2,16,-1
 1019 629 l 25,17,-1
 949 300 l 2,18,19
 917 150 917 150 915 0 c 1,20,-1
 535 0 l 1,0,1
EndSplineSet
Validated: 1
EndChar

StartChar: Z
Encoding: 90 90 59
Width: 1383
GlyphClass: 2
Flags: W
HStem: 0 174<490 1349> 1336 174<460 1215>
DStem2: 306 399 490 174 0.696301 0.71775<-29.4994 1304.02>
LayerCount: 2
Fore
SplineSet
74 0 m 1,0,-1
 57 174 l 1,1,2
 197 287 197 287 306 399 c 2,3,-1
 1215 1336 l 1,4,-1
 723 1336 l 2,5,6
 582 1336 582 1336 417 1306 c 1,7,-1
 460 1510 l 1,8,-1
 1630 1510 l 1,9,-1
 1647 1336 l 1,10,11
 1520 1236 1520 1236 1398 1111 c 2,12,-1
 490 174 l 1,13,-1
 1086 174 l 2,14,15
 1246 174 1246 174 1392 204 c 1,16,-1
 1349 0 l 1,17,-1
 74 0 l 1,0,-1
EndSplineSet
Validated: 1
EndChar

StartChar: bracketleft
Encoding: 91 91 60
Width: 843
GlyphClass: 2
Flags: W
HStem: -250 174<472 780> 1556 204<827.672 1167.02> 1586 174<811.484 1159.5>
DStem2: 107.233 -250 427.233 -250 0.207912 0.978148<247.809 1943.61>
LayerCount: 2
Fore
SplineSet
504 1760 m 1,0,-1
 1207 1760 l 1,1,-1
 1164 1556 l 1,2,3
 1020 1586 1020 1586 870 1586 c 2,4,-1
 827 1586 l 1,5,6
 805 1528 805 1528 790 1460 c 2,7,-1
 491 50 l 2,8,9
 476 -19 476 -19 472 -76 c 1,10,-1
 517 -76 l 2,11,12
 675 -76 675 -76 823 -46 c 1,13,-1
 780 -250 l 1,14,-1
 77 -250 l 1,15,16
 138 -104 138 -104 171 50 c 2,17,-1
 470 1460 l 2,18,19
 503 1614 503 1614 504 1760 c 1,0,-1
EndSplineSet
Validated: 1
EndChar

StartChar: backslash
Encoding: 92 92 61
Width: 1219
GlyphClass: 2
Flags: W
DStem2: 744 1405 468 1431 0.240123 -0.970742<-281.733 1555.8>
LayerCount: 2
Fore
SplineSet
1171 -180 m 1,0,1
 836 -180 l 1,2,3
 827 -20 827 -20 796 105 c 2,4,-1
 468 1431 l 2,5,6
 435 1563 435 1563 369 1690 c 1,7,-1
 704 1690 l 1,8,9
 710 1542 710 1542 744 1405 c 2,10,-1
 1072 79 l 18,11,12
 1102 -42 1102 -42 1171 -180 c 1,0,1
EndSplineSet
Validated: 1
EndChar

StartChar: bracketright
Encoding: 93 93 62
Width: 843
GlyphClass: 2
Flags: W
HStem: -250 204<-3.0218 338.297> -250 174<4.25537 353.297> 1586 174<384 690>
DStem2: 310.233 -250 630.233 -250 0.207912 0.978148<178.054 1873.04>
LayerCount: 2
Fore
SplineSet
1087 1760 m 1,0,1
 1026 1614 1026 1614 993 1460 c 2,2,-1
 694 50 l 2,3,4
 661 -104 661 -104 660 -250 c 1,5,-1
 -43 -250 l 1,6,-1
 0 -46 l 1,7,8
 136 -76 136 -76 294 -76 c 2,9,-1
 339 -76 l 1,10,11
 359 -19 359 -19 374 50 c 2,12,-1
 673 1460 l 2,13,14
 687 1528 687 1528 690 1586 c 1,15,-1
 647 1586 l 2,16,17
 497 1586 497 1586 341 1556 c 1,18,-1
 384 1760 l 1,19,-1
 1087 1760 l 1,0,1
EndSplineSet
Validated: 1
EndChar

StartChar: asciicircum
Encoding: 94 94 63
Width: 1093
GlyphClass: 2
Flags: W
HStem: 1150 380<333.322 357.465 559.271 703.354>
LayerCount: 2
Fore
SplineSet
699 1530 m 1,0,-1
 1044 1530 l 1,1,2
 1060 1302 1060 1302 1230 1160 c 1,3,-1
 1227 1150 l 1,4,-1
 931 1150 l 1,5,6
 864 1244 864 1244 851 1389 c 1,7,8
 799 1261 799 1261 650 1150 c 1,9,-1
 354 1150 l 1,10,-1
 357 1160 l 1,11,12
 595 1311 595 1311 699 1530 c 1,0,-1
EndSplineSet
Validated: 1
EndChar

StartChar: underscore
Encoding: 95 95 64
Width: 1173
GlyphClass: 2
Flags: W
HStem: -274 234<97.998 1008> -244 174<105.501 1000.47>
LayerCount: 2
Fore
SplineSet
101 -40 m 1,0,1
 245 -70 245 -70 395 -70 c 2,2,-1
 748 -70 l 2,3,4
 896 -70 896 -70 1054 -40 c 1,5,-1
 1005 -274 l 1,6,7
 860 -244 860 -244 711 -244 c 2,8,-1
 358 -244 l 2,9,10
 208 -244 208 -244 52 -274 c 1,11,-1
 101 -40 l 1,0,1
EndSplineSet
Validated: 1
EndChar

StartChar: grave
Encoding: 96 96 65
Width: 493
GlyphClass: 2
Flags: W
HStem: 1180 350<485.33 632>
VStem: 345 381
LayerCount: 2
Fore
SplineSet
345 1530 m 1,0,-1
 641 1530 l 1,1,2
 632 1486 632 1486 632 1444 c 0,3,4
 632 1309 632 1309 726 1190 c 1,5,-1
 724 1180 l 1,6,-1
 527 1180 l 1,7,8
 386 1314 386 1314 343 1520 c 1,9,-1
 345 1530 l 1,0,-1
EndSplineSet
Validated: 1
EndChar

StartChar: a
Encoding: 97 97 66
Width: 1388
GlyphClass: 2
Flags: W
HStem: -20 153<593.817 865.673> 0 21G<905 1258> 967 153<753 1033.19>
VStem: 161 331<244.344 649.32>
DStem2: 928.81 -20 1223.26 -20 0.207912 0.978148<253.441 810.008>
LayerCount: 2
Fore
SplineSet
1256 0 m 1,0,-1
 905 0 l 1,1,2
 923 28 923 28 934 61 c 1,3,4
 810 -20 810 -20 632 -20 c 0,5,6
 390 -20 390 -20 257 136 c 0,7,8
 161 249 161 249 161 411 c 0,9,10
 161 476 161 476 177 550 c 0,11,12
 231 806 231 806 433 964 c 0,13,14
 632 1120 632 1120 874 1120 c 0,15,16
 1029 1120 1029 1120 1133 1044 c 1,17,18
 1134 1062 1134 1062 1135 1081 c 1,19,-1
 1500 1151 l 1,20,21
 1441 999 1441 999 1411 859 c 2,22,-1
 1290 294 l 2,23,24
 1260 150 1260 150 1256 0 c 1,0,-1
732 133 m 0,25,26
 847 133 847 133 932 230 c 0,27,28
 998 304 998 304 1019 404 c 2,29,-1
 1081 696 l 2,30,31
 1090 738 1090 738 1090 775 c 0,32,33
 1090 831 1090 831 1069 874 c 0,34,35
 1024 967 1024 967 910 967 c 0,36,37
 776 967 776 967 662 852 c 0,38,39
 546 735 546 735 507 550 c 0,40,41
 492 480 492 480 492 420 c 0,42,43
 492 320 492 320 534 248 c 0,44,45
 600 133 600 133 732 133 c 0,25,26
EndSplineSet
Validated: 1
EndChar

StartChar: b
Encoding: 98 98 67
Width: 1388
GlyphClass: 2
Flags: W
HStem: -20 153<591.426 868.434> 0 21G<132 483> 967 153<749.704 1028.42> 1541 20G<709.714 786.5>
VStem: 1129 331<450.276 855.998>
DStem2: 155.257 -20 450.81 -20 0.207912 0.978148<422.938 977.928 1141.96 1534.73>
LayerCount: 2
Fore
SplineSet
132 0 m 1,0,1
 192 150 192 150 222 294 c 2,2,-1
 414 1195 l 2,3,4
 447 1350 447 1350 449 1491 c 1,5,-1
 814 1561 l 1,6,7
 759 1430 759 1430 725 1269 c 2,8,-1
 675 1037 l 1,9,10
 809 1120 809 1120 990 1120 c 0,11,12
 1232 1120 1232 1120 1365 964 c 0,13,14
 1460 852 1460 852 1460 690 c 0,15,16
 1460 624 1460 624 1444 550 c 0,17,18
 1390 294 1390 294 1189 136 c 0,19,20
 990 -20 990 -20 748 -20 c 0,21,22
 570 -20 570 -20 480 61 c 1,23,24
 480 28 480 28 483 0 c 1,25,-1
 132 0 l 1,0,1
712 133 m 0,26,27
 844 133 844 133 959.5 248 c 128,-1,28
 1075 363 1075 363 1115 550 c 0,29,30
 1129 619 1129 619 1129 678 c 0,31,32
 1129 778 1129 778 1088 852 c 0,33,34
 1023 967 1023 967 890 967 c 0,35,36
 776 967 776 967 691 874 c 0,37,38
 626 802 626 802 603 696 c 2,39,-1
 541 404 l 2,40,41
 533 366 533 366 533 331 c 0,42,43
 533 275 533 275 554 230 c 0,44,45
 599 133 599 133 712 133 c 0,26,27
EndSplineSet
Validated: 1
EndChar

StartChar: c
Encoding: 99 99 68
Width: 1238
GlyphClass: 2
Flags: W
HStem: -20 154<612.9 989.362> 966 154<773.885 1145.24>
VStem: 166 334<247.202 649.884>
LayerCount: 2
Fore
SplineSet
730 -20 m 0,0,1
 449 -20 449 -20 283 146 c 0,2,3
 166 262 166 262 166 442 c 0,4,5
 166 499 166 499 177 550 c 0,6,7
 230 800 230 800 444 960 c 0,8,9
 659 1120 659 1120 972 1120 c 0,10,11
 1218 1120 1218 1120 1376 1001 c 1,12,-1
 1312 701 l 1,13,-1
 1302 701 l 1,14,15
 1222 966 1222 966 970 966 c 0,16,17
 793 966 793 966 672 852 c 0,18,19
 556 743 556 743 515 550 c 0,20,21
 500 479 500 479 500 419 c 0,22,23
 500 317 500 317 544 248 c 0,24,25
 617 134 617 134 793 134 c 0,26,27
 976 134 976 134 1119 265 c 0,28,29
 1203 342 1203 342 1253 399 c 1,30,-1
 1263 399 l 1,31,-1
 1208 141 l 1,32,33
 1006 -20 1006 -20 730 -20 c 0,0,1
EndSplineSet
Validated: 1
EndChar

StartChar: d
Encoding: 100 100 69
Width: 1388
GlyphClass: 2
Flags: W
HStem: -20 153<593.817 865.673> 0 21G<905 1258> 967 153<753 1034.19> 1541 20G<1482.71 1559.5>
VStem: 161 331<244.344 649.32>
DStem2: 928.81 -20 1223.26 -20 0.207912 0.978148<253.441 810.008 1080.51 1534.61>
LayerCount: 2
Fore
SplineSet
1256 0 m 1,0,1
 905 0 l 1,2,3
 923 28 923 28 934 61 c 1,4,5
 810 -20 810 -20 632 -20 c 0,6,7
 390 -20 390 -20 257 136 c 0,8,9
 161 249 161 249 161 411 c 0,10,11
 161 476 161 476 177 550 c 0,12,13
 231 806 231 806 433 964 c 0,14,15
 632 1120 632 1120 874 1120 c 0,16,17
 1055 1120 1055 1120 1153 1037 c 1,18,-1
 1187 1195 l 2,19,20
 1220 1350 1220 1350 1222 1491 c 1,21,-1
 1587 1561 l 1,22,23
 1532 1430 1532 1430 1498 1269 c 2,24,-1
 1290 294 l 2,25,26
 1260 150 1260 150 1256 0 c 1,0,1
732 133 m 0,27,28
 847 133 847 133 932 230 c 0,29,30
 998 304 998 304 1019 404 c 2,31,-1
 1081 696 l 2,32,33
 1090 738 1090 738 1090 775 c 0,34,35
 1090 831 1090 831 1069 874 c 0,36,37
 1024 967 1024 967 910 967 c 0,38,39
 776 967 776 967 662 852 c 0,40,41
 546 735 546 735 507 550 c 0,42,43
 492 480 492 480 492 420 c 0,44,45
 492 320 492 320 534 248 c 0,46,47
 600 133 600 133 732 133 c 0,27,28
EndSplineSet
Validated: 1
EndChar

StartChar: e
Encoding: 101 101 70
Width: 1318
GlyphClass: 2
Flags: W
HStem: -20 154<604.006 980.433> 473 156<533 1054.69> 967 153<732.641 998.421>
VStem: 166 330<252.775 471.779> 1059 330<630.128 889.63>
LayerCount: 2
Fore
SplineSet
725 -20 m 0,0,1
 434 -20 434 -20 283 147 c 0,2,3
 166 277 166 277 166 441 c 0,4,5
 166 500 166 500 177 551 c 0,6,7
 232 806 232 806 439 965 c 0,8,9
 639 1120 639 1120 912 1120 c 0,10,11
 1196 1120 1196 1120 1327 920 c 0,12,13
 1389 824 1389 824 1389 691 c 0,14,15
 1389 614 1389 614 1370 526 c 1,16,-1
 1309 473 l 1,17,-1
 500 473 l 1,18,19
 496 437 496 437 496 405 c 0,20,21
 496 307 496 307 535 246 c 0,22,23
 607 134 607 134 783 134 c 0,24,25
 965 134 965 134 1109 265 c 0,26,27
 1190 338 1190 338 1243 399 c 1,28,-1
 1253 399 l 1,29,-1
 1198 141 l 1,30,31
 984 -20 984 -20 725 -20 c 0,0,1
533 629 m 1,32,-1
 1049 629 l 1,33,34
 1059 696 1059 696 1059 747 c 0,35,36
 1059 808 1059 808 1045 846 c 0,37,38
 1003 967 1003 967 880 967 c 0,39,40
 755 967 755 967 652 853 c 0,41,42
 572 763 572 763 533 629 c 1,32,-1
EndSplineSet
Validated: 1
EndChar

StartChar: f
Encoding: 102 102 71
Width: 920
GlyphClass: 2
Flags: W
HStem: 0 21G<172 525> 754 158<251.094 360 689 934.657> 1395 135<862.569 1110.33>
VStem: 1155 10<1246 1268.37>
DStem2: 199.732 0 494.732 0 0.207912 0.978148<71.8522 770.845 993.795 1359.77>
LayerCount: 2
Fore
SplineSet
172 0 m 1,0,1
 232 150 232 150 262 294 c 2,2,-1
 360 754 l 1,3,-1
 350 754 l 2,4,5
 283 754 283 754 205 728 c 1,6,-1
 249 938 l 1,7,8
 316 912 316 912 384 912 c 2,9,-1
 394 912 l 1,10,-1
 426 1064 l 2,11,12
 478 1310 478 1310 610 1414 c 0,13,14
 755 1530 755 1530 998 1530 c 0,15,16
 1131 1530 1131 1530 1221 1511 c 1,17,-1
 1165 1246 l 1,18,-1
 1155 1246 l 1,19,20
 1132 1395 1132 1395 996 1395 c 0,21,22
 912 1395 912 1395 846 1338 c 0,23,24
 764 1267 764 1267 728 1095 c 2,25,-1
 689 912 l 1,26,-1
 699 912 l 2,27,28
 835 912 835 912 985 940 c 1,29,-1
 939 726 l 1,30,31
 800 754 800 754 665 754 c 2,32,-1
 655 754 l 1,33,-1
 557 294 l 2,34,35
 527 151 527 151 523 0 c 1,36,-1
 172 0 l 1,0,1
EndSplineSet
Validated: 1
EndChar

StartChar: g
Encoding: 103 103 72
Width: 1387
GlyphClass: 2
Flags: W
HStem: -429 153<366.698 734.595> -20 153<593.817 832.388> 967 153<753 1033.19>
VStem: 161 331<244.344 649.32>
DStem2: 835.495 -429 1137.02 -429 0.207912 0.978148<380.699 545.93 661.168 1229.47>
LayerCount: 2
Fore
SplineSet
632 -20 m 0,0,1
 390 -20 390 -20 257 136 c 0,2,3
 161 249 161 249 161 411 c 0,4,5
 161 476 161 476 177 550 c 0,6,7
 231 806 231 806 433 964 c 0,8,9
 632 1120 632 1120 874 1120 c 0,10,11
 1029 1120 1029 1120 1133 1044 c 1,12,13
 1134 1062 1134 1062 1135 1081 c 1,14,-1
 1500 1151 l 1,15,16
 1441 999 1441 999 1411 859 c 2,17,-1
 1262 159 l 2,18,19
 1208 -94 1208 -94 1054 -240 c 0,20,21
 855 -429 855 -429 595 -429 c 0,22,23
 338 -429 338 -429 171 -342 c 1,24,-1
 234 -48 l 1,25,-1
 244 -48 l 1,26,27
 263 -142 263 -142 322 -199 c 0,28,29
 402 -276 402 -276 550 -276 c 0,30,31
 705 -276 705 -276 812 -176 c 0,32,33
 905 -88 905 -88 949 105 c 1,34,35
 814 -20 814 -20 632 -20 c 0,0,1
732 133 m 0,36,37
 847 133 847 133 932 230 c 0,38,39
 998 304 998 304 1019 404 c 2,40,-1
 1081 696 l 2,41,42
 1090 738 1090 738 1090 775 c 0,43,44
 1090 831 1090 831 1069 874 c 0,45,46
 1024 967 1024 967 910 967 c 0,47,48
 776 967 776 967 662 852 c 0,49,50
 546 735 546 735 507 550 c 0,51,52
 492 480 492 480 492 420 c 0,53,54
 492 320 492 320 534 248 c 0,55,56
 600 133 600 133 732 133 c 0,36,37
EndSplineSet
Validated: 1
EndChar

StartChar: h
Encoding: 104 104 73
Width: 1381
GlyphClass: 2
Flags: W
HStem: 0 21G<132 484.5 893 1250.5> 955 165<807.05 1139.5> 1541 20G<709.714 784.5>
VStem: 1071 302<505.062 897.59>
DStem2: 159.995 0 454.782 0 0.207912 0.978148<71.7611 934.777 1072.38 1513.74> 920.508 0 1220.51 0 0.207912 0.978148<72.9018 772.017>
LayerCount: 2
Fore
SplineSet
132 0 m 1,0,1
 190 143 190 143 222 294 c 2,2,-1
 414 1195 l 2,3,4
 444 1336 444 1336 449 1491 c 1,5,-1
 814 1561 l 1,6,7
 755 1409 755 1409 725 1269 c 2,8,-1
 665 989 l 1,9,10
 820 1120 820 1120 1040 1120 c 0,11,12
 1239 1120 1239 1120 1329 966 c 0,13,14
 1373 891 1373 891 1373 773 c 0,15,16
 1373 712 1373 712 1357 638 c 2,17,-1
 1283 294 l 2,18,19
 1252 150 1252 150 1249 0 c 1,20,-1
 893 0 l 1,21,22
 952 148 952 148 983 294 c 2,23,-1
 1056 634 l 2,24,25
 1071 704 1071 704 1071 759 c 0,26,27
 1071 823 1071 823 1050 864 c 0,28,29
 1001 955 1001 955 892 955 c 0,30,31
 782 955 782 955 697 866 c 0,32,33
 623 788 623 788 590 634 c 2,34,-1
 517 294 l 2,35,36
 486 150 486 150 483 0 c 1,37,-1
 132 0 l 1,0,1
EndSplineSet
Validated: 1
EndChar

StartChar: i
Encoding: 105 105 74
Width: 610
GlyphClass: 2
Flags: W
HStem: 0 21G<132 484.5> 1217 370<513.695 692.305>
VStem: 132 657
DStem2: 160.143 0 455.414 0 0.207912 0.978148<71.7303 1094.61>
LayerCount: 2
Fore
SplineSet
642 1587 m 0,0,1
 720 1587 720 1587 760 1533 c 0,2,3
 789 1494 789 1494 789 1443 c 0,4,5
 789 1423 789 1423 785 1402 c 0,6,7
 769 1325 769 1325 704.5 1271 c 128,-1,8
 640 1217 640 1217 564 1217 c 0,9,10
 486 1217 486 1217 446 1271 c 0,11,12
 417 1310 417 1310 417 1361 c 0,13,14
 417 1381 417 1381 421 1402 c 0,15,16
 437 1479 437 1479 501.5 1533 c 128,-1,17
 566 1587 566 1587 642 1587 c 0,0,1
132 0 m 1,18,19
 191 147 191 147 222 294 c 2,20,-1
 327 785 l 2,21,22
 357 927 357 927 362 1081 c 1,23,-1
 727 1151 l 1,24,25
 668 999 668 999 638 859 c 2,26,-1
 517 294 l 2,27,28
 486 150 486 150 483 0 c 1,29,-1
 132 0 l 1,18,19
EndSplineSet
Validated: 1
EndChar

StartChar: j
Encoding: 106 106 75
Width: 610
GlyphClass: 2
Flags: W
HStem: -430 21G<-109 126.5> 1217 370<513.695 692.305>
DStem2: 68.2527 -430 363.253 -430 0.207912 0.978148<244.469 1534.32>
LayerCount: 2
Fore
SplineSet
642 1587 m 0,0,1
 720 1587 720 1587 760 1533 c 0,2,3
 789 1494 789 1494 789 1443 c 0,4,5
 789 1423 789 1423 785 1402 c 0,6,7
 769 1325 769 1325 704.5 1271 c 128,-1,8
 640 1217 640 1217 564 1217 c 0,9,10
 486 1217 486 1217 446 1271 c 0,11,12
 417 1310 417 1310 417 1361 c 0,13,14
 417 1381 417 1381 421 1402 c 0,15,16
 437 1479 437 1479 501.5 1533 c 128,-1,17
 566 1587 566 1587 642 1587 c 0,0,1
-111 -430 m 1,18,-1
 -109 -420 l 1,19,20
 89 -337 89 -337 152 -36 c 2,21,-1
 327 785 l 2,22,23
 357 927 357 927 362 1081 c 1,24,-1
 727 1151 l 1,25,26
 668 999 668 999 638 859 c 2,27,-1
 447 -36 l 2,28,29
 364 -430 364 -430 -111 -430 c 1,18,-1
EndSplineSet
Validated: 1
EndChar

StartChar: k
Encoding: 107 107 76
Width: 1341
GlyphClass: 2
Flags: W
HStem: 0 21G<132 484.5 857 1336> 1080 20G<1003 1417> 1541 20G<709.714 784.5>
DStem2: 159.508 0 453.35 0 0.207912 0.978148<71.6516 521.146 771.042 1513.84> 791 615 549 450 0.640184 -0.768221<0 527.499> 603 694 791 615 0.780669 0.624945<97.3951 600.895>
LayerCount: 2
Fore
SplineSet
132 0 m 1,0,1
 189 141 189 141 222 294 c 2,2,-1
 414 1195 l 2,3,4
 444 1336 444 1336 449 1491 c 1,5,-1
 814 1561 l 1,6,7
 755 1409 755 1409 725 1269 c 2,8,-1
 603 694 l 1,9,-1
 817 867 l 2,10,11
 952 976 952 976 1054 1100 c 1,12,-1
 1417 1100 l 1,13,14
 1277 1004 1277 1004 1172 920 c 2,15,-1
 791 615 l 1,16,-1
 1161 171 l 2,17,18
 1240 76 1240 76 1336 0 c 1,19,-1
 883 0 l 1,20,21
 831 117 831 117 737 228 c 2,22,-1
 549 450 l 1,23,-1
 517 294 l 2,24,25
 486 143 486 143 483 0 c 1,26,-1
 132 0 l 1,0,1
EndSplineSet
Validated: 1
EndChar

StartChar: l
Encoding: 108 108 77
Width: 615
GlyphClass: 2
Flags: W
HStem: 0 21G<132 484.5> 1541 20G<709.714 784.5>
DStem2: 159.995 0 455.266 0 0.207912 0.978148<71.7611 1513.77>
LayerCount: 2
Fore
SplineSet
132 0 m 1,0,1
 191 147 191 147 222 294 c 2,2,-1
 414 1195 l 2,3,4
 444 1337 444 1337 449 1491 c 1,5,-1
 814 1561 l 1,6,7
 755 1409 755 1409 725 1269 c 2,8,-1
 517 294 l 2,9,10
 486 150 486 150 483 0 c 1,11,-1
 132 0 l 1,0,1
EndSplineSet
Validated: 1
EndChar

StartChar: m
Encoding: 109 109 78
Width: 2147
GlyphClass: 2
Flags: W
HStem: 0 21G<132 484.5 893 1250.5 1659 2016.5> 955 165<804.291 1147.5 1539.21 1895.5>
VStem: 1838 301<503.625 901.268>
DStem2: 159.931 0 454.508 0 0.207912 0.978148<71.7745 933.218> 920.508 0 1220.51 0 0.207912 0.978148<72.9018 774.271> 1686.51 0 1986.51 0 0.207912 0.978148<72.9018 775.19>
LayerCount: 2
Fore
SplineSet
132 0 m 1,0,1
 190 145 190 145 222 294 c 2,2,-1
 327 786 l 2,3,4
 356 922 356 922 362 1081 c 1,5,-1
 727 1151 l 1,6,7
 693 1071 693 1071 672 995 c 1,8,9
 821 1120 821 1120 1042 1120 c 0,10,11
 1253 1120 1253 1120 1342 941 c 1,12,13
 1424 1035 1424 1035 1564 1085 c 0,14,15
 1662 1120 1662 1120 1788 1120 c 0,16,17
 2003 1120 2003 1120 2095 966 c 0,18,19
 2139 892 2139 892 2139 773 c 0,20,21
 2139 712 2139 712 2123 638 c 2,22,-1
 2049 294 l 2,23,24
 2018 150 2018 150 2015 0 c 1,25,-1
 1659 0 l 1,26,27
 1718 149 1718 149 1749 294 c 2,28,-1
 1823 638 l 2,29,30
 1838 708 1838 708 1838 762 c 0,31,32
 1838 827 1838 827 1816 868 c 0,33,34
 1767 959 1767 959 1659 959 c 0,35,36
 1549 959 1549 959 1464 870 c 0,37,38
 1390 792 1390 792 1357 638 c 2,39,-1
 1283 294 l 2,40,41
 1252 150 1252 150 1249 0 c 1,42,-1
 893 0 l 1,43,44
 951 143 951 143 983 294 c 2,45,-1
 1056 634 l 2,46,47
 1072 709 1072 709 1072 761 c 0,48,49
 1072 825 1072 825 1050 864 c 0,50,51
 1001 955 1001 955 892 955 c 0,52,53
 782 955 782 955 697 866 c 0,54,55
 623 788 623 788 590 634 c 2,56,-1
 517 294 l 2,57,58
 486 150 486 150 483 0 c 1,59,-1
 132 0 l 1,0,1
EndSplineSet
Validated: 1
EndChar

StartChar: n
Encoding: 110 110 79
Width: 1381
GlyphClass: 2
Flags: W
HStem: 0 21G<132 484.5 893 1250.5> 955 165<804.126 1140>
VStem: 1072 301<505.062 897.349>
DStem2: 159.931 0 454.508 0 0.207912 0.978148<71.7745 933.218> 920.508 0 1220.51 0 0.207912 0.978148<72.9018 774.271>
LayerCount: 2
Fore
SplineSet
132 0 m 1,0,1
 190 145 190 145 222 294 c 2,2,-1
 327 786 l 2,3,4
 356 922 356 922 362 1081 c 1,5,-1
 727 1151 l 1,6,7
 693 1071 693 1071 672 995 c 1,8,9
 821 1120 821 1120 1040 1120 c 0,10,11
 1240 1120 1240 1120 1329 966 c 0,12,13
 1373 890 1373 890 1373 773 c 0,14,15
 1373 712 1373 712 1357 638 c 2,16,-1
 1283 294 l 2,17,18
 1252 150 1252 150 1249 0 c 1,19,-1
 893 0 l 1,20,21
 951 144 951 144 983 294 c 2,22,-1
 1056 634 l 2,23,24
 1072 709 1072 709 1072 761 c 0,25,26
 1072 825 1072 825 1050 864 c 0,27,28
 1001 955 1001 955 892 955 c 0,29,30
 782 955 782 955 697 866 c 0,31,32
 623 788 623 788 590 634 c 2,33,-1
 517 294 l 2,34,35
 486 150 486 150 483 0 c 1,36,-1
 132 0 l 1,0,1
EndSplineSet
Validated: 1
EndChar

StartChar: o
Encoding: 111 111 80
Width: 1368
GlyphClass: 2
Flags: W
HStem: -20 155<582.29 863.925> 965 155<738.187 1018.89>
VStem: 163 327<232.638 648.202> 1112 327<449.693 865.764>
LayerCount: 2
Fore
SplineSet
679 -20 m 128,-1,1
 414 -20 414 -20 268 142 c 0,2,3
 163 259 163 259 163 423 c 0,4,5
 163 483 163 483 177 550 c 0,6,7
 230 800 230 800 444 960 c 0,8,9
 659 1120 659 1120 921 1120 c 0,10,11
 1188 1120 1188 1120 1334 959 c 0,12,13
 1439 842 1439 842 1439 678 c 0,14,15
 1439 617 1439 617 1425 550 c 0,16,17
 1372 301 1372 301 1158 141 c 0,18,0
 944 -20 944 -20 679 -20 c 128,-1,1
712 135 m 0,19,20
 840 135 840 135 950 248 c 0,21,22
 1054 354 1054 354 1095 550 c 0,23,24
 1112 630 1112 630 1112 695 c 0,25,26
 1112 793 1112 793 1074 857 c 0,27,28
 1011 965 1011 965 887.5 965 c 128,-1,29
 764 965 764 965 652 852 c 0,30,31
 549 748 549 748 507 550 c 0,32,33
 490 471 490 471 490 406 c 0,34,35
 490 309 490 309 528 243 c 0,36,37
 591 135 591 135 712 135 c 0,19,20
EndSplineSet
Validated: 1
EndChar

StartChar: p
Encoding: 112 112 81
Width: 1388
GlyphClass: 2
Flags: W
HStem: -410 21G<45 397.5> -20 153<592.108 868.434> 967 153<766.85 1028.42>
VStem: 1129 331<450.276 855.998>
DStem2: 72.5084 -410 367.508 -410 0.207912 0.978148<71.772 553.132 821.62 1373.21>
LayerCount: 2
Fore
SplineSet
712 133 m 0,0,1
 844 133 844 133 959.5 248 c 128,-1,2
 1075 363 1075 363 1115 550 c 0,3,4
 1129 619 1129 619 1129 678 c 0,5,6
 1129 778 1129 778 1088 852 c 0,7,8
 1023 967 1023 967 890 967 c 0,9,10
 776 967 776 967 691 874 c 0,11,12
 626 802 626 802 603 696 c 2,13,-1
 541 404 l 2,14,15
 533 366 533 366 533 331 c 0,16,17
 533 275 533 275 554 230 c 0,18,19
 599 133 599 133 712 133 c 0,0,1
748 -20 m 0,20,21
 569 -20 569 -20 470 71 c 1,22,-1
 430 -116 l 2,23,24
 399 -263 399 -263 396 -410 c 1,25,-1
 45 -410 l 1,26,27
 105 -260 105 -260 135 -116 c 2,28,-1
 327 785 l 2,29,30
 357 927 357 927 362 1081 c 1,31,-1
 727 1151 l 1,32,33
 702 1091 702 1091 685 1037 c 1,34,35
 837 1120 837 1120 990 1120 c 0,36,37
 1232 1120 1232 1120 1365 964 c 0,38,39
 1460 852 1460 852 1460 690 c 0,40,41
 1460 624 1460 624 1444 550 c 0,42,43
 1390 294 1390 294 1189 136 c 0,44,45
 990 -20 990 -20 748 -20 c 0,20,21
EndSplineSet
Validated: 1
EndChar

StartChar: q
Encoding: 113 113 82
Width: 1388
GlyphClass: 2
Flags: W
HStem: -410 21G<818 1170.5> -20 153<593.817 861.985> 967 153<753 1033.19>
VStem: 161 331<244.344 649.32>
DStem2: 845.508 -410 1140.51 -410 0.207912 0.978148<71.8622 491.798 652.105 1208.8>
LayerCount: 2
Fore
SplineSet
732 133 m 0,0,1
 847 133 847 133 932 230 c 0,2,3
 998 304 998 304 1019 404 c 2,4,-1
 1081 696 l 2,5,6
 1090 738 1090 738 1090 775 c 0,7,8
 1090 831 1090 831 1069 874 c 0,9,10
 1024 967 1024 967 910 967 c 0,11,12
 776 967 776 967 662 852 c 0,13,14
 546 735 546 735 507 550 c 0,15,16
 492 480 492 480 492 420 c 0,17,18
 492 320 492 320 534 248 c 0,19,20
 600 133 600 133 732 133 c 0,0,1
632 -20 m 0,21,22
 390 -20 390 -20 257 136 c 0,23,24
 161 249 161 249 161 411 c 0,25,26
 161 476 161 476 177 550 c 0,27,28
 231 806 231 806 433 964 c 0,29,30
 632 1120 632 1120 874 1120 c 0,31,32
 1029 1120 1029 1120 1133 1044 c 1,33,34
 1135 1061 1135 1061 1135 1081 c 1,35,-1
 1500 1151 l 1,36,37
 1441 999 1441 999 1411 859 c 2,38,-1
 1203 -116 l 2,39,40
 1172 -260 1172 -260 1169 -410 c 1,41,-1
 818 -410 l 1,42,43
 877 -263 877 -263 908 -116 c 2,44,-1
 948 71 l 1,45,46
 811 -20 811 -20 632 -20 c 0,21,22
EndSplineSet
Validated: 1
EndChar

StartChar: r
Encoding: 114 114 83
Width: 917
GlyphClass: 2
Flags: W
HStem: 0 21G<132 484.5> 955 165<798.964 1014.67>
VStem: 1069 10<808 825.801>
DStem2: 159.931 0 454.508 0 0.207912 0.978148<71.7745 931.136>
LayerCount: 2
Fore
SplineSet
132 0 m 1,0,1
 191 147 191 147 222 294 c 2,2,-1
 327 786 l 2,3,4
 358 933 358 933 362 1081 c 1,5,-1
 727 1151 l 1,6,7
 693 1071 693 1071 672 995 c 1,8,9
 821 1120 821 1120 1007 1120 c 0,10,11
 1088 1120 1088 1120 1139 1090 c 1,12,-1
 1079 808 l 1,13,-1
 1069 808 l 1,14,15
 1033 955 1033 955 892 955 c 0,16,17
 772 955 772 955 697 866 c 0,18,19
 618 772 618 772 589 634 c 2,20,-1
 517 294 l 2,21,22
 486 150 486 150 483 0 c 1,23,-1
 132 0 l 1,0,1
EndSplineSet
Validated: 1
EndChar

StartChar: s
Encoding: 115 115 84
Width: 913
GlyphClass: 2
Flags: W
HStem: -20 154<260.853 559.497> 976 144<616.118 834.64>
VStem: 300 285<764.181 939.466> 643 305<217.198 433.465>
LayerCount: 2
Fore
SplineSet
420 -20 m 0,0,1
 213 -20 213 -20 59 88 c 1,2,-1
 125 400 l 1,3,-1
 135 400 l 1,4,5
 162 287 162 287 221 216 c 0,6,7
 289 134 289 134 414 134 c 0,8,9
 513 134 513 134 575 190 c 0,10,11
 630 240 630 240 640 299 c 0,12,13
 643 315 643 315 643 330 c 0,14,15
 643 407 643 407 574 457 c 2,16,-1
 452 547 l 2,17,18
 300 659 300 659 300 793 c 0,19,20
 300 819 300 819 306 845 c 0,21,22
 333 970 333 970 457 1052 c 0,23,24
 560 1120 560 1120 702 1120 c 128,-1,25
 844 1120 844 1120 970 1074 c 1,26,-1
 915 816 l 1,27,-1
 905 816 l 1,28,29
 844 976 844 976 730 976 c 0,30,31
 676 976 676 976 643 955 c 0,32,33
 596 925 596 925 587 875 c 0,34,35
 585 865 585 865 585 854 c 0,36,37
 585 793 585 793 656 741 c 2,38,-1
 800 634 l 2,39,40
 948 524 948 524 948 381 c 0,41,42
 948 346 948 346 939 309 c 0,43,44
 903 159 903 159 758 70 c 128,-1,45
 613 -19 613 -19 420 -20 c 0,0,1
EndSplineSet
Validated: 1
EndChar

StartChar: t
Encoding: 116 116 85
Width: 895
GlyphClass: 2
Flags: W
HStem: 0 21G<272 624.5> 885 215<240.933 491.973 824.348 1076.07> 913 159<248.22 494 823 1068.66> 1530 20G<794.913 921>
DStem2: 299.936 0 594.936 0 0.207912 0.978148<71.7734 933.397 1157.33 1527.78>
LayerCount: 2
Fore
SplineSet
272 0 m 1,0,1
 332 149 332 149 362 294 c 2,2,-1
 494 913 l 1,3,-1
 484 913 l 2,4,5
 346 913 346 913 198 885 c 1,6,-1
 244 1100 l 1,7,8
 379 1072 379 1072 518 1072 c 2,9,-1
 528 1072 l 1,10,-1
 557 1208 l 2,11,12
 592 1371 592 1371 592 1504 c 1,13,-1
 951 1550 l 1,14,15
 891 1395 891 1395 863 1259 c 2,16,-1
 823 1072 l 1,17,-1
 833 1072 l 2,18,19
 969 1072 969 1072 1119 1100 c 1,20,-1
 1073 885 l 1,21,22
 934 913 934 913 799 913 c 2,23,-1
 789 913 l 1,24,-1
 657 294 l 2,25,26
 626 150 626 150 623 0 c 1,27,-1
 272 0 l 1,0,1
EndSplineSet
Validated: 1
EndChar

StartChar: u
Encoding: 117 117 86
Width: 1381
GlyphClass: 2
Flags: W
HStem: -20 165<468.5 810.291> 0 21G<898 1251>
VStem: 241 303<202.039 591.016>
DStem2: 155.548 -20 455.698 -20 0.207912 0.978148<434.553 1115.07> 921.892 -20 1216.26 -20 0.207912 0.978148<269.094 1115.02>
LayerCount: 2
Fore
SplineSet
1249 0 m 1,0,-1
 898 0 l 1,1,2
 925 51 925 51 942 105 c 1,3,4
 793 -20 793 -20 573 -20 c 0,5,6
 364 -20 364 -20 273 161 c 0,7,8
 241 225 241 225 241 315 c 0,9,10
 241 382 241 382 258 462 c 2,11,-1
 327 785 l 2,12,13
 357 925 357 925 362 1081 c 1,14,-1
 732 1151 l 1,15,16
 673 999 673 999 643 859 c 2,17,-1
 559 466 l 2,18,19
 544 394 544 394 544 340 c 0,20,21
 544 276 544 276 565 236 c 0,22,23
 614 145 614 145 723 145 c 0,24,25
 833 145 833 145 918 234 c 0,26,27
 992 312 992 312 1025 466 c 2,28,-1
 1093 785 l 2,29,30
 1123 926 1123 926 1128 1081 c 1,31,-1
 1493 1151 l 1,32,33
 1435 1002 1435 1002 1404 859 c 2,34,-1
 1283 294 l 2,35,36
 1253 154 1253 154 1249 0 c 1,0,-1
EndSplineSet
Validated: 1
EndChar

StartChar: v
Encoding: 118 118 87
Width: 1290
GlyphClass: 2
Flags: W
HStem: 0 21G<505.5 819> 1080 20G<239 603 1186 1519>
DStem2: 637 816 330 851 0.236483 -0.971636<-279.889 481.826> 752 347 946 284 0.552663 0.833405<1.16924 881.664>
LayerCount: 2
Fore
SplineSet
506 0 m 1,0,1
 505 132 505 132 468 284 c 2,2,-1
 330 851 l 2,3,4
 304 958 304 958 239 1100 c 1,5,-1
 600 1100 l 1,6,7
 606 943 606 943 637 816 c 2,8,-1
 752 347 l 1,9,-1
 1062 816 l 2,10,11
 1151 951 1151 951 1221 1100 c 1,12,-1
 1519 1100 l 1,13,14
 1401 970 1401 970 1322 851 c 2,15,-1
 946 284 l 2,16,17
 850 140 850 140 788 0 c 1,18,-1
 506 0 l 1,0,1
EndSplineSet
Validated: 1
EndChar

StartChar: w
Encoding: 119 119 88
Width: 1751
GlyphClass: 2
Flags: W
HStem: 0 21G<388 698 1088 1390> 1080 20G<244 583 983.5 1251 1658 1975>
DStem2: 589 809 305 835 0.136576 -0.99063<-167.156 430.92> 647 382 805 291 0.47741 0.878681<0 450.541> 1257 809 1022 691 0.135318 -0.990802<85.115 436.01> 1316 377 1493 291 0.475449 0.879743<3.4917 805.527>
LayerCount: 2
Fore
SplineSet
388 0 m 1,0,1
 392 55 392 55 392 109 c 0,2,3
 392 204 392 204 380 291 c 2,4,-1
 305 835 l 2,5,6
 287 968 287 968 244 1100 c 1,7,-1
 583 1100 l 1,8,9
 578 1039 578 1039 578 979 c 0,10,11
 578 890 578 890 589 809 c 2,12,-1
 647 382 l 1,13,-1
 879 809 l 2,14,15
 958 954 958 954 1009 1100 c 1,16,-1
 1251 1100 l 1,17,18
 1246 1038 1246 1038 1246 979 c 0,19,20
 1246 890 1246 890 1257 809 c 2,21,-1
 1316 377 l 1,22,-1
 1551 809 l 2,23,24
 1634 961 1634 961 1682 1100 c 1,25,-1
 1975 1100 l 1,26,27
 1854 959 1854 959 1787 835 c 2,28,-1
 1493 291 l 2,29,30
 1417 150 1417 150 1363 0 c 1,31,-1
 1088 0 l 1,32,33
 1093 57 1093 57 1093 113 c 0,34,35
 1093 201 1093 201 1080 291 c 2,36,-1
 1022 691 l 1,37,-1
 805 291 l 2,38,39
 721 136 721 136 675 0 c 1,40,-1
 388 0 l 1,0,1
EndSplineSet
Validated: 1
EndChar

StartChar: x
Encoding: 120 120 89
Width: 1143
GlyphClass: 2
Flags: W
HStem: 0 21G<10 397 742 1133> 1080 20G<242 627.5 990 1366>
DStem2: 705 836 377 883 0.426641 -0.904421<-273.152 77.8153 424.632 773.886> 549 519 558 256 0.696752 0.717312<-508.913 -74.1961> 739 766 826 579 0.696819 0.717247<0 436.76>
LayerCount: 2
Fore
SplineSet
10 0 m 1,0,1
 148 106 148 106 244 205 c 2,2,-1
 549 519 l 1,3,-1
 377 883 l 2,4,5
 328 987 328 987 242 1100 c 1,6,-1
 615 1100 l 1,7,8
 640 970 640 970 705 836 c 2,9,-1
 739 766 l 1,10,-1
 814 844 l 2,11,12
 952 988 952 988 1028 1100 c 1,13,-1
 1366 1100 l 1,14,15
 1238 1003 1238 1003 1133 895 c 2,16,-1
 826 579 l 1,17,-1
 997 217 l 2,18,19
 1051 103 1051 103 1133 0 c 1,20,-1
 756 0 l 1,21,22
 728 127 728 127 666 263 c 2,23,-1
 634 333 l 1,24,-1
 558 256 l 2,25,26
 449 145 449 145 345 0 c 1,27,-1
 10 0 l 1,0,1
EndSplineSet
Validated: 1
EndChar

StartChar: y
Encoding: 121 121 90
Width: 1381
GlyphClass: 2
Flags: W
HStem: -429 153<359.831 724.063> -20 165<472.5 811.193>
VStem: 241 303<202.039 591.016>
DStem2: 68.6121 -429 368.762 -429 0.207912 0.978148<852.69 1533.23> 828.495 -429 1130.02 -429 0.207912 0.978148<380.108 545.93 678.838 1534.95>
LayerCount: 2
Fore
SplineSet
581 -20 m 0,0,1
 364 -20 364 -20 273 161 c 0,2,3
 241 225 241 225 241 315 c 0,4,5
 241 381 241 381 258 462 c 2,6,-1
 327 785 l 2,7,8
 357 926 357 926 362 1081 c 1,9,-1
 732 1151 l 1,10,11
 673 999 673 999 643 859 c 2,12,-1
 559 466 l 2,13,14
 544 394 544 394 544 340 c 0,15,16
 544 276 544 276 565 236 c 0,17,18
 614 145 614 145 723 145 c 0,19,20
 833 145 833 145 918 234 c 0,21,22
 992 312 992 312 1025 466 c 2,23,-1
 1093 785 l 2,24,25
 1126 940 1126 940 1128 1081 c 1,26,-1
 1493 1151 l 1,27,28
 1435 1003 1435 1003 1404 859 c 2,29,-1
 1255 159 l 2,30,31
 1201 -94 1201 -94 1047 -240 c 0,32,33
 848 -429 848 -429 589 -429 c 0,34,35
 331 -429 331 -429 164 -342 c 1,36,-1
 227 -48 l 1,37,-1
 237 -48 l 1,38,39
 256 -142 256 -142 315 -199 c 0,40,41
 395 -276 395 -276 543 -276 c 0,42,43
 698 -276 698 -276 805 -176 c 0,44,45
 897 -89 897 -89 942 105 c 1,46,47
 794 -20 794 -20 581 -20 c 0,0,1
EndSplineSet
Validated: 1
EndChar

StartChar: z
Encoding: 122 122 91
Width: 1117
GlyphClass: 2
Flags: W
HStem: 0 154<474 1087> 946 154<377 879>
DStem2: 280 338 474 154 0.701815 0.71236<5.0779 853.502>
LayerCount: 2
Fore
SplineSet
76 0 m 1,0,-1
 53 154 l 1,1,2
 211 268 211 268 280 338 c 2,3,-1
 879 946 l 1,4,-1
 635 946 l 2,5,6
 483 946 483 946 338 918 c 1,7,-1
 377 1100 l 1,8,-1
 1281 1100 l 1,9,-1
 1298 946 l 1,10,11
 1166 856 1166 856 1073 762 c 2,12,-1
 474 154 l 1,13,-1
 829 154 l 2,14,15
 976 154 976 154 1126 182 c 1,16,-1
 1087 0 l 1,17,-1
 76 0 l 1,0,-1
EndSplineSet
Validated: 1
EndChar

StartChar: braceleft
Encoding: 123 123 92
Width: 895
GlyphClass: 2
Flags: W
HStem: -246 10<727.556 733>
VStem: 303 311<-121.738 251.438> 396 314<288.625 672.923>
DStem2: 237.755 -246 552.755 -246 0.207912 0.978148<307.819 800.409 1216.77 1878.76>
LayerCount: 2
Fore
SplineSet
1159 1760 m 1,0,-1
 1157 1750 l 1,1,2
 959 1667 959 1667 904 1406 c 2,3,-1
 832 1066 l 2,4,5
 774 792 774 792 480 757 c 1,6,7
 710 728 710 728 710 536 c 0,8,9
 710 495 710 495 700 448 c 2,10,-1
 628 108 l 2,11,12
 614 42 614 42 614 -13 c 0,13,14
 614 -174 614 -174 735 -236 c 1,15,-1
 733 -246 l 1,16,17
 303 -246 303 -246 303 21 c 0,18,19
 303 61 303 61 313 108 c 2,20,-1
 385 448 l 2,21,22
 396 497 396 497 396 540 c 0,23,24
 396 687 396 687 270 752 c 1,25,-1
 272 762 l 1,26,27
 470 846 470 846 517 1066 c 2,28,-1
 589 1406 l 2,29,30
 664 1760 664 1760 1159 1760 c 1,0,-1
EndSplineSet
Validated: 1
EndChar

StartChar: bar
Encoding: 124 124 93
Width: 700
GlyphClass: 2
Flags: W
DStem2: 171.286 -180 451.286 -180 0.207912 0.978148<69.2006 1900.99>
LayerCount: 2
Fore
SplineSet
142 -180 m 1,0,1
 204 -30 204 -30 236 120 c 2,2,-1
 505 1390 l 2,3,4
 537 1540 537 1540 539 1690 c 1,5,-1
 879 1690 l 1,6,7
 817 1540 817 1540 785 1390 c 2,8,-1
 516 120 l 2,9,10
 484 -30 484 -30 482 -180 c 1,11,-1
 142 -180 l 1,0,1
EndSplineSet
Validated: 1
EndChar

StartChar: braceright
Encoding: 125 125 94
Width: 895
GlyphClass: 2
Flags: W
HStem: 1750 10<484 489.444>
VStem: 507 314<841.077 1225.38> 603 311<1349.32 1633.8>
DStem2: 237.755 -246 552.755 -246 0.207912 0.978148<237.566 899.556 1315.92 1808.51>
LayerCount: 2
Fore
SplineSet
484 1760 m 1,0,1
 914 1760 914 1760 914 1493 c 0,2,3
 914 1453 914 1453 904 1406 c 2,4,-1
 832 1066 l 2,5,6
 821 1017 821 1017 821 974 c 0,7,8
 821 827 821 827 947 762 c 1,9,-1
 945 752 l 1,10,11
 747 668 747 668 700 448 c 2,12,-1
 628 108 l 2,13,14
 553 -246 553 -246 58 -246 c 1,15,-1
 60 -236 l 1,16,17
 258 -153 258 -153 313 108 c 2,18,-1
 385 448 l 2,19,20
 443 722 443 722 737 757 c 1,21,22
 507 786 507 786 507 978 c 0,23,24
 507 1019 507 1019 517 1066 c 2,25,-1
 589 1406 l 2,26,27
 603 1472 603 1472 603 1527 c 0,28,29
 603 1688 603 1688 482 1750 c 1,30,-1
 484 1760 l 1,0,1
EndSplineSet
Validated: 1
EndChar

StartChar: asciitilde
Encoding: 126 126 95
Width: 1126
GlyphClass: 2
Flags: W
HStem: 520 228<852.136 1092.88> 728 228<346.323 587.364>
VStem: 221 10<520 526.449> 1209 10<949.551 956>
DStem2: 738 880 702 596 0.794162 -0.607706<-117.454 261.429>
LayerCount: 2
Fore
SplineSet
299 887 m 1,0,1
 401 956 401 956 531 956 c 0,2,3
 639 956 639 956 738 880 c 2,4,-1
 852 792 l 2,5,6
 910 748 910 748 968 748 c 272,7,8
 1119 748 1119 748 1209 956 c 1,9,-1
 1219 956 l 1,10,-1
 1141 589 l 1,11,12
 1044 520 1044 520 909 520 c 0,13,14
 801 520 801 520 702 596 c 2,15,-1
 587 684 l 2,16,17
 529 728 529 728 472 728 c 272,18,19
 321 728 321 728 231 520 c 1,20,-1
 221 520 l 1,21,-1
 299 887 l 1,0,1
EndSplineSet
Validated: 1
EndChar

StartChar: exclamdown
Encoding: 161 161 97
Width: 744
GlyphClass: 2
Flags: W
HStem: -409 21G<78 492> 750 370<482.695 661.305>
VStem: 363 294<357 651>
DStem2: 118.233 -409 452.233 -409 0.207912 0.978148<82.9287 1087.73>
LayerCount: 2
Fore
SplineSet
611 1120 m 0,0,1
 689 1120 689 1120 729 1066 c 0,2,3
 758 1027 758 1027 758 976 c 0,4,5
 758 956 758 956 754 935 c 0,6,7
 738 858 738 858 673.5 804 c 128,-1,8
 609 750 609 750 533 750 c 0,9,10
 455 750 455 750 415 804 c 0,11,12
 386 843 386 843 386 894 c 0,13,14
 386 914 386 914 390 935 c 0,15,16
 406 1012 406 1012 470.5 1066 c 128,-1,17
 535 1120 535 1120 611 1120 c 0,0,1
492 -409 m 1,18,-1
 78 -409 l 1,19,20
 145 -263 145 -263 182 -109 c 2,21,-1
 363 651 l 1,22,-1
 657 651 l 1,23,-1
 516 -109 l 2,24,25
 492 -238 492 -238 492 -409 c 1,18,-1
EndSplineSet
Validated: 1
EndChar

StartChar: cent
Encoding: 162 162 98
Width: 1238
GlyphClass: 2
Flags: W
HStem: -18 162<600.405 665 848 990.75> 963 153<1056 1150.24>
VStem: 166 334<247.202 649.884> 631 150<-180 -30> 941 150<1130 1280>
DStem2: 631 -180 781 -180 0.207912 0.978148<31.1868 165.529 355.19 1161.28 1356.04 1492.55>
LayerCount: 2
Fore
SplineSet
665 -18 m 1,0,1
 429 -1 429 -1 283 146 c 0,2,3
 166 262 166 262 166 442 c 0,4,5
 166 499 166 499 177 550 c 0,6,7
 230 800 230 800 444 960 c 0,8,9
 636 1103 636 1103 907 1118 c 1,10,-1
 941 1280 l 1,11,-1
 1091 1280 l 1,12,-1
 1056 1116 l 1,13,14
 1246 1099 1246 1099 1376 1001 c 1,15,-1
 1312 701 l 1,16,-1
 1302 701 l 1,17,18
 1231 937 1231 937 1024 963 c 1,19,-1
 848 137 l 1,20,21
 998 154 998 154 1119 265 c 0,22,23
 1203 342 1203 342 1253 399 c 1,24,-1
 1263 399 l 1,25,-1
 1208 141 l 1,26,27
 1020 8 1020 8 816 -15 c 1,28,-1
 781 -180 l 1,29,-1
 631 -180 l 1,30,-1
 665 -18 l 1,0,1
700 144 m 1,31,-1
 872 956 l 1,32,33
 758 933 758 933 672 852 c 0,34,35
 556 743 556 743 515 550 c 0,36,37
 500 479 500 479 500 419 c 0,38,39
 500 317 500 317 544 248 c 0,40,41
 596 167 596 167 700 144 c 1,31,-1
EndSplineSet
Validated: 1
EndChar

StartChar: sterling
Encoding: 163 163 99
Width: 1125
GlyphClass: 2
Flags: W
HStem: 0 174<522 1065> 754 158<211.094 320 674 969.657> 1370 160<872.834 1159.43>
VStem: 1210 10<1221 1243.37>
DStem2: 159.732 0 479.732 0 0.207912 0.978148<249.602 770.845 998.993 1294.95>
LayerCount: 2
Fore
SplineSet
132 0 m 1,0,1
 192 150 192 150 222 294 c 2,2,-1
 320 754 l 1,3,-1
 310 754 l 2,4,5
 243 754 243 754 165 728 c 1,6,-1
 209 938 l 1,7,8
 276 912 276 912 344 912 c 2,9,-1
 354 912 l 1,10,-1
 376 1014 l 2,11,12
 429 1261 429 1261 589 1389 c 0,13,14
 765 1530 765 1530 1033 1530 c 0,15,16
 1191 1530 1191 1530 1281 1511 c 1,17,-1
 1220 1221 l 1,18,-1
 1210 1221 l 1,19,20
 1187 1370 1187 1370 1025 1370 c 0,21,22
 921 1370 921 1370 840 1302 c 0,23,24
 740 1221 740 1221 702 1045 c 2,25,-1
 674 912 l 1,26,-1
 734 912 l 2,27,28
 870 912 870 912 1020 940 c 1,29,-1
 974 726 l 1,30,31
 835 754 835 754 700 754 c 2,32,-1
 640 754 l 1,33,-1
 542 294 l 2,34,35
 529 235 529 235 522 174 c 1,36,-1
 802 174 l 2,37,38
 960 174 960 174 1108 204 c 1,39,-1
 1065 0 l 1,40,-1
 132 0 l 1,0,1
EndSplineSet
Validated: 1
EndChar

StartChar: currency
Encoding: 164 164 100
Width: 1593
GlyphClass: 2
Flags: W
HStem: 191 155<747.433 1032.36> 1176 155<904.108 1186.4>
VStem: 329 328<444.494 861.135> 1279 327<660.278 1078.21>
DStem2: 161 234 301 56 0.76909 0.63914<0 301.116 1612.36 1877.84> 595 1440 378 1261 0.614665 -0.788788<7.81064 237.233 1298.91 1526.26>
LayerCount: 2
Fore
SplineSet
879 346 m 0,0,1
 1007 346 1007 346 1117 459 c 0,2,3
 1221 565 1221 565 1262 761 c 0,4,5
 1279 841 1279 841 1279 906 c 0,6,7
 1279 1004 1279 1004 1241 1068 c 0,8,9
 1178 1176 1178 1176 1054.5 1176 c 128,-1,10
 931 1176 931 1176 819 1063 c 0,11,12
 716 959 716 959 674 761 c 0,13,14
 657 682 657 682 657 617 c 0,15,16
 657 520 657 520 695 454 c 0,17,18
 758 346 758 346 879 346 c 0,0,1
595 1440 m 1,19,-1
 742 1252 l 1,20,21
 903 1331 903 1331 1088 1331 c 0,22,23
 1268 1331 1268 1331 1393 1258 c 1,24,-1
 1611 1439 l 1,25,-1
 1750 1260 l 1,26,-1
 1554 1096 l 1,27,28
 1606 1004 1606 1004 1606 888 c 0,29,30
 1606 828 1606 828 1592 761 c 0,31,32
 1549 557 1549 557 1397 412 c 1,33,-1
 1533 236 l 1,34,-1
 1317 56 l 1,35,-1
 1161 256 l 1,36,37
 1013 191 1013 191 846 191 c 0,38,39
 672 191 672 191 548 261 c 1,40,-1
 301 56 l 1,41,-1
 161 234 l 1,42,-1
 385 421 l 1,43,44
 329 515 329 515 329 633 c 0,45,46
 329 694 329 694 344 761 c 0,47,48
 384 949 384 949 515 1086 c 1,49,-1
 378 1261 l 1,50,-1
 595 1440 l 1,19,-1
EndSplineSet
Validated: 1
EndChar

StartChar: yen
Encoding: 165 165 101
Width: 1453
GlyphClass: 2
Flags: W
HStem: 0 21G<535 916> 321 224<361.928 639.395 995.488 1273.07> 351 164<369.501 640 994 1265.47> 617 224<424.928 628.782 1173.51 1336.07> 1490 20G<326 726.5 1395 1769>
DStem2: 939 849 455 1268 0.363238 -0.931696<-691.888 -78.9048> 939 849 1169 814 0.630455 0.776225<117.837 820.84>
LayerCount: 2
Fore
SplineSet
535 0 m 1,0,1
 596 148 596 148 629 300 c 2,2,-1
 640 351 l 1,3,-1
 624 351 l 2,4,5
 474 351 474 351 317 321 c 1,6,-1
 365 545 l 1,7,8
 509 515 509 515 658 515 c 2,9,-1
 674 515 l 1,10,-1
 700 637 l 1,11,-1
 697 647 l 1,12,-1
 687 647 l 2,13,14
 537 647 537 647 380 617 c 1,15,-1
 428 841 l 1,16,17
 529 820 529 820 632 814 c 1,18,-1
 455 1268 l 2,19,20
 402 1404 402 1404 326 1510 c 1,21,-1
 719 1510 l 1,22,23
 734 1383 734 1383 790 1237 c 2,24,-1
 939 849 l 1,25,-1
 1248 1237 l 2,26,27
 1355 1371 1355 1371 1435 1510 c 1,28,-1
 1769 1510 l 1,29,30
 1647 1402 1647 1402 1538 1268 c 2,31,-1
 1169 814 l 1,32,33
 1272 820 1272 820 1381 841 c 1,34,-1
 1333 617 l 1,35,36
 1188 647 1188 647 1040 647 c 2,37,-1
 1034 647 l 1,38,-1
 1019 629 l 1,39,-1
 994 515 l 1,40,-1
 1011 515 l 2,41,42
 1159 515 1159 515 1318 545 c 1,43,-1
 1270 321 l 1,44,45
 1125 351 1125 351 977 351 c 2,46,-1
 960 351 l 1,47,-1
 949 300 l 2,48,49
 917 152 917 152 915 0 c 1,50,-1
 535 0 l 1,0,1
EndSplineSet
Validated: 1
EndChar

StartChar: brokenbar
Encoding: 166 166 102
Width: 690
GlyphClass: 2
Flags: W
DStem2: 171.77 -181 441.77 -181 0.207912 0.978148<67.0445 835.679 1133.12 1901.93>
LayerCount: 2
Fore
SplineSet
142 -181 m 1,0,1
 202 -35 202 -35 235 119 c 2,2,-1
 284 347 l 2,3,4
 316 496 316 496 318 647 c 1,5,-1
 648 647 l 1,6,7
 587 499 587 499 554 347 c 2,8,-1
 505 119 l 2,9,10
 473 -30 473 -30 472 -181 c 1,11,-1
 142 -181 l 1,0,1
539 1690 m 1,12,-1
 869 1690 l 1,13,14
 807 1541 807 1541 775 1390 c 2,15,-1
 727 1162 l 2,16,17
 695 1010 695 1010 693 862 c 1,18,-1
 363 862 l 1,19,20
 426 1014 426 1014 457 1162 c 2,21,-1
 505 1390 l 2,22,23
 537 1542 537 1542 539 1690 c 1,12,-1
EndSplineSet
Validated: 1
EndChar

StartChar: section
Encoding: 167 167 103
Width: 1051
GlyphClass: 2
Flags: W
HStem: -20 144<380.36 598.882> 1386 144<773.118 991.64>
VStem: 267 305<666.535 872.906> 457 285<1174.18 1349.47> 630 285<160.534 335.819> 800 305<637.094 843.465>
LayerCount: 2
Fore
SplineSet
607 874 m 1,0,1
 582 839 582 839 575 801 c 0,2,3
 572 785 572 785 572 770 c 0,4,5
 572 693 572 693 641 643 c 2,6,-1
 763 553 l 2,7,8
 915 441 915 441 915 307 c 0,9,10
 915 281 915 281 909 255 c 0,11,12
 882 130 882 130 758 48 c 0,13,14
 655 -20 655 -20 513 -20 c 128,-1,15
 371 -20 371 -20 245 26 c 1,16,-1
 300 284 l 1,17,-1
 310 284 l 1,18,19
 371 124 371 124 485 124 c 0,20,21
 539 124 539 124 572 145 c 0,22,23
 619 175 619 175 628 225 c 0,24,25
 630 235 630 235 630 246 c 0,26,27
 630 307 630 307 559 359 c 2,28,-1
 415 466 l 2,29,30
 267 576 267 576 267 719 c 0,31,32
 267 753 267 753 276 791 c 0,33,34
 308 926 308 926 428 1011 c 1,35,36
 607 874 l 1,0,1
765 636 m 1,37,38
 790 671 790 671 797 709 c 0,39,40
 800 725 800 725 800 740 c 0,41,42
 800 817 800 817 731 867 c 2,43,-1
 609 957 l 2,44,45
 457 1069 457 1069 457 1203 c 0,46,47
 457 1229 457 1229 463 1255 c 0,48,49
 490 1380 490 1380 614 1462 c 0,50,51
 717 1530 717 1530 859 1530 c 128,-1,52
 1001 1530 1001 1530 1127 1484 c 1,53,-1
 1072 1226 l 1,54,-1
 1062 1226 l 1,55,56
 1001 1386 1001 1386 887 1386 c 0,57,58
 833 1386 833 1386 800 1365 c 0,59,60
 753 1335 753 1335 744 1285 c 0,61,62
 742 1275 742 1275 742 1264 c 0,63,64
 742 1203 742 1203 813 1151 c 2,65,-1
 957 1044 l 2,66,67
 1105 934 1105 934 1105 791 c 0,68,69
 1105 757 1105 757 1096 719 c 0,70,71
 1064 584 1064 584 944 499 c 1,72,-1
 765 636 l 1,37,38
EndSplineSet
Validated: 1
EndChar

StartChar: dieresis
Encoding: 168 168 104
Width: 698
GlyphClass: 2
Flags: W
HStem: 1216 314<382.206 552.251 730.206 900.251>
VStem: 308 318<1289.57 1455.54> 656 318<1289.57 1455.54>
LayerCount: 2
Fore
SplineSet
848 1530 m 0,0,1
 912 1530 912 1530 948 1484 c 0,2,3
 974 1451 974 1451 974 1408 c 0,4,5
 974 1390 974 1390 970 1372 c 0,6,7
 956 1306 956 1306 901 1261 c 128,-1,8
 846 1216 846 1216 781 1216 c 128,-1,9
 716 1216 716 1216 681 1262 c 0,10,11
 656 1294 656 1294 656 1337 c 0,12,13
 656 1354 656 1354 660 1372 c 0,14,15
 674 1438 674 1438 728.5 1484 c 128,-1,16
 783 1530 783 1530 848 1530 c 0,0,1
500 1530 m 0,17,18
 564 1530 564 1530 600 1484 c 0,19,20
 626 1451 626 1451 626 1408 c 0,21,22
 626 1390 626 1390 622 1372 c 0,23,24
 608 1306 608 1306 553 1261 c 128,-1,25
 498 1216 498 1216 433 1216 c 128,-1,26
 368 1216 368 1216 333 1262 c 0,27,28
 308 1294 308 1294 308 1337 c 0,29,30
 308 1354 308 1354 312 1372 c 0,31,32
 326 1438 326 1438 380.5 1484 c 128,-1,33
 435 1530 435 1530 500 1530 c 0,17,18
EndSplineSet
Validated: 1
EndChar

StartChar: copyright
Encoding: 169 169 105
Width: 1338
GlyphClass: 2
Flags: W
HStem: 386 77<584.878 959.312> 536 126<720.83 1007.04> 1244 128<825.356 1110.45> 1453 77<785.688 1160.37>
VStem: 303 82<659.426 1055.31> 441 213<730.375 1057.37> 1360 82<860.688 1256.57>
LayerCount: 2
Fore
SplineSet
978 1530 m 0,0,1
 1220 1530 1220 1530 1347 1368 c 0,2,3
 1442 1247 1442 1247 1442 1097 c 0,4,5
 1442 1019 1442 1019 1433 964 c 0,6,7
 1393 718 1393 718 1194 553 c 0,8,9
 992 386 992 386 767 386 c 0,10,11
 525 386 525 386 398 548 c 0,12,13
 303 669 303 669 303 819 c 0,14,15
 303 897 303 897 312 952 c 0,16,17
 352 1199 352 1199 551 1363 c 0,18,19
 753 1530 753 1530 978 1530 c 0,0,1
977 1453 m 0,20,21
 787 1453 787 1453 615 1312 c 0,22,23
 437 1166 437 1166 396 953 c 0,24,25
 385 896 385 896 385 849 c 0,26,27
 385 701 385 701 461 602 c 0,28,29
 568 463 568 463 768 463 c 0,30,31
 958 463 958 463 1130 604 c 0,32,33
 1308 750 1308 750 1349 963 c 0,34,35
 1360 1020 1360 1020 1360 1067 c 0,36,37
 1360 1213 1360 1213 1284 1314 c 0,38,39
 1178 1453 1178 1453 977 1453 c 0,20,21
1160 835 m 1,40,-1
 1170 835 l 1,41,-1
 1131 650 l 1,42,43
 972 536 972 536 788 536 c 0,44,45
 601 536 601 536 507 661 c 0,46,47
 441 749 441 749 441 861 c 0,48,49
 441 906 441 906 452 956 c 0,50,51
 488 1126 488 1126 632 1246 c 0,52,53
 784 1372 784 1372 956 1372 c 0,54,55
 1117 1372 1117 1372 1229 1295 c 1,56,-1
 1183 1079 l 1,57,-1
 1173 1079 l 1,58,59
 1161 1122 1161 1122 1147 1151 c 0,60,61
 1101 1244 1101 1244 990 1244 c 0,62,63
 863 1244 863 1244 772 1159 c 0,64,65
 690 1082 690 1082 663 953 c 0,66,67
 654 912 654 912 654 875 c 0,68,69
 654 804 654 804 686 748 c 0,70,71
 734 662 734 662 877 662 c 0,72,73
 1002 662 1002 662 1160 835 c 1,40,-1
EndSplineSet
Validated: 1
EndChar

StartChar: ordfeminine
Encoding: 170 170 106
Width: 700
GlyphClass: 2
Flags: W
HStem: 663 192<198.939 491.381 502.616 519.415 530.558 824.061> 693 132<206.509 816.491> 934 86<487.792 619.125> 1256 93<517.73 651.998> 1427 103<479.259 681.273>
VStem: 288 191<1022.71 1218.49> 659 154<1055.68 1230>
LayerCount: 2
Fore
SplineSet
544 1020 m 128,-1,1
 583 1020 583 1020 611 1052 c 0,2,3
 645 1091 645 1091 655 1139 c 0,4,5
 659 1156 659 1156 659 1171 c 0,6,7
 659 1199 659 1199 647 1223 c 0,8,9
 631 1256 631 1256 594 1256 c 128,-1,10
 557 1256 557 1256 527 1223 c 0,11,12
 493 1186 493 1186 483 1139 c 0,13,14
 479 1122 479 1122 479 1106 c 0,15,16
 479 1077 479 1077 491 1052 c 0,17,0
 505 1020 505 1020 544 1020 c 128,-1,1
202 855 m 1,18,19
 346 825 346 825 525 825 c 0,20,21
 703 825 703 825 862 855 c 1,22,-1
 821 663 l 1,23,24
 677 693 677 693 497 693 c 128,-1,25
 317 693 317 693 161 663 c 1,26,-1
 202 855 l 1,18,19
669 1530 m 0,27,28
 797 1530 797 1530 850 1440 c 0,29,30
 875 1398 875 1398 875 1342 c 0,31,32
 875 1310 875 1310 867 1273 c 2,33,-1
 830 1101 l 2,34,35
 815 1031 815 1031 813 934 c 1,36,-1
 592 934 l 1,37,38
 544 924 544 924 491 924 c 0,39,40
 388 924 388 924 331 986 c 0,41,42
 288 1032 288 1032 288 1095 c 0,43,44
 288 1116 288 1116 293 1139 c 0,45,46
 320 1265 320 1265 456 1322 c 24,47,48
 521 1349 521 1349 584 1349 c 0,49,50
 645 1349 645 1349 689 1337 c 1,51,52
 689 1365 689 1365 683 1380 c 0,53,54
 663 1427 663 1427 602 1427 c 0,55,56
 515 1427 515 1427 427 1339 c 0,57,58
 421 1333 421 1333 409 1322 c 1,59,-1
 399 1322 l 1,60,-1
 430 1466 l 1,61,62
 552 1530 552 1530 669 1530 c 0,27,28
EndSplineSet
Validated: 1
EndChar

StartChar: guillemotleft
Encoding: 171 171 107
Width: 1396
GlyphClass: 2
Flags: W
DStem2: 499 747 219 747 0.456869 -0.889534<0 434.727> 460 1007 499 747 0.684436 0.729073<-162.866 326.082> 984 747 704 747 0.456869 -0.889534<0 434.727> 945 1007 984 747 0.684436 0.729073<-162.866 326.082>
LayerCount: 2
Fore
SplineSet
1149 1270 m 1,0,-1
 1506 1270 l 1,1,2
 1364 1151 1364 1151 1260 1041 c 2,3,-1
 984 747 l 1,4,-1
 1135 453 l 2,5,6
 1190 346 1190 346 1284 224 c 1,7,-1
 927 224 l 1,8,9
 895 368 895 368 835 487 c 2,10,-1
 704 747 l 1,11,-1
 945 1007 l 2,12,13
 1055 1126 1055 1126 1149 1270 c 1,0,-1
664 1270 m 1,14,-1
 1021 1270 l 1,15,16
 879 1151 879 1151 775 1041 c 2,17,-1
 499 747 l 1,18,-1
 650 453 l 2,19,20
 705 346 705 346 799 224 c 1,21,-1
 442 224 l 1,22,23
 410 368 410 368 350 487 c 2,24,-1
 219 747 l 1,25,-1
 460 1007 l 2,26,27
 570 1126 570 1126 664 1270 c 1,14,-1
EndSplineSet
Validated: 1
EndChar

StartChar: logicalnot
Encoding: 172 172 108
Width: 1173
GlyphClass: 2
Flags: W
HStem: 642 204<300.501 993.316>
LayerCount: 2
Fore
SplineSet
296 876 m 1,0,1
 440 846 440 846 590 846 c 2,2,-1
 943 846 l 2,3,4
 1088 846 1088 846 1249 876 c 1,5,-1
 1136 342 l 1,6,-1
 902 342 l 1,7,8
 962 484 962 484 995 642 c 1,9,-1
 546 642 l 2,10,11
 396 642 396 642 240 612 c 1,12,-1
 296 876 l 1,0,1
EndSplineSet
Validated: 1
EndChar

StartChar: uni00AD
Encoding: 173 173 109
Width: 1173
GlyphClass: 2
Flags: W
HStem: 612 264<292.959 1196.04> 642 204<300.501 1188.47>
LayerCount: 2
Fore
SplineSet
296 876 m 1,0,1
 440 846 440 846 590 846 c 2,2,-1
 943 846 l 2,3,4
 1091 846 1091 846 1249 876 c 1,5,-1
 1193 612 l 1,6,7
 1048 642 1048 642 899 642 c 2,8,-1
 546 642 l 2,9,10
 396 642 396 642 240 612 c 1,11,-1
 296 876 l 1,0,1
EndSplineSet
Validated: 1
EndChar

StartChar: registered
Encoding: 174 174 110
Width: 1338
GlyphClass: 2
Flags: W
HStem: 386 77<584.878 958.649> 1245 128<891.52 978.184> 1453 77<785.688 1160.37>
VStem: 303 82<659.426 1055.31> 531 244<552 670.906> 997 210<1029.49 1221.64> 1360 82<860.317 1256.57>
DStem2: 517.818 386 717.886 386 0.207912 0.978148<218.957 523.119 652.957 920.313> 1035 904 830 857 0.413803 -0.910366<-6.95407 279.683>
LayerCount: 2
Fore
SplineSet
845 984 m 1,0,-1
 855 984 l 2,1,2
 901 984 901 984 942 1019 c 0,3,4
 980 1052 980 1052 993 1114 c 0,5,6
 997 1134 997 1134 997 1152 c 0,7,8
 997 1187 997 1187 979 1210 c 0,9,10
 953 1244 953 1244 911 1245 c 2,11,-1
 903 1245 l 1,12,13
 895 1216 895 1216 889 1190 c 2,14,-1
 845 984 l 1,0,-1
977 1453 m 0,15,16
 787 1453 787 1453 615 1312 c 0,17,18
 437 1166 437 1166 396 953 c 0,19,20
 385 896 385 896 385 849 c 0,21,22
 385 701 385 701 461 602 c 0,23,24
 568 463 568 463 768 463 c 0,25,26
 920 463 920 463 1060 553 c 1,27,-1
 943 552 l 1,28,29
 930 641 930 641 901 704 c 2,30,-1
 830 857 l 1,31,-1
 818 857 l 1,32,-1
 792 734 l 2,33,34
 775 654 775 654 775 552 c 1,35,-1
 531 552 l 1,36,37
 576 658 576 658 592 735 c 2,38,-1
 689 1190 l 2,39,40
 706 1270 706 1270 706 1373 c 1,41,-1
 938 1373 l 2,42,43
 1084 1373 1084 1373 1155 1296 c 0,44,45
 1207 1239 1207 1239 1207 1162 c 0,46,47
 1207 1142 1207 1142 1203 1120 c 0,48,49
 1184 1004 1184 1004 1079 933 c 0,50,51
 1045 910 1045 910 1035 904 c 1,52,-1
 1120 717 l 2,53,54
 1139 673 1139 673 1167 636 c 1,55,56
 1313 773 1313 773 1349 963 c 0,57,58
 1360 1020 1360 1020 1360 1067 c 0,59,60
 1360 1213 1360 1213 1284 1314 c 0,61,62
 1178 1453 1178 1453 977 1453 c 0,15,16
978 1530 m 0,63,64
 1220 1530 1220 1530 1347 1368 c 0,65,66
 1442 1247 1442 1247 1442 1097 c 0,67,68
 1442 1019 1442 1019 1433 964 c 0,69,70
 1393 718 1393 718 1194 553 c 0,71,72
 992 386 992 386 767 386 c 0,73,74
 525 386 525 386 398 548 c 0,75,76
 303 669 303 669 303 819 c 0,77,78
 303 897 303 897 312 952 c 0,79,80
 352 1199 352 1199 551 1363 c 0,81,82
 753 1530 753 1530 978 1530 c 0,63,64
EndSplineSet
Validated: 1
EndChar

StartChar: macron
Encoding: 175 175 111
Width: 700
GlyphClass: 2
Flags: W
HStem: 1251 227<330.969 616.381 627.616 652.384 663.558 949.031> 1281 167<338.509 941.491>
LayerCount: 2
Fore
SplineSet
334 1478 m 1,0,1
 478 1448 478 1448 658 1448 c 0,2,3
 836 1448 836 1448 994 1478 c 1,4,-1
 946 1251 l 1,5,6
 802 1281 802 1281 622 1281 c 128,-1,7
 442 1281 442 1281 286 1251 c 1,8,-1
 334 1478 l 1,0,1
EndSplineSet
Validated: 1
EndChar

StartChar: degree
Encoding: 176 176 112
Width: 652
GlyphClass: 2
Flags: W
HStem: 926 136<473.754 651.762> 1394 136<522.442 702.927>
VStem: 277 174<1081.7 1316.52> 723 174<1138.58 1346.12>
LayerCount: 2
Fore
SplineSet
642 1530 m 0,0,1
 771 1530 771 1530 841 1444 c 0,2,3
 897 1374 897 1374 897 1281 c 0,4,5
 897 1255 897 1255 893 1228 c 0,6,7
 872 1089 872 1089 758 1002 c 0,8,9
 659 926 659 926 532 926 c 128,-1,10
 405 926 405 926 333 1012 c 0,11,12
 277 1079 277 1079 277 1175 c 0,13,14
 277 1201 277 1201 281 1228 c 0,15,16
 301 1365 301 1365 416 1454 c 0,17,18
 515 1530 515 1530 642 1530 c 0,0,1
622 1394 m 0,19,20
 566 1394 566 1394 520 1347 c 0,21,22
 473 1300 473 1300 457 1229 c 0,23,24
 451 1202 451 1202 451 1179 c 0,25,26
 451 1138 451 1138 470 1110 c 0,27,28
 502 1062 502 1062 552 1062 c 0,29,30
 607 1062 607 1062 654.5 1109.5 c 128,-1,31
 702 1157 702 1157 717 1229 c 0,32,33
 723 1256 723 1256 723 1279 c 0,34,35
 723 1319 723 1319 705 1347 c 0,36,37
 674 1394 674 1394 622 1394 c 0,19,20
EndSplineSet
Validated: 1
EndChar

StartChar: plusminus
Encoding: 177 177 113
Width: 1173
GlyphClass: 2
Flags: W
HStem: 150 264<194.959 1098.04> 180 204<202.501 1090.47> 764 264<325.905 651.844 901.172 1228.1> 794 204<333.501 653 900 1220.47>
VStem: 543 264<420 537.188> 746 264<1253.02 1372>
DStem2: 515.843 150 719.843 150 0.207912 0.978148<329.548 658.444 909.34 1238.74>
LayerCount: 2
Fore
SplineSet
198 414 m 1,0,1
 342 384 342 384 492 384 c 2,2,-1
 845 384 l 2,3,4
 993 384 993 384 1151 414 c 1,5,-1
 1095 150 l 1,6,7
 950 180 950 180 801 180 c 2,8,-1
 448 180 l 2,9,10
 298 180 298 180 142 150 c 1,11,-1
 198 414 l 1,0,1
746 1372 m 1,12,-1
 1010 1372 l 1,13,14
 946 1214 946 1214 916 1072 c 2,15,-1
 900 998 l 1,16,-1
 975 998 l 2,17,18
 1123 998 1123 998 1282 1028 c 1,19,-1
 1225 764 l 1,20,21
 1080 794 1080 794 932 794 c 2,22,-1
 857 794 l 1,23,-1
 841 720 l 2,24,25
 811 580 811 580 807 420 c 1,26,-1
 543 420 l 1,27,28
 605 572 605 572 637 720 c 2,29,-1
 653 794 l 1,30,-1
 579 794 l 2,31,32
 429 794 429 794 272 764 c 1,33,-1
 329 1028 l 1,34,35
 473 998 473 998 622 998 c 2,36,-1
 696 998 l 1,37,-1
 712 1072 l 2,38,39
 745 1228 745 1228 746 1372 c 1,12,-1
EndSplineSet
Validated: 1
EndChar

StartChar: uni00B2
Encoding: 178 178 114
Width: 635
GlyphClass: 2
Flags: W
HStem: 828 143<451 791> 1511 127<454.301 678.066>
VStem: 356 10<1369 1373.4> 695 215<1307.19 1473.25>
LayerCount: 2
Fore
SplineSet
658 1638 m 0,0,1
 778 1638 778 1638 850 1569 c 0,2,3
 910 1512 910 1512 910 1425 c 0,4,5
 910 1406 910 1406 907 1386 c 0,6,7
 884 1222 884 1222 641 1109 c 0,8,9
 522 1054 522 1054 451 971 c 1,10,-1
 621 971 l 2,11,12
 724 971 724 971 827 999 c 1,13,-1
 791 828 l 1,14,-1
 196 828 l 1,15,16
 270 1038 270 1038 555 1224 c 0,17,18
 675 1302 675 1302 692 1386 c 0,19,20
 695 1402 695 1402 695 1416 c 0,21,22
 695 1450 695 1450 677 1474 c 0,23,24
 647 1511 647 1511 582 1511 c 0,25,26
 459 1511 459 1511 366 1369 c 1,27,-1
 356 1369 l 1,28,-1
 399 1569 l 1,29,30
 528 1638 528 1638 658 1638 c 0,0,1
EndSplineSet
Validated: 1
EndChar

StartChar: uni00B3
Encoding: 179 179 115
Width: 611
GlyphClass: 2
Flags: W
HStem: 827 128<318.906 551.093> 1510 128<414 631>
VStem: 610 221<1008.76 1212.8>
LayerCount: 2
Fore
SplineSet
414 1638 m 1,0,-1
 878 1638 l 1,1,-1
 874 1533 l 1,2,3
 806 1480 806 1480 742 1412 c 2,4,-1
 668 1333 l 1,5,6
 734 1323 734 1323 776 1281 c 0,7,8
 831 1226 831 1226 831 1151 c 0,9,10
 831 1127 831 1127 825 1102 c 0,11,12
 801 988 801 988 695 908 c 0,13,14
 588 827 588 827 428 827 c 0,15,16
 311 827 311 827 211 897 c 1,17,-1
 253 1098 l 1,18,-1
 263 1098 l 1,19,20
 303 955 303 955 440 955 c 24,21,22
 506 955 506 955 550 993 c 0,23,24
 590 1028 590 1028 606 1099 c 0,25,26
 610 1119 610 1119 610 1135 c 0,27,28
 610 1234 610 1234 465 1234 c 1,29,-1
 431 1300 l 1,30,-1
 631 1510 l 1,31,-1
 587 1510 l 2,32,33
 489 1510 489 1510 381 1482 c 1,34,-1
 414 1638 l 1,0,-1
EndSplineSet
Validated: 1
EndChar

StartChar: acute
Encoding: 180 180 116
Width: 503
GlyphClass: 2
Flags: W
HStem: 1180 350
VStem: 271 537
LayerCount: 2
Fore
SplineSet
808 1530 m 1,0,-1
 806 1520 l 1,1,2
 705 1309 705 1309 478 1180 c 1,3,-1
 271 1180 l 1,4,-1
 273 1190 l 1,5,6
 463 1346 463 1346 502 1530 c 1,7,-1
 808 1530 l 1,0,-1
EndSplineSet
Validated: 1
EndChar

StartChar: uni00B5
Encoding: 181 181 117
Width: 1381
GlyphClass: 2
Flags: W
HStem: -410 21G<45 397.5> -20 165<540 810.291> 0 21G<898 1251>
DStem2: 72.5084 -410 367.508 -410 0.207912 0.978148<71.8622 474.097 833.295 1513.87> 838.995 -410 1133.36 -410 0.207912 0.978148<670.547 1513.77>
LayerCount: 2
Fore
SplineSet
1249 0 m 1,0,-1
 898 0 l 1,1,2
 925 51 925 51 942 105 c 1,3,4
 793 -20 793 -20 573 -20 c 0,5,6
 507 -20 507 -20 453 -8 c 1,7,-1
 430 -116 l 2,8,9
 399 -260 399 -260 396 -410 c 1,10,-1
 45 -410 l 1,11,12
 104 -263 104 -263 135 -116 c 2,13,-1
 327 785 l 2,14,15
 357 927 357 927 362 1081 c 1,16,-1
 732 1151 l 1,17,18
 673 999 673 999 643 859 c 2,19,-1
 559 466 l 2,20,21
 544 394 544 394 544 340 c 0,22,23
 544 276 544 276 565 236 c 0,24,25
 614 145 614 145 723 145 c 0,26,27
 833 145 833 145 918 234 c 0,28,29
 993 313 993 313 1025 466 c 2,30,-1
 1093 785 l 2,31,32
 1123 927 1123 927 1128 1081 c 1,33,-1
 1493 1151 l 1,34,35
 1433 998 1433 998 1404 859 c 2,36,-1
 1283 294 l 2,37,38
 1253 150 1253 150 1249 0 c 1,0,-1
EndSplineSet
Validated: 1
EndChar

StartChar: paragraph
Encoding: 182 182 118
Width: 1153
GlyphClass: 2
Flags: W
HStem: 0 21G<643 805.255 867 1023.5> 1382 128<1095 1161>
DStem2: 673.083 0 801 0 0.207912 0.978148<26.5954 707.424> 867 0 993.083 0 0.207912 0.978148<36.8459 1412.05>
LayerCount: 2
Fore
SplineSet
1023 0 m 1,0,-1
 867 0 l 1,1,-1
 1161 1382 l 1,2,-1
 1095 1382 l 1,3,-1
 801 0 l 1,4,-1
 643 0 l 1,5,6
 704 145 704 145 736 296 c 2,7,-1
 820 692 l 1,8,9
 765 683 765 683 712 683 c 0,10,11
 500 683 500 683 403 806 c 0,12,13
 334 893 334 893 334 1007 c 0,14,15
 334 1051 334 1051 344 1100 c 0,16,17
 381 1274 381 1274 529 1397 c 128,-1,18
 677 1520 677 1520 890 1520 c 0,19,20
 946 1520 946 1520 995 1510 c 1,21,-1
 1344 1510 l 1,22,23
 1283 1365 1283 1365 1251 1214 c 2,24,-1
 1056 296 l 2,25,26
 1024 144 1024 144 1023 0 c 1,0,-1
EndSplineSet
Validated: 1
EndChar

StartChar: periodcentered
Encoding: 183 183 119
Width: 404
GlyphClass: 2
Flags: W
HStem: 569 370<272.695 451.305>
VStem: 176 372<665 843>
LayerCount: 2
Fore
SplineSet
401 939 m 0,0,1
 479 939 479 939 519 885 c 0,2,3
 548 846 548 846 548 795 c 0,4,5
 548 775 548 775 544 754 c 0,6,7
 528 677 528 677 463.5 623 c 128,-1,8
 399 569 399 569 323 569 c 0,9,10
 245 569 245 569 205 623 c 0,11,12
 176 662 176 662 176 713 c 0,13,14
 176 733 176 733 180 754 c 0,15,16
 196 831 196 831 260.5 885 c 128,-1,17
 325 939 325 939 401 939 c 0,0,1
EndSplineSet
Validated: 1
EndChar

StartChar: cedilla
Encoding: 184 184 120
Width: 411
GlyphClass: 2
Flags: W
HStem: -486 189<-43 99.8125> -20 20G<86.6863 265>
VStem: 120 223<-273.423 -158.441>
LayerCount: 2
Fore
SplineSet
91 0 m 1,0,-1
 265 0 l 1,1,-1
 251 -67 l 1,2,3
 343 -112 343 -112 343 -204 c 0,4,5
 343 -227 343 -227 337 -252 c 0,6,7
 287 -486 287 -486 -83 -486 c 1,8,-1
 -43 -297 l 1,9,10
 103 -297 103 -297 118 -224 c 0,11,12
 120 -216 120 -216 120 -209 c 0,13,14
 120 -166 120 -166 58 -153 c 1,15,-1
 91 0 l 1,0,-1
EndSplineSet
Validated: 1
EndChar

StartChar: uni00B9
Encoding: 185 185 121
Width: 463
GlyphClass: 2
Flags: W
VStem: 333 246<828 943.651>
DStem2: 356.102 828 556.102 828 0.207912 0.978148<49.5771 604.261>
LayerCount: 2
Fore
SplineSet
756 1661 m 1,0,1
 714 1573 714 1573 696 1486 c 2,2,-1
 595 1011 l 2,3,4
 579 934 579 934 579 828 c 1,5,-1
 333 828 l 1,6,7
 375 918 375 918 395 1011 c 2,8,-1
 482 1419 l 1,9,-1
 402 1356 l 1,10,-1
 331 1465 l 1,11,-1
 527 1618 l 1,12,-1
 756 1661 l 1,0,1
EndSplineSet
Validated: 1
EndChar

StartChar: ordmasculine
Encoding: 186 186 122
Width: 702
GlyphClass: 2
Flags: W
HStem: 663 192<199.939 492.381 503.616 520.415 531.558 825.061> 693 132<207.509 817.491> 923 97<493.929 658.809> 1432 98<564.106 729.684>
VStem: 276 200<1072.91 1330.37> 749 199<1126.18 1381.03>
LayerCount: 2
Fore
SplineSet
678 1530 m 0,0,1
 819 1530 819 1530 892 1440 c 0,2,3
 948 1371 948 1371 948 1282 c 0,4,5
 948 1255 948 1255 943 1226 c 0,6,7
 920 1094 920 1094 803 1007 c 0,8,9
 692 923 692 923 546 923 c 0,10,11
 403 923 403 923 332 1013 c 0,12,13
 276 1082 276 1082 276 1171 c 0,14,15
 276 1198 276 1198 281 1227 c 0,16,17
 304 1359 304 1359 421 1446 c 0,18,19
 532 1530 532 1530 678 1530 c 0,0,1
203 855 m 1,20,21
 347 825 347 825 526 825 c 0,22,23
 704 825 704 825 863 855 c 1,24,-1
 822 663 l 1,25,26
 678 693 678 693 498 693 c 128,-1,27
 318 693 318 693 162 663 c 1,28,-1
 203 855 l 1,20,21
656 1432 m 0,29,30
 609 1432 609 1432 560 1384 c 0,31,32
 507 1332 507 1332 485 1226 c 0,33,34
 476 1180 476 1180 476 1144 c 0,35,36
 476 1101 476 1101 489 1072 c 0,37,38
 513 1020 513 1020 570 1020 c 0,39,40
 615 1020 615 1020 665 1071 c 0,41,42
 718 1125 718 1125 740 1229 c 0,43,44
 749 1273 749 1273 749 1307 c 0,45,46
 749 1351 749 1351 734 1382 c 0,47,48
 710 1432 710 1432 656 1432 c 0,29,30
EndSplineSet
Validated: 1
EndChar

StartChar: guillemotright
Encoding: 187 187 123
Width: 1396
GlyphClass: 2
Flags: W
DStem2: 730 747 769 487 0.685751 0.727836<-488.519 0> 879 1007 730 747 0.459259 -0.888303<-271.421 162.529> 1215 747 1254 487 0.685751 0.727836<-488.519 0> 1364 1007 1215 747 0.459259 -0.888303<-271.421 162.529>
LayerCount: 2
Fore
SplineSet
787 1270 m 1,0,1
 819 1126 819 1126 879 1007 c 2,2,-1
 1010 747 l 1,3,-1
 769 487 l 2,4,5
 659 368 659 368 565 224 c 1,6,-1
 208 224 l 1,7,8
 353 346 353 346 453 453 c 2,9,-1
 730 747 l 1,10,-1
 578 1041 l 2,11,12
 521 1151 521 1151 430 1270 c 1,13,-1
 787 1270 l 1,0,1
1272 1270 m 1,14,15
 1304 1126 1304 1126 1364 1007 c 2,16,-1
 1495 747 l 1,17,-1
 1254 487 l 2,18,19
 1144 368 1144 368 1050 224 c 1,20,-1
 693 224 l 1,21,22
 838 346 838 346 938 453 c 2,23,-1
 1215 747 l 1,24,-1
 1063 1041 l 2,25,26
 1006 1151 1006 1151 915 1270 c 1,27,-1
 1272 1270 l 1,14,15
EndSplineSet
Validated: 1
EndChar

StartChar: onequarter
Encoding: 188 188 124
Width: 1596
GlyphClass: 2
Flags: W
HStem: 0 21G<266 584.5 1140 1384> 176 127<1064 1199> 1490 20G<711.488 797.5 1250.5 1567>
VStem: 395 246<697 813.134>
DStem2: 269.95 0 469.95 0 0.207912 0.978148<762.179 1316.83> 967 399 1064 303 0.686464 0.727164<-2.87252 300.953> 1124 1225 1358 1251 0.557671 0.830062<-1332.75 321.31>
LayerCount: 2
Fore
SplineSet
266 0 m 1,0,1
 382 120 382 120 475 259 c 10,2,-1
 1124 1225 l 2,3,4
 1216 1362 1216 1362 1285 1510 c 1,5,-1
 1567 1510 l 1,6,7
 1456 1397 1456 1397 1358 1251 c 2,8,-1
 709 285 l 2,9,10
 621 155 621 155 548 0 c 1,11,-1
 266 0 l 1,0,1
818 1530 m 1,12,13
 777 1446 777 1446 758 1355 c 2,14,-1
 657 880 l 2,15,16
 641 804 641 804 641 697 c 1,17,-1
 395 697 l 1,18,19
 437 787 437 787 457 880 c 2,20,-1
 544 1288 l 1,21,-1
 464 1225 l 1,22,-1
 394 1334 l 1,23,-1
 589 1487 l 1,24,-1
 818 1530 l 1,12,13
1384 0 m 1,25,-1
 1140 0 l 1,26,27
 1180 90 1180 90 1199 176 c 1,28,-1
 850 176 l 1,29,-1
 837 277 l 1,30,31
 904 332 904 332 967 399 c 2,32,-1
 1220 667 l 2,33,34
 1279 730 1279 730 1329 812 c 1,35,-1
 1564 854 l 1,36,37
 1523 754 1523 754 1497 634 c 2,38,-1
 1428 312 l 1,39,40
 1468 319 1468 319 1508 340 c 1,41,-1
 1473 176 l 1,42,-1
 1399 176 l 1,43,44
 1384 92 1384 92 1384 0 c 1,25,-1
1226 303 m 1,45,-1
 1273 524 l 1,46,-1
 1064 303 l 1,47,-1
 1226 303 l 1,45,-1
EndSplineSet
Validated: 1
EndChar

StartChar: onehalf
Encoding: 189 189 125
Width: 1689
GlyphClass: 2
Flags: W
HStem: 0 143<1189 1529> 683 127<1192.3 1416.07> 1490 20G<711.488 797.5 1250.5 1567>
VStem: 395 246<697 813.544> 1094 10<541 545.403> 1433 215<479.188 645.248>
DStem2: 269.95 0 469.95 0 0.207912 0.978148<762.209 1316.83> 1124 1225 1358 1251 0.557671 0.830062<-1332.75 321.31>
LayerCount: 2
Fore
SplineSet
1396 810 m 0,0,1
 1516 810 1516 810 1588 741 c 0,2,3
 1648 684 1648 684 1648 597 c 0,4,5
 1648 578 1648 578 1645 558 c 0,6,7
 1622 394 1622 394 1379 281 c 0,8,9
 1260 226 1260 226 1189 143 c 1,10,-1
 1359 143 l 2,11,12
 1462 143 1462 143 1565 171 c 1,13,-1
 1529 0 l 1,14,-1
 934 0 l 1,15,16
 1008 210 1008 210 1293 396 c 0,17,18
 1413 474 1413 474 1430 558 c 0,19,20
 1433 574 1433 574 1433 588 c 0,21,22
 1433 622 1433 622 1415 646 c 0,23,24
 1385 683 1385 683 1320 683 c 0,25,26
 1197 683 1197 683 1104 541 c 1,27,-1
 1094 541 l 1,28,-1
 1137 741 l 1,29,30
 1266 810 1266 810 1396 810 c 0,0,1
266 0 m 1,31,32
 382 120 382 120 475 259 c 10,33,-1
 1124 1225 l 2,34,35
 1216 1362 1216 1362 1285 1510 c 1,36,-1
 1567 1510 l 1,37,38
 1456 1397 1456 1397 1358 1251 c 2,39,-1
 709 285 l 2,40,41
 621 155 621 155 548 0 c 1,42,-1
 266 0 l 1,31,32
818 1530 m 1,43,44
 777 1445 777 1445 758 1355 c 2,45,-1
 657 880 l 2,46,47
 641 805 641 805 641 697 c 1,48,-1
 395 697 l 1,49,50
 437 787 437 787 457 880 c 2,51,-1
 544 1288 l 1,52,-1
 464 1225 l 1,53,-1
 394 1334 l 1,54,-1
 589 1487 l 1,55,-1
 818 1530 l 1,43,44
EndSplineSet
Validated: 1
EndChar

StartChar: threequarters
Encoding: 190 190 126
Width: 1685
GlyphClass: 2
Flags: W
HStem: 0 21G<355 673.5 1229 1473> 176 127<1153 1288> 709 128<383.906 616.093> 1392 128<479 696>
VStem: 675 221<890.758 1094.8>
DStem2: 1056 399 1153 303 0.686464 0.727164<-2.87252 300.953> 1213 1225 1447 1251 0.557671 0.830062<-1332.75 321.31>
LayerCount: 2
Fore
SplineSet
479 1520 m 1,0,-1
 943 1520 l 1,1,-1
 939 1415 l 1,2,3
 871 1362 871 1362 807 1294 c 2,4,-1
 733 1215 l 1,5,6
 799 1205 799 1205 841 1163 c 0,7,8
 896 1108 896 1108 896 1033 c 0,9,10
 896 1009 896 1009 890 984 c 0,11,12
 866 870 866 870 760 790 c 0,13,14
 653 709 653 709 493 709 c 0,15,16
 376 709 376 709 276 779 c 1,17,-1
 318 980 l 1,18,-1
 328 980 l 1,19,20
 368 837 368 837 505 837 c 24,21,22
 571 837 571 837 615 875 c 0,23,24
 655 910 655 910 671 981 c 0,25,26
 675 1001 675 1001 675 1017 c 0,27,28
 675 1116 675 1116 530 1116 c 1,29,-1
 496 1182 l 1,30,-1
 696 1392 l 1,31,-1
 652 1392 l 2,32,33
 554 1392 554 1392 446 1364 c 1,34,-1
 479 1520 l 1,0,-1
355 0 m 1,35,36
 471 120 471 120 564 259 c 10,37,-1
 1213 1225 l 2,38,39
 1305 1362 1305 1362 1374 1510 c 1,40,-1
 1656 1510 l 1,41,42
 1545 1397 1545 1397 1447 1251 c 2,43,-1
 798 285 l 2,44,45
 710 155 710 155 637 0 c 1,46,-1
 355 0 l 1,35,36
1473 0 m 1,47,-1
 1229 0 l 1,48,49
 1269 90 1269 90 1288 176 c 1,50,-1
 939 176 l 1,51,-1
 926 277 l 1,52,53
 993 332 993 332 1056 399 c 2,54,-1
 1309 667 l 2,55,56
 1368 730 1368 730 1418 812 c 1,57,-1
 1653 854 l 1,58,59
 1612 754 1612 754 1586 634 c 2,60,-1
 1517 312 l 1,61,62
 1557 319 1557 319 1597 340 c 1,63,-1
 1562 176 l 1,64,-1
 1488 176 l 1,65,66
 1473 85 1473 85 1473 0 c 1,47,-1
1315 303 m 1,67,-1
 1362 524 l 1,68,-1
 1153 303 l 1,69,-1
 1315 303 l 1,67,-1
EndSplineSet
Validated: 1
EndChar

StartChar: questiondown
Encoding: 191 191 127
Width: 1234
GlyphClass: 2
Flags: W
HStem: -430 176<507.675 845.887> 750 370<803.695 982.305>
VStem: 105 333<-184.962 123.593> 1124 10<40.5146 46>
LayerCount: 2
Fore
SplineSet
932 1120 m 0,0,1
 1010 1120 1010 1120 1050 1066 c 0,2,3
 1079 1027 1079 1027 1079 976 c 0,4,5
 1079 956 1079 956 1075 935 c 0,6,7
 1059 858 1059 858 994.5 804 c 128,-1,8
 930 750 930 750 854 750 c 0,9,10
 776 750 776 750 736 804 c 0,11,12
 707 843 707 843 707 894 c 0,13,14
 707 914 707 914 711 935 c 0,15,16
 727 1012 727 1012 791.5 1066 c 128,-1,17
 856 1120 856 1120 932 1120 c 0,0,1
551 -430 m 0,18,19
 313 -430 313 -430 193 -295 c 0,20,21
 105 -195 105 -195 105 -69 c 0,22,23
 105 -32 105 -32 112 7 c 0,24,25
 162 269 162 269 475 428 c 0,26,27
 695 541 695 541 718 651 c 1,28,-1
 954 651 l 1,29,30
 913 459 913 459 643 285 c 0,31,32
 479 180 479 180 447 30 c 0,33,34
 438 -14 438 -14 438 -51 c 0,35,36
 438 -126 438 -126 475 -177 c 0,37,38
 533 -254 533 -254 654 -254 c 0,39,40
 837 -254 837 -254 984 -115 c 0,41,42
 1061 -42 1061 -42 1124 46 c 1,43,-1
 1134 46 l 1,44,-1
 1061 -295 l 1,45,46
 817 -430 817 -430 551 -430 c 0,18,19
EndSplineSet
Validated: 1
EndChar

StartChar: multiply
Encoding: 215 215 128
Width: 1081
GlyphClass: 2
Flags: W
DStem2: 491 691 604 547 0.770308 0.637672<-328.402 78.3163 308.955 715.716> 688 941 513 797 0.616987 -0.786973<-259.828 67.0061 256.018 582.828>
LayerCount: 2
Fore
SplineSet
547 1174 m 1,0,1
 605 1047 605 1047 688 941 c 2,2,-1
 729 888 l 1,3,-1
 793 941 l 2,4,5
 922 1047 922 1047 1034 1174 c 1,6,-1
 1181 988 l 1,7,8
 1036 903 1036 903 906 797 c 2,9,-1
 843 744 l 1,10,-1
 884 691 l 2,11,12
 967 586 967 586 1077 500 c 1,13,-1
 851 314 l 1,14,15
 792 442 792 442 709 547 c 2,16,-1
 668 600 l 1,17,-1
 604 547 l 2,18,19
 477 442 477 442 364 314 c 1,20,-1
 216 500 l 1,21,22
 362 586 362 586 491 691 c 2,23,-1
 554 744 l 1,24,-1
 513 797 l 2,25,26
 430 903 430 903 320 988 c 1,27,-1
 547 1174 l 1,0,1
EndSplineSet
Validated: 1
EndChar

StartChar: Oslash
Encoding: 216 216 129
Width: 1766
GlyphClass: 2
Flags: W
HStem: -20 175<740.369 1107.75> 1355 175<978.762 1347.37>
VStem: 201 345<371.409 846.834> 1539 346<662.649 1138.14>
DStem2: 323 73 436 -20 0.674185 0.738562<7.49664 98.3566 399.232 1578.19 1879.55 1972.75>
LayerCount: 2
Fore
SplineSet
879 -20 m 0,0,1
 661 -20 661 -20 508 59 c 1,2,-1
 436 -20 l 1,3,-1
 323 73 l 1,4,-1
 388 144 l 1,5,6
 364 166 364 166 343 191 c 0,7,8
 201 357 201 357 201 582 c 0,9,10
 201 664 201 664 220 755 c 0,11,12
 290 1083 290 1083 580 1315 c 0,13,14
 846 1530 846 1530 1208 1530 c 0,15,16
 1428 1530 1428 1530 1580 1450 c 1,17,-1
 1653 1530 l 1,18,-1
 1766 1437 l 1,19,-1
 1700 1365 l 1,20,21
 1724 1342 1724 1342 1746 1315 c 0,22,23
 1885 1146 1885 1146 1885 926 c 0,24,25
 1885 844 1885 844 1866 755 c 0,26,27
 1795 422 1795 422 1505 191 c 0,28,29
 1239 -20 1239 -20 879 -20 c 0,0,1
916 155 m 0,30,31
 1117 155 1117 155 1291.5 328 c 128,-1,32
 1466 501 1466 501 1520 754 c 0,33,34
 1539 843 1539 843 1539 922 c 0,35,36
 1539 1043 1539 1043 1495 1140 c 1,37,-1
 678 245 l 1,38,39
 771 155 771 155 916 155 c 0,30,31
592 368 m 1,40,-1
 1410 1264 l 1,41,42
 1316 1355 1316 1355 1171 1355 c 0,43,44
 971 1355 971 1355 794 1182 c 0,45,46
 620 1012 620 1012 565 755 c 0,47,48
 546 666 546 666 546 588 c 0,49,50
 546 466 546 466 592 368 c 1,40,-1
EndSplineSet
Validated: 1
EndChar

StartChar: divide
Encoding: 247 247 130
Width: 1173
GlyphClass: 2
Flags: W
HStem: 165 370<570.695 749.305> 612 264<292.959 1196.04> 642 204<300.501 1188.47> 953 370<738.695 917.305>
LayerCount: 2
Fore
SplineSet
867 1323 m 0,0,1
 945 1323 945 1323 985 1269 c 0,2,3
 1014 1230 1014 1230 1014 1179 c 0,4,5
 1014 1159 1014 1159 1010 1138 c 0,6,7
 994 1061 994 1061 929.5 1007 c 128,-1,8
 865 953 865 953 789 953 c 0,9,10
 711 953 711 953 671 1007 c 0,11,12
 642 1046 642 1046 642 1097 c 0,13,14
 642 1117 642 1117 646 1138 c 0,15,16
 662 1215 662 1215 726.5 1269 c 128,-1,17
 791 1323 791 1323 867 1323 c 0,0,1
621 165 m 0,18,19
 543 165 543 165 503 219 c 0,20,21
 474 258 474 258 474 309 c 0,22,23
 474 329 474 329 478 350 c 0,24,25
 494 427 494 427 558.5 481 c 128,-1,26
 623 535 623 535 699 535 c 0,27,28
 777 535 777 535 817 481 c 0,29,30
 846 442 846 442 846 391 c 0,31,32
 846 371 846 371 842 350 c 0,33,34
 826 273 826 273 761.5 219 c 128,-1,35
 697 165 697 165 621 165 c 0,18,19
296 876 m 1,36,37
 440 846 440 846 590 846 c 2,38,-1
 943 846 l 2,39,40
 1091 846 1091 846 1249 876 c 1,41,-1
 1193 612 l 1,42,43
 1048 642 1048 642 899 642 c 2,44,-1
 546 642 l 2,45,46
 396 642 396 642 240 612 c 1,47,-1
 296 876 l 1,36,37
EndSplineSet
Validated: 1
EndChar

StartChar: oslash
Encoding: 248 248 131
Width: 1368
GlyphClass: 2
Flags: W
HStem: -20 155<580.765 863.925> 965 155<738.223 1019.95>
VStem: 163 327<324.155 648.202> 1112 327<449.693 768.219>
DStem2: 271 73 384 -20 0.673901 0.738821<7.44043 48.4701 336.942 1077.73 1370.95 1417.12>
LayerCount: 2
Fore
SplineSet
679 -20 m 0,0,1
 536 -20 536 -20 427 27 c 1,2,-1
 384 -20 l 1,3,-1
 271 73 l 1,4,-1
 302 107 l 1,5,6
 284 123 284 123 268 142 c 0,7,8
 163 259 163 259 163 423 c 0,9,10
 163 483 163 483 177 550 c 0,11,12
 230 800 230 800 444 960 c 0,13,14
 659 1120 659 1120 921 1120 c 0,15,16
 1070 1120 1070 1120 1181 1070 c 1,17,-1
 1226 1120 l 1,18,-1
 1339 1027 l 1,19,-1
 1304 989 l 1,20,21
 1319 975 1319 975 1334 959 c 0,22,23
 1439 842 1439 842 1439 678 c 0,24,25
 1439 617 1439 617 1425 550 c 0,26,27
 1372 301 1372 301 1158 141 c 0,28,29
 944 -20 944 -20 679 -20 c 0,0,1
712 135 m 0,30,31
 840 135 840 135 950 248 c 0,32,33
 1054 354 1054 354 1095 550 c 0,34,35
 1112 630 1112 630 1112 695 c 0,36,37
 1112 736 1112 736 1105 771 c 1,38,-1
 572 187 l 1,39,40
 628 135 628 135 712 135 c 0,30,31
498 322 m 1,41,-1
 1034 909 l 1,42,43
 976 965 976 965 888 965 c 0,44,45
 764 965 764 965 652 852 c 0,46,47
 549 748 549 748 507 550 c 0,48,49
 490 471 490 471 490 406 c 0,50,51
 490 361 490 361 498 322 c 1,41,-1
EndSplineSet
Validated: 1
EndChar

StartChar: endash
Encoding: 8211 8211 132
Width: 1173
GlyphClass: 2
Flags: W
HStem: 612 264<292.959 1196.04> 642 204<300.501 1188.47>
LayerCount: 2
Fore
SplineSet
296 876 m 1,0,1
 440 846 440 846 590 846 c 2,2,-1
 943 846 l 2,3,4
 1091 846 1091 846 1249 876 c 1,5,-1
 1193 612 l 1,6,7
 1048 642 1048 642 899 642 c 2,8,-1
 546 642 l 2,9,10
 396 642 396 642 240 612 c 1,11,-1
 296 876 l 1,0,1
EndSplineSet
Validated: 1
EndChar

StartChar: emdash
Encoding: 8212 8212 133
Width: 1473
GlyphClass: 2
Flags: W
HStem: 612 264<292.959 841.891 892.906 896.094 947.109 1496.04> 642 204<300.501 1488.47>
LayerCount: 2
Fore
SplineSet
296 876 m 1,0,1
 440 846 440 846 590 846 c 2,2,-1
 1243 846 l 2,3,4
 1391 846 1391 846 1549 876 c 1,5,-1
 1493 612 l 1,6,7
 1348 642 1348 642 1199 642 c 2,8,-1
 546 642 l 2,9,10
 396 642 396 642 240 612 c 1,11,-1
 296 876 l 1,0,1
EndSplineSet
Validated: 1
EndChar

StartChar: afii00208
Encoding: 8213 8213 134
Width: 1473
GlyphClass: 2
Flags: W
HStem: 612 264<292.959 841.891 892.906 896.094 947.109 1496.04> 642 204<300.501 1488.47>
LayerCount: 2
Fore
SplineSet
296 876 m 1,0,1
 440 846 440 846 590 846 c 2,2,-1
 1243 846 l 2,3,4
 1391 846 1391 846 1549 876 c 1,5,-1
 1493 612 l 1,6,7
 1348 642 1348 642 1199 642 c 2,8,-1
 546 642 l 2,9,10
 396 642 396 642 240 612 c 1,11,-1
 296 876 l 1,0,1
EndSplineSet
Validated: 1
EndChar

StartChar: quoteleft
Encoding: 8216 8216 135
Width: 378
GlyphClass: 2
Flags: W
HStem: 949 621
VStem: 266 251<1128 1286.93>
LayerCount: 2
Fore
SplineSet
692 1570 m 1,0,-1
 690 1560 l 1,1,2
 557 1440 557 1440 523 1282 c 0,3,4
 517 1254 517 1254 517 1231 c 0,5,6
 517 1153 517 1153 581 1118 c 1,7,-1
 376 949 l 1,8,9
 266 1013 266 1013 266 1128 c 0,10,11
 266 1156 266 1156 272 1187 c 0,12,13
 324 1430 324 1430 692 1570 c 1,0,-1
EndSplineSet
Validated: 1
EndChar

StartChar: quoteright
Encoding: 8217 8217 136
Width: 378
GlyphClass: 2
Flags: W
HStem: 949 621
VStem: 396 252<1232.07 1392>
LayerCount: 2
Fore
SplineSet
538 1570 m 1,0,1
 648 1507 648 1507 648 1392 c 0,2,3
 648 1364 648 1364 641 1332 c 0,4,5
 589 1089 589 1089 222 949 c 1,6,-1
 224 959 l 1,7,8
 357 1079 357 1079 390 1237 c 0,9,10
 396 1265 396 1265 396 1289 c 0,11,12
 396 1367 396 1367 333 1401 c 1,13,-1
 538 1570 l 1,0,1
EndSplineSet
Validated: 1
EndChar

StartChar: quotesinglbase
Encoding: 8218 8218 137
Width: 378
GlyphClass: 2
Flags: W
HStem: -312 621
VStem: 128 252<-28.9282 131>
LayerCount: 2
Fore
SplineSet
270 309 m 1,0,1
 380 246 380 246 380 131 c 0,2,3
 380 103 380 103 373 71 c 0,4,5
 321 -172 321 -172 -46 -312 c 1,6,-1
 -44 -302 l 1,7,8
 89 -182 89 -182 122 -24 c 0,9,10
 128 4 128 4 128 28 c 0,11,12
 128 106 128 106 65 140 c 1,13,-1
 270 309 l 1,0,1
EndSplineSet
Validated: 1
EndChar

StartChar: quotereversed
Encoding: 8219 8219 138
Width: 378
GlyphClass: 2
Flags: W
HStem: 949 621
VStem: 296 208<1118.71 1324.31>
LayerCount: 2
Fore
SplineSet
508 1570 m 1,0,1
 641 1401 l 1,2,3
 539 1356 539 1356 514 1237 c 0,4,5
 504 1191 504 1191 504 1148 c 0,6,7
 504 1044 504 1044 562 959 c 1,8,-1
 560 949 l 1,9,10
 296 1069 296 1069 296 1265 c 0,11,12
 296 1297 296 1297 303 1332 c 0,13,14
 337 1491 337 1491 508 1570 c 1,0,1
EndSplineSet
Validated: 1
EndChar

StartChar: quotedblleft
Encoding: 8220 8220 139
Width: 720
GlyphClass: 2
Flags: W
HStem: 949 621
VStem: 266 251<1128 1286.93> 608 251<1128 1286.93>
LayerCount: 2
Fore
SplineSet
692 1570 m 1,0,-1
 690 1560 l 1,1,2
 557 1440 557 1440 523 1282 c 0,3,4
 517 1254 517 1254 517 1231 c 0,5,6
 517 1153 517 1153 581 1118 c 1,7,-1
 376 949 l 1,8,9
 266 1013 266 1013 266 1128 c 0,10,11
 266 1156 266 1156 272 1187 c 0,12,13
 324 1430 324 1430 692 1570 c 1,0,-1
1034 1570 m 1,14,-1
 1032 1560 l 1,15,16
 899 1440 899 1440 865 1282 c 0,17,18
 859 1254 859 1254 859 1231 c 0,19,20
 859 1153 859 1153 923 1118 c 1,21,-1
 718 949 l 1,22,23
 608 1013 608 1013 608 1128 c 0,24,25
 608 1156 608 1156 614 1187 c 0,26,27
 666 1430 666 1430 1034 1570 c 1,14,-1
EndSplineSet
Validated: 1
EndChar

StartChar: quotedblright
Encoding: 8221 8221 140
Width: 720
GlyphClass: 2
Flags: W
HStem: 949 621
VStem: 396 252<1232.07 1392> 738 252<1232.07 1392>
LayerCount: 2
Fore
SplineSet
880 1570 m 1,0,1
 990 1507 990 1507 990 1392 c 0,2,3
 990 1364 990 1364 983 1332 c 0,4,5
 931 1089 931 1089 564 949 c 1,6,-1
 566 959 l 1,7,8
 699 1079 699 1079 732 1237 c 0,9,10
 738 1265 738 1265 738 1289 c 0,11,12
 738 1367 738 1367 675 1401 c 1,13,-1
 880 1570 l 1,0,1
538 1570 m 1,14,15
 648 1507 648 1507 648 1392 c 0,16,17
 648 1364 648 1364 641 1332 c 0,18,19
 589 1089 589 1089 222 949 c 1,20,-1
 224 959 l 1,21,22
 357 1079 357 1079 390 1237 c 0,23,24
 396 1265 396 1265 396 1289 c 0,25,26
 396 1367 396 1367 333 1401 c 1,27,-1
 538 1570 l 1,14,15
EndSplineSet
Validated: 1
EndChar

StartChar: quotedblbase
Encoding: 8222 8222 141
Width: 720
GlyphClass: 2
Flags: W
HStem: -312 621
VStem: 128 252<-28.9282 131> 470 252<-28.9282 131>
LayerCount: 2
Fore
SplineSet
612 309 m 1,0,1
 722 246 722 246 722 131 c 0,2,3
 722 103 722 103 715 71 c 0,4,5
 663 -172 663 -172 296 -312 c 1,6,-1
 298 -302 l 1,7,8
 431 -182 431 -182 464 -24 c 0,9,10
 470 4 470 4 470 28 c 0,11,12
 470 106 470 106 407 140 c 1,13,-1
 612 309 l 1,0,1
270 309 m 1,14,15
 380 246 380 246 380 131 c 0,16,17
 380 103 380 103 373 71 c 0,18,19
 321 -172 321 -172 -46 -312 c 1,20,-1
 -44 -302 l 1,21,22
 89 -182 89 -182 122 -24 c 0,23,24
 128 4 128 4 128 28 c 0,25,26
 128 106 128 106 65 140 c 1,27,-1
 270 309 l 1,14,15
EndSplineSet
Validated: 1
EndChar

StartChar: dagger
Encoding: 8224 8224 142
Width: 1173
GlyphClass: 2
Flags: W
HStem: 0 21G<416 756> 947 265<364.916 651.692 980.247 1267.08> 977 205<372.501 654 977 1259.47> 1490 20G<735 1077>
DStem2: 446.332 0 726.332 0 0.207912 0.978148<68.6694 998.827 1266.5 1532.58>
LayerCount: 2
Fore
SplineSet
416 0 m 1,0,1
 477 145 477 145 510 300 c 2,2,-1
 654 977 l 1,3,-1
 618 977 l 2,4,5
 468 977 468 977 311 947 c 1,6,-1
 368 1212 l 1,7,8
 512 1182 512 1182 661 1182 c 2,9,-1
 697 1182 l 1,10,-1
 703 1210 l 2,11,12
 733 1352 733 1352 737 1510 c 1,13,-1
 1077 1510 l 1,14,15
 1013 1349 1013 1349 983 1210 c 2,16,-1
 977 1182 l 1,17,-1
 1014 1182 l 2,18,19
 1162 1182 1162 1182 1321 1212 c 1,20,-1
 1264 947 l 1,21,22
 1119 977 1119 977 971 977 c 2,23,-1
 934 977 l 1,24,-1
 790 300 l 2,25,26
 756 140 756 140 756 0 c 1,27,-1
 416 0 l 1,0,1
EndSplineSet
Validated: 1
EndChar

StartChar: daggerdbl
Encoding: 8225 8225 143
Width: 1173
GlyphClass: 2
Flags: W
HStem: 0 21G<416 759> 298 265<226.916 513.753 842.308 1129.08> 328 205<234.532 516 840 1121.5> 947 265<364.916 651.692 980.247 1267.08> 977 205<372.501 654 978 1259.47> 1490 20G<734.5 1078>
DStem2: 446.281 0 727.281 0 0.207912 0.978148<69.4852 335.328 603.211 998.837 1266.72 1532.47>
LayerCount: 2
Fore
SplineSet
416 0 m 1,0,1
 479 157 479 157 510 300 c 2,2,-1
 516 328 l 1,3,-1
 480 328 l 2,4,5
 332 328 332 328 173 298 c 1,6,-1
 230 563 l 1,7,8
 375 533 375 533 523 533 c 2,9,-1
 559 533 l 1,10,-1
 654 977 l 1,11,-1
 618 977 l 2,12,13
 468 977 468 977 311 947 c 1,14,-1
 368 1212 l 1,15,16
 512 1182 512 1182 661 1182 c 2,17,-1
 697 1182 l 1,18,-1
 703 1210 l 2,19,20
 732 1348 732 1348 737 1510 c 1,21,-1
 1078 1510 l 1,22,23
 1013 1347 1013 1347 984 1210 c 2,24,-1
 978 1182 l 1,25,-1
 1014 1182 l 2,26,27
 1162 1182 1162 1182 1321 1212 c 1,28,-1
 1264 947 l 1,29,30
 1119 977 1119 977 971 977 c 2,31,-1
 935 977 l 1,32,-1
 840 533 l 1,33,-1
 876 533 l 2,34,35
 1026 533 1026 533 1183 563 c 1,36,-1
 1126 298 l 1,37,38
 982 328 982 328 833 328 c 2,39,-1
 797 328 l 1,40,-1
 791 300 l 2,41,42
 761 159 761 159 757 0 c 1,43,-1
 416 0 l 1,0,1
EndSplineSet
Validated: 1
EndChar

StartChar: bullet
Encoding: 8226 8226 144
Width: 949
GlyphClass: 2
Flags: W
HStem: 384 740<528.106 740.894>
LayerCount: 2
Fore
SplineSet
713 1124 m 128,-1,1
 865 1124 865 1124 948 1016 c 0,2,3
 1008 938 1008 938 1008 837 c 0,4,5
 1008 796 1008 796 999 753 c 0,6,7
 967 599 967 599 837.5 491.5 c 128,-1,8
 708 384 708 384 556 384 c 128,-1,9
 404 384 404 384 321 492 c 0,10,11
 261 570 261 570 261 671 c 0,12,13
 261 713 261 713 270 754 c 0,14,15
 302 908 302 908 431.5 1016 c 128,-1,0
 561 1124 561 1124 713 1124 c 128,-1,1
EndSplineSet
Validated: 1
EndChar

StartChar: ellipsis
Encoding: 8230 8230 145
Width: 1234
GlyphClass: 2
Flags: W
HStem: -20 370<147.695 326.305 563.695 742.305 977.695 1156.31>
LayerCount: 2
Fore
SplineSet
1028 -20 m 0,0,1
 950 -20 950 -20 910 34 c 0,2,3
 881 73 881 73 881 124 c 0,4,5
 881 144 881 144 885 165 c 0,6,7
 901 242 901 242 965.5 296 c 128,-1,8
 1030 350 1030 350 1106 350 c 0,9,10
 1184 350 1184 350 1224 296 c 0,11,12
 1253 257 1253 257 1253 206 c 0,13,14
 1253 186 1253 186 1249 165 c 0,15,16
 1233 88 1233 88 1168.5 34 c 128,-1,17
 1104 -20 1104 -20 1028 -20 c 0,0,1
614 -20 m 0,18,19
 536 -20 536 -20 496 34 c 0,20,21
 467 73 467 73 467 124 c 0,22,23
 467 144 467 144 471 165 c 0,24,25
 487 242 487 242 551.5 296 c 128,-1,26
 616 350 616 350 692 350 c 0,27,28
 770 350 770 350 810 296 c 0,29,30
 839 257 839 257 839 206 c 0,31,32
 839 186 839 186 835 165 c 0,33,34
 819 88 819 88 754.5 34 c 128,-1,35
 690 -20 690 -20 614 -20 c 0,18,19
198 -20 m 0,36,37
 120 -20 120 -20 80 34 c 0,38,39
 51 73 51 73 51 124 c 0,40,41
 51 144 51 144 55 165 c 0,42,43
 71 242 71 242 135.5 296 c 128,-1,44
 200 350 200 350 276 350 c 0,45,46
 354 350 354 350 394 296 c 0,47,48
 423 257 423 257 423 206 c 0,49,50
 423 186 423 186 419 165 c 0,51,52
 403 88 403 88 338.5 34 c 128,-1,53
 274 -20 274 -20 198 -20 c 0,36,37
EndSplineSet
Validated: 1
EndChar

StartChar: perthousand
Encoding: 8240 8240 146
Width: 2515
GlyphClass: 2
Flags: W
HStem: -20 160<1214.76 1411.81 1984.76 2181.81> 0 21G<382 700.5> 530 160<1278.49 1475.73 2048.49 2245.73> 820 160<589.761 786.809> 1370 160<653.491 850.733> 1490 20G<1366.5 1683>
VStem: 354 206<1037 1268.25> 880 207<1081.75 1313.97> 979 206<197.004 428.249> 1505 207<241.751 473.965> 1749 206<197.004 428.249> 2275 207<241.751 473.965>
DStem2: 1240 1225 1474 1251 0.557671 0.830062<-1332.75 321.31>
LayerCount: 2
Fore
SplineSet
2040 -20 m 0,0,1
 1899 -20 1899 -20 1817 77 c 0,2,3
 1749 157 1749 157 1749 267 c 0,4,5
 1749 300 1749 300 1755 335 c 0,6,7
 1780 483 1780 483 1918 595 c 0,8,9
 2035 690 2035 690 2191 690 c 0,10,11
 2332 690 2332 690 2414 593 c 0,12,13
 2482 513 2482 513 2482 403 c 0,14,15
 2482 370 2482 370 2476 335 c 0,16,17
 2451 187 2451 187 2313 75 c 0,18,19
 2196 -20 2196 -20 2040 -20 c 0,0,1
2156 530 m 0,20,21
 2090 530 2090 530 2036 475 c 0,22,23
 1980 420 1980 420 1962 336 c 0,24,25
 1955 303 1955 303 1955 276 c 0,26,27
 1955 228 1955 228 1976 196 c 0,28,29
 2013 140 2013 140 2073 140 c 0,30,31
 2138 140 2138 140 2194 195.5 c 128,-1,32
 2250 251 2250 251 2268 336 c 0,33,34
 2275 368 2275 368 2275 395 c 0,35,36
 2275 442 2275 442 2254 475 c 0,37,38
 2217 530 2217 530 2156 530 c 0,20,21
1270 -20 m 0,39,40
 1129 -20 1129 -20 1047 77 c 0,41,42
 979 157 979 157 979 267 c 0,43,44
 979 300 979 300 985 335 c 0,45,46
 1010 483 1010 483 1148 595 c 0,47,48
 1265 690 1265 690 1421 690 c 0,49,50
 1562 690 1562 690 1644 593 c 0,51,52
 1712 513 1712 513 1712 403 c 0,53,54
 1712 370 1712 370 1706 335 c 0,55,56
 1681 187 1681 187 1543 75 c 0,57,58
 1426 -20 1426 -20 1270 -20 c 0,39,40
1386 530 m 0,59,60
 1320 530 1320 530 1266 475 c 0,61,62
 1210 420 1210 420 1192 336 c 0,63,64
 1185 303 1185 303 1185 276 c 0,65,66
 1185 228 1185 228 1206 196 c 0,67,68
 1243 140 1243 140 1303 140 c 0,69,70
 1368 140 1368 140 1424 195.5 c 128,-1,71
 1480 251 1480 251 1498 336 c 0,72,73
 1505 368 1505 368 1505 395 c 0,74,75
 1505 442 1505 442 1484 475 c 0,76,77
 1447 530 1447 530 1386 530 c 0,59,60
796 1530 m 0,78,79
 937 1530 937 1530 1019 1433 c 0,80,81
 1087 1353 1087 1353 1087 1243 c 0,82,83
 1087 1210 1087 1210 1081 1175 c 0,84,85
 1056 1027 1056 1027 918 915 c 0,86,87
 801 820 801 820 645 820 c 0,88,89
 504 820 504 820 422 917 c 0,90,91
 354 997 354 997 354 1107 c 0,92,93
 354 1140 354 1140 360 1175 c 0,94,95
 385 1323 385 1323 523 1435 c 0,96,97
 640 1530 640 1530 796 1530 c 0,78,79
761 1370 m 0,98,99
 695 1370 695 1370 641 1315 c 0,100,101
 585 1260 585 1260 567 1176 c 0,102,103
 560 1143 560 1143 560 1116 c 0,104,105
 560 1068 560 1068 581 1036 c 0,106,107
 618 980 618 980 678 980 c 0,108,109
 743 980 743 980 799 1035.5 c 128,-1,110
 855 1091 855 1091 873 1176 c 0,111,112
 880 1208 880 1208 880 1235 c 0,113,114
 880 1282 880 1282 859 1315 c 0,115,116
 822 1370 822 1370 761 1370 c 0,98,99
382 0 m 1,117,118
 498 120 498 120 591 259 c 10,119,-1
 1240 1225 l 2,120,121
 1332 1362 1332 1362 1401 1510 c 1,122,-1
 1683 1510 l 1,123,124
 1572 1397 1572 1397 1474 1251 c 2,125,-1
 825 285 l 2,126,127
 737 155 737 155 664 0 c 1,128,-1
 382 0 l 1,117,118
EndSplineSet
Validated: 1
EndChar

StartChar: minute
Encoding: 8242 8242 147
Width: 483
GlyphClass: 2
Flags: W
HStem: 1100 430<473.24 510.514>
VStem: 254 534
LayerCount: 2
Fore
SplineSet
478 1530 m 1,0,-1
 788 1530 l 1,1,2
 607 1317 607 1317 504 1100 c 1,3,-1
 254 1100 l 1,4,5
 403 1318 403 1318 478 1530 c 1,0,-1
EndSplineSet
Validated: 1
EndChar

StartChar: second
Encoding: 8243 8243 148
Width: 829
GlyphClass: 2
Flags: W
HStem: 1100 430<473.24 510.514 819.24 856.514>
LayerCount: 2
Fore
SplineSet
824 1530 m 1,0,-1
 1134 1530 l 1,1,2
 953 1317 953 1317 850 1100 c 1,3,-1
 600 1100 l 1,4,5
 749 1318 749 1318 824 1530 c 1,0,-1
478 1530 m 1,6,-1
 788 1530 l 1,7,8
 607 1317 607 1317 504 1100 c 1,9,-1
 254 1100 l 1,10,11
 403 1318 403 1318 478 1530 c 1,6,-1
EndSplineSet
Validated: 1
EndChar

StartChar: guilsinglleft
Encoding: 8249 8249 149
Width: 911
GlyphClass: 2
Flags: W
DStem2: 499 747 219 747 0.456869 -0.889534<0 434.727> 460 1007 499 747 0.684436 0.729073<-162.866 326.082>
LayerCount: 2
Fore
SplineSet
664 1270 m 1,0,-1
 1021 1270 l 1,1,2
 879 1151 879 1151 775 1041 c 2,3,-1
 499 747 l 1,4,-1
 650 453 l 2,5,6
 705 346 705 346 799 224 c 1,7,-1
 442 224 l 1,8,9
 410 368 410 368 350 487 c 2,10,-1
 219 747 l 1,11,-1
 460 1007 l 2,12,13
 570 1126 570 1126 664 1270 c 1,0,-1
EndSplineSet
Validated: 1
EndChar

StartChar: guilsinglright
Encoding: 8250 8250 150
Width: 911
GlyphClass: 2
Flags: W
DStem2: 730 747 769 487 0.685751 0.727836<-488.519 0> 879 1007 730 747 0.459259 -0.888303<-271.421 162.529>
LayerCount: 2
Fore
SplineSet
787 1270 m 1,0,1
 819 1126 819 1126 879 1007 c 2,2,-1
 1010 747 l 1,3,-1
 769 487 l 2,4,5
 659 368 659 368 565 224 c 1,6,-1
 208 224 l 1,7,8
 353 346 353 346 453 453 c 2,9,-1
 730 747 l 1,10,-1
 578 1041 l 2,11,12
 521 1151 521 1151 430 1270 c 1,13,-1
 787 1270 l 1,0,1
EndSplineSet
Validated: 1
EndChar

StartChar: fraction
Encoding: 8260 8260 151
Width: 1000
GlyphClass: 2
Flags: W
HStem: 0 21G<10 328.5> 1490 20G<994.5 1311>
DStem2: 868 1225 1102 1251 0.557671 0.830062<-1332.75 321.31>
LayerCount: 2
Fore
SplineSet
10 0 m 1,0,1
 126 120 126 120 219 259 c 10,2,-1
 868 1225 l 2,3,4
 960 1362 960 1362 1029 1510 c 1,5,-1
 1311 1510 l 1,6,7
 1200 1397 1200 1397 1102 1251 c 2,8,-1
 453 285 l 2,9,10
 365 155 365 155 292 0 c 1,11,-1
 10 0 l 1,0,1
EndSplineSet
Validated: 1
EndChar

StartChar: Euro
Encoding: 8364 8364 152
Width: 1766
GlyphClass: 2
Flags: W
HStem: -20 175<869.622 1301.34> 512 204<208.978 299.968 771.156 1275.02> 542 144<655 1267.47> 788 204<267.908 331.375 829.812 1333.09> 818 144<737 1325.47> 1355 175<1109.54 1539.2>
LayerCount: 2
Fore
SplineSet
1030 -20 m 0,0,1
 644 -20 644 -20 452 200 c 0,2,3
 324 347 324 347 302 532 c 1,4,5
 237 525 237 525 169 512 c 1,6,-1
 212 716 l 1,7,8
 261 706 261 706 312 699 c 1,9,10
 316 727 316 727 321 755 c 0,11,12
 326 780 326 780 333 805 c 1,13,14
 281 798 281 798 227 788 c 1,15,-1
 271 992 l 1,16,17
 332 979 332 979 395 972 c 1,18,19
 491 1175 491 1175 682 1319 c 0,20,21
 964 1530 964 1530 1359 1530 c 0,22,23
 1676 1530 1676 1530 1880 1385 c 1,24,-1
 1803 1020 l 1,25,-1
 1792 1020 l 1,26,27
 1667 1355 1667 1355 1321 1355 c 0,28,29
 1092 1355 1092 1355 897 1174 c 0,30,31
 799 1083 799 1083 737 962 c 1,32,-1
 1067 962 l 2,33,34
 1215 962 1215 962 1374 992 c 1,35,-1
 1330 788 l 1,36,37
 1185 818 1185 818 1037 818 c 2,38,-1
 682 818 l 1,39,40
 673 787 673 787 666 755 c 0,41,42
 659 720 659 720 655 686 c 1,43,-1
 1009 686 l 2,44,45
 1157 686 1157 686 1315 716 c 1,46,-1
 1272 512 l 1,47,48
 1127 542 1127 542 978 542 c 2,49,-1
 650 542 l 1,50,51
 660 425 660 425 718 338 c 0,52,53
 839 155 839 155 1058 155 c 0,54,55
 1403 155 1403 155 1699 490 c 1,56,-1
 1710 490 l 1,57,-1
 1646 186 l 1,58,59
 1365 -20 1365 -20 1030 -20 c 0,0,1
EndSplineSet
Validated: 1
EndChar

StartChar: afii61248
Encoding: 8453 8453 153
Width: 2018
GlyphClass: 2
Flags: W
HStem: -20 126<1394.21 1628.79> 0 21G<499 817.5> 678 128<1495.63 1730.91> 694 126<615.33 901.902> 1402 128<722.424 1004.63> 1490 20G<1483.5 1800>
VStem: 336 212<888.296 1214.64> 1123 210<168.797 492.871> 1791 211<289.052 616.062>
DStem2: 1357 1225 1591 1251 0.557671 0.830062<-1332.75 321.31>
LayerCount: 2
Fore
SplineSet
499 0 m 1,0,1
 615 120 615 120 708 259 c 10,2,-1
 1357 1225 l 2,3,4
 1449 1362 1449 1362 1518 1510 c 1,5,-1
 1800 1510 l 1,6,7
 1689 1397 1689 1397 1591 1251 c 2,8,-1
 942 285 l 2,9,10
 854 155 854 155 781 0 c 1,11,-1
 499 0 l 1,0,1
1475 -20 m 0,12,13
 1281 -20 1281 -20 1187 102 c 0,14,15
 1123 186 1123 186 1123 297 c 0,16,17
 1123 343 1123 343 1134 393 c 0,18,19
 1172 571 1172 571 1310 683 c 0,20,21
 1461 806 1461 806 1650 806 c 0,22,23
 1842 806 1842 806 1938 683 c 0,24,25
 2002 599 2002 599 2002 487 c 0,26,27
 2002 442 2002 442 1992 393 c 0,28,29
 1954 215 1954 215 1815 102 c 0,30,31
 1664 -20 1664 -20 1475 -20 c 0,12,13
1502 106 m 0,32,33
 1592 106 1592 106 1674 187.5 c 152,-1,34
 1756 269 1756 269 1782 392 c 0,35,36
 1791 434 1791 434 1791 472 c 0,37,38
 1791 540 1791 540 1762 594 c 0,39,40
 1716 678 1716 678 1623 678 c 128,-1,41
 1530 678 1530 678 1451 597 c 0,42,43
 1368 513 1368 513 1342 392 c 0,44,45
 1333 350 1333 350 1333 313 c 0,46,47
 1334 244 1334 244 1364 190 c 0,48,49
 1410 106 1410 106 1502 106 c 0,32,33
850 1530 m 0,50,51
 1011 1530 1011 1530 1124 1453 c 1,52,-1
 1078 1237 l 1,53,-1
 1068 1237 l 1,54,55
 1056 1280 1056 1280 1041 1309 c 0,56,57
 995 1402 995 1402 885 1402 c 0,58,59
 758 1402 758 1402 667 1317 c 0,60,61
 585 1240 585 1240 557 1111 c 0,62,63
 548 1070 548 1070 548 1033 c 0,64,65
 548 962 548 962 580 906 c 0,66,67
 628 820 628 820 771 820 c 0,68,69
 897 820 897 820 1055 993 c 1,70,-1
 1065 993 l 1,71,-1
 1026 808 l 1,72,73
 867 694 867 694 683 694 c 0,74,75
 496 694 496 694 402 819 c 0,76,77
 336 907 336 907 336 1019 c 0,78,79
 336 1064 336 1064 347 1114 c 0,80,81
 383 1284 383 1284 526 1404 c 0,82,83
 678 1530 678 1530 850 1530 c 0,50,51
EndSplineSet
Validated: 1
EndChar

StartChar: afii61289
Encoding: 8467 8467 154
Width: 1247
GlyphClass: 2
Flags: W
HStem: -20 236<632 800.645> 0 21G<110 490.364> 1510 20G<1129.5 1227>
LayerCount: 2
Fore
SplineSet
686 -20 m 0,0,1
 578 -20 578 -20 510 44 c 1,2,-1
 474 0 l 1,3,-1
 110 0 l 1,4,5
 306 162 306 162 444 325 c 1,6,7
 453 420 453 420 475 524 c 0,8,9
 509 686 509 686 595 865 c 0,10,11
 773 1240 773 1240 963 1423 c 0,12,13
 1074 1530 1074 1530 1185 1530 c 0,14,15
 1269 1530 1269 1530 1309 1480 c 0,16,17
 1341 1439 1341 1439 1341 1371 c 0,18,19
 1341 1331 1341 1331 1330 1281 c 0,20,21
 1310 1186 1310 1186 1250 1041 c 0,22,23
 1105 688 1105 688 734 272 c 1,24,25
 731 254 731 254 731 242 c 0,26,27
 731 216 731 216 745 216 c 0,28,29
 766 216 766 216 800 260 c 0,30,31
 821 286 821 286 839 319 c 1,32,-1
 1155 319 l 1,33,34
 1025 144 1025 144 910.5 62 c 128,-1,35
 796 -20 796 -20 686 -20 c 0,0,1
EndSplineSet
Validated: 1
EndChar

StartChar: trademark
Encoding: 8482 8482 155
Width: 1778
GlyphClass: 2
Flags: W
HStem: 1403 127<345 533 726.807 945.215>
VStem: 370 245<730 846.333> 533 205<1204.97 1403> 809 217<730 818.309> 1054 201<1311.28 1530> 1214 187<730 819.615>
DStem2: 393.165 730 593.165 730 0.207912 0.978148<49.2045 686.558> 887 908 1058 911 0.290306 0.956934<-128.222 306.24> 1370 976 1491 894 0.564911 0.825152<0 308.575> 1636 911 1832 908 0.122662 0.992448<-60.6196 238.767>
LayerCount: 2
Fore
SplineSet
1054 1530 m 1,0,-1
 1255 1530 l 1,1,2
 1255 1444 1255 1444 1274 1366 c 2,3,-1
 1370 976 l 1,4,-1
 1637 1366 l 2,5,6
 1686 1437 1686 1437 1727 1530 c 1,7,-1
 1930 1530 l 1,8,9
 1909 1472 1909 1472 1900 1429 c 128,-1,10
 1891 1386 1891 1386 1887 1353 c 2,11,-1
 1832 908 l 2,12,13
 1827 867 1827 867 1827 825 c 0,14,15
 1827 778 1827 778 1833 730 c 1,16,-1
 1591 730 l 1,17,18
 1612 788 1612 788 1622 833.5 c 128,-1,19
 1632 879 1632 879 1636 911 c 2,20,-1
 1665 1148 l 1,21,-1
 1491 894 l 2,22,23
 1436 814 1436 814 1401 730 c 1,24,-1
 1214 730 l 1,25,26
 1214 817 1214 817 1195 894 c 2,27,-1
 1131 1154 l 1,28,-1
 1058 911 l 2,29,30
 1051 886 1051 886 1040 837 c 128,-1,31
 1029 788 1029 788 1026 730 c 1,32,-1
 809 730 l 1,33,34
 860 820 860 820 887 908 c 2,35,-1
 1022 1353 l 2,36,37
 1029 1378 1029 1378 1035.5 1408.5 c 128,-1,38
 1042 1439 1042 1439 1054 1530 c 1,0,-1
345 1530 m 1,39,-1
 980 1530 l 1,40,-1
 948 1377 l 1,41,42
 859 1403 859 1403 753 1403 c 2,43,-1
 738 1403 l 1,44,45
 730 1375 730 1375 725 1350 c 2,46,-1
 631 908 l 2,47,48
 615 831 615 831 615 730 c 1,49,-1
 370 730 l 1,50,51
 413 824 413 824 431 908 c 2,52,-1
 525 1350 l 2,53,54
 531 1377 531 1377 533 1403 c 1,55,-1
 518 1403 l 2,56,57
 423 1403 423 1403 313 1377 c 1,58,-1
 345 1530 l 1,39,-1
EndSplineSet
Validated: 1
EndChar

StartChar: uni2126
Encoding: 8486 8486 156
Width: 1863
GlyphClass: 2
Flags: W
HStem: 0 240<67.9536 403.949 1545.47 1843> 0 200<75.5432 410 751 823 1540 1843> 1355 175<1029.1 1397.1>
VStem: 256 340<381.959 845.518> 1589 346<666.545 1139.03>
LayerCount: 2
Fore
SplineSet
20 0 m 1,0,-1
 71 240 l 1,1,2
 216 200 216 200 410 200 c 1,3,4
 404 206 404 206 399 212 c 0,5,6
 256 393 256 393 256 611 c 0,7,8
 256 686 256 686 273 765 c 0,9,10
 340 1081 340 1081 630 1315 c 0,11,12
 897 1530 897 1530 1258.5 1530 c 128,-1,13
 1620 1530 1620 1530 1796 1315 c 0,14,15
 1935 1146 1935 1146 1935 926 c 0,16,17
 1935 844 1935 844 1916 755 c 0,18,19
 1853 459 1853 459 1554 212 c 0,20,21
 1547 206 1547 206 1540 200 c 1,22,23
 1715 200 1715 200 1894 240 c 1,24,-1
 1843 0 l 1,25,-1
 1041 0 l 1,26,-1
 1081 186 l 1,27,28
 1258 246 1258 246 1342 328 c 0,29,30
 1517 501 1517 501 1570 754 c 0,31,32
 1589 843 1589 843 1589 922 c 0,33,34
 1589 1070 1589 1070 1523 1182 c 0,35,36
 1421 1355 1421 1355 1221 1355 c 128,-1,37
 1021 1355 1021 1355 844 1182 c 0,38,39
 670 1012 670 1012 615 755 c 0,40,41
 596 664 596 664 596 584 c 0,42,43
 596 438 596 438 661 332 c 0,44,45
 714 246 714 246 863 186 c 1,46,-1
 823 0 l 1,47,-1
 20 0 l 1,0,-1
EndSplineSet
Validated: 1
EndChar

StartChar: estimated
Encoding: 8494 8494 157
Width: 1241
GlyphClass: 2
Flags: W
HStem: -20 183<484.071 844.178> 491 189<538 990> 935 185<629.618 988.502>
LayerCount: 2
Fore
SplineSet
615 -20 m 0,0,1
 364 -20 364 -20 245 145 c 0,2,3
 162 260 162 260 162 412 c 0,4,5
 162 479 162 479 178 553 c 0,6,7
 231 802 231 802 420 960 c 0,8,9
 612 1120 612 1120 854 1120 c 0,10,11
 1097 1120 1097 1120 1214 974 c 0,12,13
 1306 858 1306 858 1306 679 c 0,14,15
 1306 593 1306 593 1285 491 c 1,16,-1
 497 491 l 1,17,-1
 444 239 l 1,18,19
 523 163 523 163 654 163 c 0,20,21
 862 163 862 163 1020 351 c 1,22,-1
 1163 255 l 1,23,24
 1003 85 1003 85 873 32.5 c 128,-1,25
 743 -20 743 -20 615 -20 c 0,0,1
990 680 m 1,26,-1
 1028 862 l 1,27,28
 946 935 946 935 816 935 c 0,29,30
 684 935 684 935 576 861 c 1,31,-1
 538 680 l 1,32,-1
 990 680 l 1,26,-1
EndSplineSet
Validated: 1
EndChar

StartChar: partialdiff
Encoding: 8706 8706 158
Width: 1325
GlyphClass: 2
Flags: W
HStem: -20 273<518.171 730.08> 823 260<742.537 985.899> 1257 273<781.982 1086.06>
VStem: 183 317<275.435 519.417> 1130 310<1024.77 1213.04>
LayerCount: 2
Fore
SplineSet
528 -20 m 0,0,1
 258 -20 258 -20 199 171 c 0,2,3
 183 223 183 223 183 285 c 0,4,5
 183 345 183 345 198 416 c 0,6,7
 253 673 253 673 450.5 878 c 128,-1,8
 648 1083 648 1083 920 1083 c 0,9,10
 1039 1083 1039 1083 1124 1024 c 1,11,12
 1130 1059 1130 1059 1130 1089 c 0,13,14
 1130 1138 1130 1138 1114 1173 c 0,15,16
 1075 1257 1075 1257 953 1257 c 0,17,18
 798 1257 798 1257 621 1132 c 1,19,-1
 687 1443 l 1,20,21
 851 1530 851 1530 1048 1530 c 0,22,23
 1365 1530 1365 1530 1426 1271 c 0,24,25
 1440 1213 1440 1213 1440 1145 c 0,26,27
 1440 1057 1440 1057 1417 950 c 0,28,29
 1335 563 1335 563 1090 272 c 0,30,31
 847 -20 847 -20 528 -20 c 0,0,1
1028 699 m 1,32,33
 1019 756 1019 756 982 788 c 0,34,35
 942 823 942 823 875 823 c 0,36,37
 766 823 766 823 660 706 c 0,38,39
 535 567 535 567 507 431 c 0,40,41
 500 396 500 396 500 367 c 0,42,43
 500 324 500 324 516 295 c 0,44,45
 539 253 539 253 599 253 c 0,46,47
 706 253 706 253 827 376 c 128,-1,48
 948 499 948 499 1028 699 c 1,32,33
EndSplineSet
Validated: 1
EndChar

StartChar: uni2206
Encoding: 8710 8710 159
Width: 1701
GlyphClass: 2
Flags: W
HStem: 0 174<407 1301> 1490 20G<987.5 1322>
DStem2: 214 259 476 285 0.558263 0.829664<39.3875 1222.53> 1357 1225 1064 1164 0.241117 -0.970496<-8.07692 1003.18>
LayerCount: 2
Fore
SplineSet
5 0 m 1,0,1
 125 127 125 127 214 259 c 2,2,-1
 864 1225 l 2,3,4
 950 1352 950 1352 1025 1510 c 1,5,-1
 1318 1510 l 1,6,7
 1326 1350 1326 1350 1357 1225 c 2,8,-1
 1597 259 l 2,9,10
 1627 138 1627 138 1696 0 c 1,11,-1
 5 0 l 1,0,1
407 174 m 1,12,-1
 1301 174 l 1,13,14
 1289 246 1289 246 1276 301 c 2,15,-1
 1064 1164 l 1,16,-1
 476 285 l 2,17,18
 442 234 442 234 407 174 c 1,12,-1
EndSplineSet
Validated: 1
EndChar

StartChar: product
Encoding: 8719 8719 160
Width: 1589
GlyphClass: 2
Flags: W
HStem: -410 21G<43 424 992 1373> 1336 174<757.938 1385>
DStem2: 72.6584 -410 392.658 -410 0.207912 0.978148<77.4397 1851.12> 1022.23 -410 1342.23 -410 0.207912 0.978148<77.3202 1780.34>
LayerCount: 2
Fore
SplineSet
43 -410 m 1,0,1
 105 -260 105 -260 137 -110 c 2,2,-1
 417 1210 l 2,3,4
 449 1360 449 1360 451 1510 c 1,5,-1
 1780 1510 l 1,6,7
 1718 1360 1718 1360 1686 1210 c 2,8,-1
 1406 -110 l 2,9,10
 1374 -260 1374 -260 1372 -410 c 1,11,-1
 992 -410 l 1,12,13
 1054 -260 1054 -260 1086 -110 c 2,14,-1
 1366 1210 l 2,15,16
 1380 1277 1380 1277 1385 1336 c 1,17,-1
 772 1336 l 17,18,19
 750 1271 750 1271 737 1210 c 2,20,-1
 457 -110 l 2,21,22
 425 -260 425 -260 423 -410 c 1,23,-1
 43 -410 l 1,0,1
EndSplineSet
Validated: 1
EndChar

StartChar: summation
Encoding: 8721 8721 161
Width: 1329
GlyphClass: 2
Flags: W
HStem: -410 174<469 1182> 1306 204<907.516 1455.02> 1336 174<767 1446.11>
DStem2: 182 -151 469 -236 0.560478 0.828169<90.4628 906.36> 767 1336 487 1252 0.291845 -0.956466<0 677.158>
LayerCount: 2
Fore
SplineSet
-27 -410 m 1,0,1
 104 -268 104 -268 182 -151 c 2,2,-1
 685 603 l 1,3,-1
 487 1252 l 2,4,5
 451 1369 451 1369 381 1510 c 1,6,-1
 1495 1510 l 1,7,-1
 1452 1306 l 1,8,9
 1263 1336 1263 1336 1158 1336 c 2,10,-1
 767 1336 l 1,11,-1
 1005 556 l 1,12,-1
 469 -236 l 1,13,-1
 919 -236 l 2,14,15
 1079 -236 1079 -236 1225 -206 c 1,16,-1
 1182 -410 l 1,17,-1
 -27 -410 l 1,0,1
EndSplineSet
Validated: 1
EndChar

StartChar: uni2215
Encoding: 8725 8725 162
Width: 1000
GlyphClass: 2
Flags: W
HStem: 0 21G<10 328.5> 1490 20G<994.5 1311>
DStem2: 868 1225 1102 1251 0.557671 0.830062<-1332.75 321.31>
LayerCount: 2
Fore
SplineSet
10 0 m 1,0,1
 126 120 126 120 219 259 c 10,2,-1
 868 1225 l 2,3,4
 960 1362 960 1362 1029 1510 c 1,5,-1
 1311 1510 l 1,6,7
 1200 1397 1200 1397 1102 1251 c 2,8,-1
 453 285 l 2,9,10
 365 155 365 155 292 0 c 1,11,-1
 10 0 l 1,0,1
EndSplineSet
Validated: 1
EndChar

StartChar: uni2219
Encoding: 8729 8729 163
Width: 404
GlyphClass: 2
Flags: W
HStem: 569 370<273.695 452.305>
VStem: 177 372<665 843>
LayerCount: 2
Fore
SplineSet
402 939 m 0,0,1
 480 939 480 939 520 885 c 0,2,3
 549 846 549 846 549 795 c 0,4,5
 549 775 549 775 545 754 c 0,6,7
 529 677 529 677 464.5 623 c 128,-1,8
 400 569 400 569 324 569 c 0,9,10
 246 569 246 569 206 623 c 0,11,12
 177 662 177 662 177 713 c 0,13,14
 177 733 177 733 181 754 c 0,15,16
 197 831 197 831 261.5 885 c 128,-1,17
 326 939 326 939 402 939 c 0,0,1
EndSplineSet
Validated: 1
EndChar

StartChar: radical
Encoding: 8730 8730 164
Width: 1359
GlyphClass: 2
Flags: W
HStem: 0 21G<390.5 681.5> 1490 20G<1324 1680>
DStem2: 601 351 287 533 0.253533 -0.967327<-441.398 0> 601 351 809 285 0.565296 0.824888<1.05123 1377.14>
LayerCount: 2
Fore
SplineSet
391 0 m 1,0,1
 390 140 390 140 352 285 c 2,2,-1
 287 533 l 2,3,4
 256 651 256 651 188 792 c 1,5,-1
 523 792 l 1,6,7
 533 630 533 630 563 507 c 2,8,-1
 601 351 l 1,9,-1
 1193 1225 l 2,10,11
 1294 1374 1294 1374 1354 1510 c 1,12,-1
 1680 1510 l 1,13,14
 1565 1388 1565 1388 1471 1251 c 2,15,-1
 809 285 l 2,16,17
 715 148 715 148 648 0 c 1,18,-1
 391 0 l 1,0,1
EndSplineSet
Validated: 1
EndChar

StartChar: infinity
Encoding: 8734 8734 165
Width: 1476
GlyphClass: 2
Flags: W
HStem: 384 204<496.96 721.172 1025.18 1248.56> 920 204<548.55 773.459 1077 1301.34>
VStem: 264 202<637.066 835.559> 803 191<669.482 838.518> 1331 201<670.367 880.587>
LayerCount: 2
Fore
SplineSet
702 1124 m 0,0,1
 864 1124 864 1124 942 1010 c 1,2,3
 1056 1124 1056 1124 1224 1124 c 0,4,5
 1378 1124 1378 1124 1465 1013 c 0,6,7
 1532 928 1532 928 1532 817 c 0,8,9
 1532 785 1532 785 1526 750 c 0,10,11
 1501 594 1501 594 1374 489 c 0,12,13
 1249 384 1249 384 1098 384 c 0,14,15
 956 384 956 384 862 503 c 1,16,17
 722 384 722 384 555 384 c 0,18,19
 407 384 407 384 323 495 c 0,20,21
 264 573 264 573 264 679 c 0,22,23
 264 716 264 716 271 756 c 0,24,25
 298 912 298 912 428 1021 c 0,26,27
 551 1124 551 1124 702 1124 c 0,0,1
670 920 m 128,-1,29
 602 920 602 920 544 872 c 0,30,31
 484 823 484 823 470 754 c 0,32,33
 466 734 466 734 466 717 c 0,34,35
 466 670 466 670 494 636 c 0,36,37
 532 588 532 588 599.5 588 c 128,-1,38
 667 588 667 588 726 636 c 0,39,40
 784 685 784 685 799 753 c 0,41,42
 803 771 803 771 803 791 c 0,43,44
 803 838 803 838 776 872 c 0,45,28
 738 920 738 920 670 920 c 128,-1,29
1198 920 m 128,-1,47
 1130 920 1130 920 1072 872 c 0,48,49
 1012 823 1012 823 998 754 c 0,50,51
 994 734 994 734 994 717 c 0,52,53
 994 670 994 670 1022 636 c 0,54,55
 1060 588 1060 588 1127.5 588 c 128,-1,56
 1195 588 1195 588 1254 636 c 0,57,58
 1307 681 1307 681 1326 752 c 0,59,60
 1331 771 1331 771 1331 791 c 0,61,62
 1331 838 1331 838 1304 872 c 0,63,46
 1266 920 1266 920 1198 920 c 128,-1,47
EndSplineSet
Validated: 1
EndChar

StartChar: approxequal
Encoding: 8776 8776 166
Width: 1126
GlyphClass: 2
Flags: W
HStem: 305 228<806.636 1046.98> 513 228<300.347 542.329> 730 228<896.636 1137.85> 938 228<390.176 632.364>
DStem2: 175 305 185 305 0.207912 0.978148<2.07912 22.4881 436.504 456.913> 692 665 656 381 0.794162 -0.607706<-117.43 261.453> 783 1090 746 806 0.79159 -0.611052<-117.033 261.283> 1071.33 305 1080.33 305 0.207912 0.978148<425.313 445.74 859.756 880.165>
LayerCount: 2
Fore
SplineSet
253 672 m 1,0,1
 355 741 355 741 486 741 c 0,2,3
 594 741 594 741 692 665 c 2,4,-1
 807 577 l 2,5,6
 865 533 865 533 922 533 c 272,7,8
 1073 533 1073 533 1164 741 c 1,9,-1
 1174 741 l 1,10,-1
 1095 374 l 1,11,12
 998 305 998 305 863 305 c 0,13,14
 755 305 755 305 656 381 c 2,15,-1
 542 469 l 2,16,17
 484 513 484 513 426 513 c 272,18,19
 275 513 275 513 185 305 c 1,20,-1
 175 305 l 1,21,-1
 253 672 l 1,0,1
343 1097 m 1,22,23
 444 1166 444 1166 576 1166 c 0,24,25
 684 1166 684 1166 783 1090 c 2,26,-1
 897 1002 l 2,27,28
 955 958 955 958 1013 958 c 272,29,30
 1164 958 1164 958 1254 1166 c 1,31,-1
 1264 1166 l 1,32,-1
 1186 799 l 1,33,34
 1089 730 1089 730 953 730 c 0,35,36
 845 730 845 730 746 806 c 2,37,-1
 632 894 l 2,38,39
 574 938 574 938 516 938 c 272,40,41
 365 938 365 938 275 730 c 1,42,-1
 265 730 l 1,43,-1
 343 1097 l 1,22,23
EndSplineSet
Validated: 1
EndChar

StartChar: notequal
Encoding: 8800 8800 167
Width: 1310
GlyphClass: 2
Flags: W
HStem: 428 264<321.959 441.312 813.516 1225.04> 458 204<608 651 811 1217.47> 797 264<400.905 811.281 1182.69 1303.1> 827 204<408.501 814 973 1015>
DStem2: 444 452 602 451 0.702552 0.711632<-216.301 0 407.279 526.806 933.383 1155.85>
LayerCount: 2
Fore
SplineSet
1241 1296 m 1,0,-1
 1475 1296 l 1,1,2
 1343 1201 1343 1201 1221 1078 c 2,3,-1
 1180 1037 l 1,4,5
 1266 1044 1266 1044 1357 1061 c 1,6,-1
 1300 797 l 1,7,8
 1155 827 1155 827 1007 827 c 2,9,-1
 973 827 l 1,10,-1
 811 662 l 1,11,-1
 972 662 l 2,12,13
 1120 662 1120 662 1278 692 c 1,14,-1
 1222 428 l 1,15,16
 1077 458 1077 458 928 458 c 2,17,-1
 608 458 l 1,18,-1
 602 451 l 2,19,20
 487 333 487 333 388 196 c 1,21,-1
 152 196 l 1,22,23
 302 307 302 307 406 414 c 2,24,-1
 444 452 l 1,25,26
 358 445 358 445 269 428 c 1,27,-1
 325 692 l 1,28,29
 469 662 469 662 619 662 c 2,30,-1
 651 662 l 1,31,-1
 814 827 l 1,32,-1
 654 827 l 2,33,34
 504 827 504 827 347 797 c 1,35,-1
 404 1061 l 1,36,37
 548 1031 548 1031 697 1031 c 2,38,-1
 1015 1031 l 1,39,-1
 1025 1041 l 2,40,41
 1154 1171 1154 1171 1241 1296 c 1,0,-1
EndSplineSet
Validated: 1
EndChar

StartChar: lessequal
Encoding: 8804 8804 168
Width: 1290
GlyphClass: 2
Flags: W
HStem: 49 264<173.905 1143.1> 79 204<181.071 1135.56> 782 282<336 468.504> 1497 20G<1377 1447.76>
DStem2: 626 896 550 702 0.889337 -0.457253<2.51791 692.419> 641 1146 626 896 0.922867 0.385119<-106.858 689.231>
LayerCount: 2
Fore
SplineSet
1452 1517 m 1,0,-1
 1380 1177 l 1,1,2
 1232 1141 1232 1141 1074 1077 c 2,3,-1
 626 896 l 1,4,-1
 994 702 l 2,5,6
 1127 632 1127 632 1258 602 c 1,7,-1
 1200 330 l 1,8,9
 1088 425 1088 425 974 484 c 2,10,-1
 550 702 l 2,11,12
 417 770 417 770 276 782 c 1,13,-1
 336 1064 l 1,14,15
 477 1078 477 1078 641 1146 c 2,16,-1
 1161 1363 l 2,17,18
 1302 1422 1302 1422 1452 1517 c 1,0,-1
177 313 m 1,19,20
 307 283 307 283 470 283 c 2,21,-1
 890 283 l 2,22,23
 1040 283 1040 283 1197 313 c 1,24,-1
 1140 49 l 1,25,26
 998 79 998 79 847 79 c 2,27,-1
 427 79 l 2,28,29
 273 79 273 79 120 49 c 1,30,-1
 177 313 l 1,19,20
EndSplineSet
Validated: 1
EndChar

StartChar: greaterequal
Encoding: 8805 8805 169
Width: 1290
GlyphClass: 2
Flags: W
HStem: 49 264<223.905 1193.1> 79 204<231.071 1185.56> 783 282<1213.7 1346> 1497 20G<477.809 538>
DStem2: 609 770 522 484 0.922867 0.385119<-317.125 479.399> 709 1363 1056 951 0.888897 -0.458108<-194.344 494.47>
LayerCount: 2
Fore
SplineSet
482 1517 m 1,0,1
 594 1422 594 1422 709 1363 c 2,2,-1
 1132 1145 l 2,3,4
 1265 1077 1265 1077 1406 1065 c 1,5,-1
 1346 783 l 1,6,7
 1205 769 1205 769 1042 701 c 2,8,-1
 522 484 l 2,9,10
 380 425 380 425 230 330 c 1,11,-1
 302 670 l 1,12,13
 450 706 450 706 609 770 c 2,14,-1
 1056 951 l 1,15,-1
 688 1145 l 2,16,17
 555 1215 555 1215 425 1245 c 1,18,-1
 482 1517 l 1,0,1
227 313 m 1,19,20
 357 283 357 283 520 283 c 2,21,-1
 940 283 l 2,22,23
 1090 283 1090 283 1247 313 c 1,24,-1
 1190 49 l 1,25,26
 1048 79 1048 79 897 79 c 2,27,-1
 477 79 l 2,28,29
 323 79 323 79 170 49 c 1,30,-1
 227 313 l 1,19,20
EndSplineSet
Validated: 1
EndChar

StartChar: lozenge
Encoding: 9674 9674 170
Width: 1178
GlyphClass: 2
Flags: W
HStem: -20 21G<575.29 603.16> 1510 20G<896.399 923.176>
DStem2: 217 738 498 771 0.660649 0.750695<210.415 666.759> 498 771 217 738 0.436739 -0.899588<0 452.144> 697 365 585 -20 0.672237 0.740336<0 449.148> 914 1530 799 1114 0.417012 -0.908901<330.147 785.931>
LayerCount: 2
Fore
SplineSet
697 365 m 1,0,-1
 994 702 l 1,1,-1
 799 1114 l 1,2,-1
 498 771 l 1,3,-1
 697 365 l 1,0,-1
585 -20 m 1,4,-1
 217 738 l 1,5,-1
 914 1530 l 1,6,-1
 1276 741 l 1,7,-1
 585 -20 l 1,4,-1
EndSplineSet
Validated: 1
EndChar

StartChar: four
Encoding: 52 52 171
Width: 1307
Flags: W
HStem: 0 21G<738 1109> 352 213<1195.47 1302> 352 174<389 843> 1530 20G<1242.5 1407.5>
DStem2: 339 711 389 526 0.68412 0.729369<-98.5369 827.371> 768.18 0 1078.18 0 0.207912 0.978148<75.2521 359.864 618.481 1229.9>
LayerCount: 2
Fore
SplineSet
738 0 m 1,0,1
 800 149 800 149 832 300 c 2,2,-1
 843 352 l 1,3,-1
 135 352 l 1,4,-1
 116 497 l 1,5,6
 230 595 230 595 339 711 c 2,7,-1
 844 1247 l 2,8,9
 963 1373 963 1373 1047 1510 c 1,10,-1
 1438 1550 l 1,11,12
 1377 1406 1377 1406 1345 1250 c 2,13,-1
 1193 542 l 1,14,15
 1272 550 1272 550 1347 565 c 1,16,-1
 1302 352 l 1,17,-1
 1153 352 l 1,18,-1
 1142 300 l 2,19,20
 1110 150 1110 150 1108 0 c 1,21,-1
 738 0 l 1,0,1
880 526 m 1,22,-1
 1024 1203 l 1,23,-1
 389 526 l 1,24,-1
 880 526 l 1,22,-1
EndSplineSet
Validated: 1
EndChar

StartChar: ampersand
Encoding: 38 38 172
Width: 1758
Flags: W
HStem: -20 175<617.598 948.8> 0 21G<1284.5 1718> 744 207<817.752 967.258> 1356 174<835.314 1096.02>
VStem: 197 337<234.631 552.502> 442 306<1016.13 1261>
DStem2: 1342 621 1443 439 0.624695 0.780869<0 339.305>
LayerCount: 2
Fore
SplineSet
754 155 m 0,0,1
 865 155 865 155 956 203 c 0,2,3
 1078 267 1078 267 1155 353 c 1,4,-1
 987 671 l 2,5,6
 948 744 948 744 853 744 c 0,7,8
 749 744 749 744 662 665 c 0,9,10
 570 580 570 580 542 448 c 0,11,12
 534 408 534 408 534 372 c 0,13,14
 534 290 534 290 579 234 c 0,15,16
 644 155 644 155 754 155 c 0,0,1
1718 0 m 1,17,-1
 1290 0 l 1,18,19
 1279 103 1279 103 1246 189 c 1,20,21
 1195 142 1195 142 1145 107 c 0,22,23
 962 -20 962 -20 692 -20 c 0,24,25
 430 -20 430 -20 298 120 c 0,26,27
 197 228 197 228 197 365 c 0,28,29
 197 408 197 408 207 454 c 0,30,31
 250 657 250 657 441 780 c 0,32,33
 515 828 515 828 609 852 c 1,34,35
 442 941 442 941 442 1095 c 0,36,37
 442 1128 442 1128 450 1164 c 0,38,39
 489 1347 489 1347 668 1455 c 0,40,41
 793 1530 793 1530 977 1530 c 0,42,43
 1159 1530 1159 1530 1278 1458 c 1,44,-1
 1213 1152 l 1,45,-1
 1203 1152 l 1,46,47
 1132 1356 1132 1356 954 1356 c 0,48,49
 884 1356 884 1356 830 1308 c 0,50,51
 773 1258 773 1258 754 1168 c 0,52,53
 748 1140 748 1140 748 1116 c 0,54,55
 748 1051 748 1051 791 1015 c 0,56,57
 866 951 866 951 970 951 c 2,58,-1
 1202 951 l 1,59,60
 1223 853 1223 853 1302 699 c 2,61,-1
 1342 621 l 1,62,-1
 1367 652 l 2,63,64
 1467 776 1467 776 1535 951 c 1,65,-1
 1884 951 l 1,66,67
 1751 824 1751 824 1631 674 c 2,68,-1
 1443 439 l 1,69,-1
 1543 256 l 2,70,71
 1613 128 1613 128 1718 0 c 1,17,-1
EndSplineSet
Validated: 1
EndChar

StartChar: AE
Encoding: 198 198 173
Width: 2022
Flags: W
HStem: 0 174<1429 1962> 671 175<973 1217 1564 1973.5> 1306 204<1680.31 2123.02> 1336 174<1662.63 2115.5>
DStem2: 977 1213 838 671 0.609094 0.793098<-1340.04 -514.523 -293.503 326.997> 1074.23 -1 1384.02 -1 0.207912 0.978148<248.967 686.998 930.319 1369.54>
LayerCount: 2
Fore
SplineSet
5 0 m 1,0,1
 153 143 153 143 256 276 c 2,2,-1
 977 1213 l 2,3,4
 1089 1358 1089 1358 1171 1510 c 1,5,-1
 2163 1510 l 1,6,-1
 2120 1306 l 1,7,8
 1976 1336 1976 1336 1826 1336 c 2,9,-1
 1678 1336 l 1,10,11
 1655 1275 1655 1275 1641 1210 c 2,12,-1
 1564 846 l 1,13,-1
 1722 846 l 2,14,15
 1872 846 1872 846 2028 876 c 1,16,-1
 1978 641 l 1,17,18
 1834 671 1834 671 1685 671 c 2,19,-1
 1527 671 l 1,20,-1
 1448 300 l 2,21,22
 1434 235 1434 235 1429 174 c 1,23,-1
 1699 174 l 2,24,25
 1857 174 1857 174 2005 204 c 1,26,-1
 1962 0 l 1,27,-1
 1044 -1 l 1,28,29
 1106 149 1106 149 1138 299 c 2,30,-1
 1217 671 l 1,31,-1
 838 671 l 1,32,-1
 542 286 l 2,33,34
 431 142 431 142 348 0 c 1,35,-1
 5 0 l 1,0,1
1254 846 m 1,36,-1
 1331 1209 l 2,37,38
 1345 1276 1345 1276 1353 1342 c 1,39,-1
 973 846 l 1,40,-1
 1254 846 l 1,36,-1
EndSplineSet
Validated: 1
EndChar

StartChar: Eth
Encoding: 208 208 174
Width: 1649
Flags: W
HStem: 0 175<525 985.166> 663 190<187.982 313.499 656.953 1029.02> 691 134<655 1021.66> 1335 175<759.251 1212.01>
VStem: 1420 346<657.501 1115.05>
DStem2: 170.233 0 480.233 0 0.207912 0.978148<248.967 701.316 907.76 1429.28>
LayerCount: 2
Fore
SplineSet
525 175 m 1,0,-1
 763 175 l 2,1,2
 1001 175 1001 175 1179 348 c 0,3,4
 1354 520 1354 520 1404 756 c 0,5,6
 1420 833 1420 833 1420 903 c 0,7,8
 1420 1047 1420 1047 1352 1162 c 0,9,10
 1250 1335 1250 1335 1010 1335 c 2,11,-1
 774 1335 l 1,12,13
 751 1272 751 1272 737 1210 c 2,14,-1
 655 825 l 1,15,-1
 780 825 l 2,16,17
 916 825 916 825 1066 853 c 1,18,-1
 1026 663 l 1,19,20
 887 691 887 691 752 691 c 2,21,-1
 627 691 l 1,22,-1
 544 300 l 2,23,24
 529 230 529 230 525 175 c 1,0,-1
140 0 m 1,25,26
 202 150 202 150 234 300 c 2,27,-1
 316 686 l 1,28,29
 236 679 236 679 151 663 c 1,30,-1
 191 853 l 1,31,32
 268 837 268 837 346 830 c 1,33,-1
 427 1210 l 2,34,35
 459 1360 459 1360 461 1510 c 1,36,-1
 1047 1510 l 2,37,38
 1449 1510 1449 1510 1624 1295 c 0,39,40
 1766 1123 1766 1123 1766 908 c 0,41,42
 1766 834 1766 834 1749 755 c 0,43,44
 1682 442 1682 442 1392 211 c 0,45,46
 1126 0 1126 0 726 0 c 2,47,-1
 140 0 l 1,25,26
EndSplineSet
Validated: 1
EndChar

StartChar: Dcroat
Encoding: 272 272 175
Width: 1649
Flags: W
HStem: 0 175<525 985.166> 663 190<187.982 313.499 656.953 1029.02> 691 134<655 1021.66> 1335 175<759.251 1212.01>
VStem: 1420 346<657.501 1115.05>
DStem2: 170.233 0 480.233 0 0.207912 0.978148<248.967 701.316 907.76 1429.28>
LayerCount: 2
Fore
SplineSet
525 175 m 1,0,-1
 763 175 l 2,1,2
 1001 175 1001 175 1179 348 c 0,3,4
 1354 520 1354 520 1404 756 c 0,5,6
 1420 833 1420 833 1420 903 c 0,7,8
 1420 1047 1420 1047 1352 1162 c 0,9,10
 1250 1335 1250 1335 1010 1335 c 2,11,-1
 774 1335 l 1,12,13
 751 1272 751 1272 737 1210 c 2,14,-1
 655 825 l 1,15,-1
 780 825 l 2,16,17
 916 825 916 825 1066 853 c 1,18,-1
 1026 663 l 1,19,20
 887 691 887 691 752 691 c 2,21,-1
 627 691 l 1,22,-1
 544 300 l 2,23,24
 529 230 529 230 525 175 c 1,0,-1
140 0 m 1,25,26
 202 150 202 150 234 300 c 2,27,-1
 316 686 l 1,28,29
 236 679 236 679 151 663 c 1,30,-1
 191 853 l 1,31,32
 268 837 268 837 346 830 c 1,33,-1
 427 1210 l 2,34,35
 459 1360 459 1360 461 1510 c 1,36,-1
 1047 1510 l 2,37,38
 1449 1510 1449 1510 1624 1295 c 0,39,40
 1766 1123 1766 1123 1766 908 c 0,41,42
 1766 834 1766 834 1749 755 c 0,43,44
 1682 442 1682 442 1392 211 c 0,45,46
 1126 0 1126 0 726 0 c 2,47,-1
 140 0 l 1,25,26
EndSplineSet
Validated: 1
EndChar

StartChar: Hbar
Encoding: 294 294 176
Width: 1611
Flags: W
HStem: 0 21G<140 511 1100 1470> 671 175<660 1273> 1214 190<304.982 430.499 1745.38 1862.02> 1242 134<781 1394> 1490 20G<461 831 1420.5 1790>
DStem2: 170.233 0 480.375 0 0.207912 0.978148<75.2411 750.473 929.341 1264.6> 1130.23 0 1439.23 0 0.207912 0.978148<75.0332 686.02 864.889 1269.7>
LayerCount: 2
Fore
SplineSet
140 0 m 1,0,1
 202 149 202 149 234 300 c 2,2,-1
 433 1237 l 17,3,4
 353 1230 353 1230 268 1214 c 1,5,-1
 308 1404 l 1,6,7
 380 1389 380 1389 454 1382 c 1,8,9
 461 1446 461 1446 461 1510 c 1,10,-1
 831 1510 l 1,11,12
 804 1443 804 1443 781 1376 c 1,13,-1
 1413 1376 l 1,14,15
 1420 1443 1420 1443 1421 1510 c 1,16,-1
 1790 1510 l 1,17,18
 1763 1446 1763 1446 1743 1382 c 1,19,20
 1819 1389 1819 1389 1899 1404 c 1,21,-1
 1859 1214 l 1,22,23
 1780 1230 1780 1230 1702 1237 c 1,24,-1
 1503 300 l 2,25,26
 1471 150 1471 150 1469 0 c 1,27,-1
 1100 0 l 1,28,29
 1162 150 1162 150 1194 300 c 2,30,-1
 1273 671 l 1,31,-1
 623 671 l 1,32,-1
 544 300 l 2,33,34
 512 150 512 150 510 0 c 1,35,-1
 140 0 l 1,0,1
1310 846 m 1,36,-1
 1394 1242 l 1,37,-1
 744 1242 l 9,38,-1
 660 846 l 1,39,-1
 1310 846 l 1,36,-1
EndSplineSet
Validated: 1
EndChar

StartChar: Lslash
Encoding: 321 321 177
Width: 1073
Flags: W
HStem: 0 174<530 1063> 1100 20G<862 931.821> 1490 20G<450 836>
DStem2: 159.765 0 484.629 0 0.207912 0.978148<250.059 409.959 543.213 780.16 974.532 1532.95> 674 887 767 807 0.772928 0.634493<0 327.274>
LayerCount: 2
Fore
SplineSet
130 0 m 1,0,1
 192 150 192 150 224 300 c 2,2,-1
 245 401 l 1,3,-1
 165 501 l 1,4,5
 225 536 225 536 282 575 c 1,6,-1
 417 1210 l 2,7,8
 449 1360 449 1360 451 1510 c 1,9,-1
 836 1510 l 1,10,11
 774 1361 774 1361 742 1210 c 2,12,-1
 674 887 l 1,13,-1
 692 902 l 2,14,15
 808 998 808 998 916 1120 c 1,16,-1
 1022 986 l 1,17,18
 895 913 895 913 767 807 c 2,19,-1
 633 697 l 1,20,-1
 562 364 l 2,21,22
 541 266 541 266 530 174 c 1,23,-1
 800 174 l 2,24,25
 958 174 958 174 1106 204 c 1,26,-1
 1063 0 l 1,27,-1
 130 0 l 1,0,1
EndSplineSet
Validated: 1
EndChar

StartChar: Eng
Encoding: 330 330 178
Width: 1600
Flags: W
HStem: -430 10<751 760.196> 0 21G<130 500> 1329 201<961.559 1226.19> 1537 20G<713.714 799>
VStem: 1327 323<778.875 1225.48>
DStem2: 68.8337 -430 378.259 -430 0.207912 0.978148<514.654 1673.91> 1028.62 -430 1348.62 -430 0.207912 0.978148<302.949 1512.99>
LayerCount: 2
Fore
SplineSet
130 0 m 1,0,1
 192 150 192 150 224 300 c 2,2,-1
 413 1192 l 2,3,4
 442 1329 442 1329 448 1487 c 1,5,-1
 820 1557 l 1,6,7
 778 1447 778 1447 756 1353 c 1,8,9
 938 1530 938 1530 1210 1530 c 0,10,11
 1460 1530 1460 1530 1582 1341 c 0,12,13
 1650 1236 1650 1236 1650 1074 c 0,14,15
 1650 988 1650 988 1623 861 c 2,16,-1
 1443 14 l 2,17,18
 1349 -429 1349 -429 749 -430 c 1,19,-1
 751 -420 l 1,20,21
 1047 -343 1047 -343 1123 14 c 2,22,-1
 1302 855 l 2,23,24
 1327 972 1327 972 1327 1056 c 0,25,26
 1327 1134 1327 1134 1305 1183 c 0,27,28
 1241 1329 1241 1329 1079 1329 c 0,29,30
 923 1329 923 1329 803 1198 c 0,31,32
 702 1088 702 1088 652 855 c 2,33,-1
 533 298 l 2,34,35
 500 144 500 144 500 0 c 1,36,-1
 130 0 l 1,0,1
EndSplineSet
Validated: 1
EndChar

StartChar: OE
Encoding: 338 338 179
Width: 2068
Flags: W
HStem: -20 175<740.693 1108.23> 0 175<1475 2008> 672 175<1610 2019.5> 1307 204<1726.31 2169.02> 1337 173<1708.63 2161.5> 1355 175<978.982 1347.31>
VStem: 201 345<371.508 846.834>
DStem2: 1114.07 -20 1425.77 -20 0.207912 0.978148<267.678 772.294 951.163 1348.08>
LayerCount: 2
Fore
SplineSet
2008 1 m 1,0,-1
 1092 0 l 1,1,2
 990 -20 990 -20 879 -20 c 0,3,4
 523 -20 523 -20 343 191 c 0,5,6
 201 357 201 357 201 582 c 0,7,8
 201 664 201 664 220 755 c 0,9,10
 290 1083 290 1083 580 1315 c 0,11,12
 847 1530 847 1530 1208 1530 c 0,13,14
 1318 1530 1318 1530 1412 1510 c 1,15,-1
 2209 1511 l 1,16,-1
 2166 1307 l 1,17,18
 2022 1337 2022 1337 1872 1337 c 2,19,-1
 1724 1337 l 1,20,21
 1701 1276 1701 1276 1687 1211 c 2,22,-1
 1610 847 l 1,23,-1
 1768 847 l 2,24,25
 1918 847 1918 847 2074 877 c 1,26,-1
 2024 642 l 1,27,28
 1880 672 1880 672 1731 672 c 2,29,-1
 1573 672 l 1,30,-1
 1494 301 l 2,31,32
 1480 236 1480 236 1475 175 c 1,33,-1
 1745 175 l 2,34,35
 1903 175 1903 175 2052 205 c 1,36,-1
 2008 1 l 1,0,-1
1390 1281 m 1,37,38
 1301 1355 1301 1355 1171 1355 c 0,39,40
 971 1355 971 1355 794 1182 c 0,41,42
 620 1012 620 1012 565 755 c 0,43,44
 546 666 546 666 546 588 c 0,45,46
 546 440 546 440 613 328 c 0,47,48
 715 155 715 155 916 155 c 0,49,50
 1047 155 1047 155 1167 229 c 1,51,-1
 1390 1281 l 1,37,38
EndSplineSet
Validated: 1
EndChar

StartChar: Tbar
Encoding: 358 358 180
Width: 1200
Flags: W
HStem: 0 21G<415 786> 650 190<385.906 585.342 931.627 1131.09> 1306 204<331 717.047 1050.95 1471.02> 1336 174<331 719 1033.63 1463.59>
DStem2: 445.099 0 755.099 0 0.207912 0.978148<75.2689 692.125 895.635 1361.84>
LayerCount: 2
Fore
SplineSet
415 0 m 1,0,1
 477 150 477 150 509 300 c 2,2,-1
 589 677 l 1,3,4
 472 673 472 673 348 650 c 1,5,-1
 389 840 l 1,6,7
 502 817 502 817 618 813 c 1,8,-1
 702 1210 l 2,9,10
 716 1274 716 1274 719 1336 c 1,11,-1
 594 1336 l 2,12,13
 448 1336 448 1336 288 1306 c 1,14,-1
 331 1510 l 1,15,-1
 1511 1510 l 1,16,-1
 1468 1306 l 1,17,18
 1327 1336 1327 1336 1174 1336 c 2,19,-1
 1049 1336 l 1,20,21
 1026 1274 1026 1274 1012 1210 c 2,22,-1
 928 813 l 1,23,24
 1044 817 1044 817 1169 840 c 1,25,-1
 1128 650 l 1,26,27
 1012 673 1012 673 899 677 c 1,28,-1
 819 300 l 2,29,30
 787 150 787 150 785 0 c 1,31,-1
 415 0 l 1,0,1
EndSplineSet
Validated: 1
EndChar

StartChar: ae
Encoding: 230 230 181
Width: 2009
Flags: W
HStem: -20 154<486.622 738.08 1295.51 1655.88> 473 156<1224 1745.69> 624 153<573.792 822.563> 968 152<557.495 871.448 1425.49 1688.92>
VStem: 112 322<187.75 476.787> 345 10<759 766.902> 875 312<276.626 436.938> 1750 330<630.128 887.45>
LayerCount: 2
Fore
SplineSet
549 -20 m 0,0,1
 318 -20 318 -20 201 93 c 0,2,3
 112 179 112 179 112 300 c 0,4,5
 112 338 112 338 121 380 c 0,6,7
 158 553 158 553 328 667 c 0,8,9
 492 777 492 777 714 777 c 0,10,11
 841 777 841 777 939 738 c 1,12,13
 940 750 940 750 940 761 c 0,14,15
 940 815 940 815 924 853 c 0,16,17
 877 968 877 968 716.5 968 c 128,-1,18
 556 968 556 968 428 850 c 0,19,20
 384 810 384 810 355 759 c 1,21,-1
 345 759 l 1,22,-1
 397 1003 l 1,23,24
 599 1120 599 1120 834 1120 c 0,25,26
 1070 1120 1070 1120 1180 988 c 1,27,28
 1377 1120 1377 1120 1603 1120 c 0,29,30
 1892 1120 1892 1120 2018 920 c 0,31,32
 2080 819 2080 819 2080 691 c 0,33,34
 2080 614 2080 614 2061 526 c 1,35,-1
 2000 473 l 1,36,-1
 1191 473 l 1,37,38
 1187 437 1187 437 1187 405 c 0,39,40
 1187 307 1187 307 1226 246 c 0,41,42
 1299 134 1299 134 1467 134 c 0,43,44
 1650 134 1650 134 1795 266 c 0,45,46
 1875 339 1875 339 1927 400 c 1,47,-1
 1937 400 l 1,48,-1
 1882 142 l 1,49,50
 1654 -19 1654 -19 1404 -19 c 0,51,52
 1146 -19 1146 -19 1009 97 c 0,53,54
 996 108 996 108 982 119 c 1,55,56
 779 -20 779 -20 549 -20 c 0,0,1
1224 629 m 1,57,-1
 1740 629 l 1,58,59
 1750 696 1750 696 1750 747 c 0,60,61
 1750 808 1750 808 1736 846 c 0,62,63
 1694 967 1694 967 1571 967 c 0,64,65
 1446 967 1446 967 1343 853 c 0,66,67
 1263 763 1263 763 1224 629 c 1,57,-1
869 380 m 0,68,69
 875 410 875 410 875 438 c 0,70,71
 875 499 875 499 845 550 c 0,72,73
 802 624 802 624 707 624 c 0,74,75
 613 624 613 624 536 550 c 0,76,77
 462 478 462 478 441 380 c 0,78,79
 434 348 434 348 434 319 c 0,80,81
 434 258 434 258 464 208 c 0,82,83
 507 134 507 134 601 134 c 128,-1,84
 695 134 695 134 777 209 c 0,85,86
 846 272 846 272 869 380 c 0,68,69
EndSplineSet
Validated: 1
EndChar

StartChar: dcroat
Encoding: 273 273 182
Width: 1398
Flags: W
HStem: -20 153<593.817 865.673> 0 21G<905 1258> 967 153<753 1034.19> 1214 190<901.982 1195.3 1528.44 1649.02> 1242 134<909.22 1196> 1541 20G<1482.71 1569.5>
VStem: 161 331<244.344 649.32>
DStem2: 928.81 -20 1223.26 -20 0.207912 0.978148<253.441 810.008 1080.51 1289.97>
LayerCount: 2
Fore
SplineSet
1256 0 m 1,0,-1
 905 0 l 1,1,2
 923 28 923 28 934 61 c 1,3,4
 810 -20 810 -20 632 -20 c 0,5,6
 390 -20 390 -20 257 136 c 0,7,8
 161 249 161 249 161 411 c 0,9,10
 161 476 161 476 177 550 c 0,11,12
 231 806 231 806 433 964 c 0,13,14
 632 1120 632 1120 874 1120 c 0,15,16
 1055 1120 1055 1120 1153 1037 c 1,17,-1
 1187 1195 l 2,18,19
 1192 1219 1192 1219 1196 1242 c 1,20,-1
 1151 1242 l 2,21,22
 1013 1242 1013 1242 865 1214 c 1,23,-1
 905 1404 l 1,24,25
 1040 1376 1040 1376 1179 1376 c 2,26,-1
 1215 1376 l 1,27,28
 1221 1435 1221 1435 1222 1491 c 1,29,-1
 1587 1561 l 1,30,31
 1552 1477 1552 1477 1526 1382 c 1,32,33
 1604 1389 1604 1389 1686 1404 c 1,34,-1
 1646 1214 l 1,35,36
 1567 1230 1567 1230 1491 1237 c 1,37,-1
 1290 294 l 2,38,39
 1260 150 1260 150 1256 0 c 1,0,-1
732 133 m 0,40,41
 847 133 847 133 932 230 c 0,42,43
 998 304 998 304 1019 404 c 2,44,-1
 1081 696 l 2,45,46
 1090 738 1090 738 1090 775 c 0,47,48
 1090 831 1090 831 1069 874 c 0,49,50
 1024 967 1024 967 910 967 c 0,51,52
 776 967 776 967 662 852 c 0,53,54
 546 735 546 735 507 550 c 0,55,56
 492 480 492 480 492 420 c 0,57,58
 492 320 492 320 534 248 c 0,59,60
 600 133 600 133 732 133 c 0,40,41
EndSplineSet
Validated: 1
EndChar

StartChar: longs
Encoding: 383 383 183
Width: 1000
Flags: W
HStem: 0 21G<262 615> 754 158<214.312 450> 1395 135<952.569 1200.33>
VStem: 1245 10<1246 1268.37>
DStem2: 289.732 0 585.251 0 0.207912 0.978148<71.8522 770.845 924.283 1359.77>
LayerCount: 2
Fore
SplineSet
262 0 m 1,0,1
 322 150 322 150 352 294 c 2,2,-1
 450 754 l 1,3,4
 315 754 315 754 164 726 c 1,5,-1
 210 940 l 1,6,7
 348 912 348 912 484 912 c 1,8,-1
 516 1064 l 2,9,10
 568 1310 568 1310 700 1414 c 0,11,12
 845 1530 845 1530 1088 1530 c 0,13,14
 1221 1530 1221 1530 1311 1511 c 1,15,-1
 1255 1246 l 1,16,-1
 1245 1246 l 1,17,18
 1222 1395 1222 1395 1086 1395 c 0,19,20
 1002 1395 1002 1395 936 1338 c 0,21,22
 854 1267 854 1267 818 1095 c 2,23,-1
 647 294 l 2,24,25
 617 151 617 151 613 0 c 1,26,-1
 262 0 l 1,0,1
EndSplineSet
Validated: 1
EndChar

StartChar: florin
Encoding: 402 402 184
Width: 950
Flags: W
HStem: -430 21G<-39 196.5> 754 158<281.094 390 719 964.657> 1395 135<892.569 1140.33>
VStem: 1185 10<1246 1268.37>
DStem2: 138.253 -430 433.253 -430 0.207912 0.978148<244.469 1210.47 1433.42 1799.39>
LayerCount: 2
Fore
SplineSet
-41 -430 m 1,0,-1
 -39 -420 l 1,1,2
 159 -337 159 -337 222 -36 c 2,3,-1
 390 754 l 1,4,-1
 380 754 l 2,5,6
 313 754 313 754 235 728 c 1,7,-1
 279 938 l 1,8,9
 346 912 346 912 414 912 c 2,10,-1
 424 912 l 1,11,-1
 456 1064 l 2,12,13
 508 1310 508 1310 640 1414 c 0,14,15
 785 1530 785 1530 1028 1530 c 0,16,17
 1161 1530 1161 1530 1251 1511 c 1,18,-1
 1195 1246 l 1,19,-1
 1185 1246 l 1,20,21
 1162 1395 1162 1395 1026 1395 c 0,22,23
 942 1395 942 1395 876 1338 c 0,24,25
 794 1267 794 1267 758 1095 c 2,26,-1
 719 912 l 1,27,-1
 729 912 l 2,28,29
 865 912 865 912 1015 940 c 1,30,-1
 969 726 l 1,31,32
 830 754 830 754 695 754 c 2,33,-1
 685 754 l 1,34,-1
 517 -36 l 2,35,36
 434 -430 434 -430 -41 -430 c 1,0,-1
EndSplineSet
Validated: 1
EndChar

StartChar: hbar
Encoding: 295 295 185
Width: 1401
Flags: W
HStem: 0 21G<152 504.5 913 1270.5> 955 165<827.05 1159.5> 1242 134<771 1054.66> 1541 20G<729.714 815.5>
VStem: 1092 301<505.367 896.229>
DStem2: 179.995 0 474.782 0 0.207912 0.978148<71.7611 934.777 1072.38 1264.44> 940.508 0 1240.51 0 0.207912 0.978148<72.8717 773.324>
LayerCount: 2
Fore
SplineSet
152 0 m 1,0,1
 209 140 209 140 242 294 c 2,2,-1
 434 1195 l 2,3,4
 438 1216 438 1216 442 1237 c 1,5,6
 373 1234 373 1234 298 1214 c 1,7,-1
 338 1404 l 1,8,9
 406 1386 406 1386 462 1382 c 1,10,11
 467 1436 467 1436 469 1491 c 1,12,-1
 834 1561 l 1,13,14
 797 1466 797 1466 771 1376 c 1,15,-1
 813 1376 l 2,16,17
 949 1376 949 1376 1099 1404 c 1,18,-1
 1059 1214 l 1,19,20
 920 1242 920 1242 785 1242 c 2,21,-1
 739 1242 l 1,22,-1
 685 989 l 1,23,24
 840 1120 840 1120 1060 1120 c 0,25,26
 1259 1120 1259 1120 1349 966 c 0,27,28
 1393 891 1393 891 1393 774 c 0,29,30
 1393 714 1393 714 1377 639 c 2,31,-1
 1303 294 l 2,32,33
 1272 149 1272 149 1269 0 c 1,34,-1
 913 0 l 1,35,36
 971 147 971 147 1003 294 c 2,37,-1
 1076 634 l 2,38,39
 1092 709 1092 709 1092 760 c 0,40,41
 1092 824 1092 824 1070 864 c 0,42,43
 1021 955 1021 955 912 955 c 0,44,45
 802 955 802 955 717 866 c 0,46,47
 643 788 643 788 610 634 c 2,48,-1
 537 294 l 2,49,50
 506 150 506 150 503 0 c 1,51,-1
 152 0 l 1,0,1
EndSplineSet
Validated: 19457
EndChar

StartChar: lslash
Encoding: 322 322 186
Width: 784
Flags: W
HStem: 0 21G<217 569.5> 1100 20G<843.5 888.821> 1541 20G<794.714 869.5>
DStem2: 245.422 0 539.508 0 0.207912 0.978148<71.6722 502.992 705.397 874.011 1076.42 1513.68>
LayerCount: 2
Fore
SplineSet
217 0 m 1,0,1
 276 147 276 147 307 294 c 2,2,-1
 350 492 l 1,3,4
 291 435 291 435 229 367 c 1,5,-1
 122 501 l 1,6,7
 259 581 259 581 378 679 c 2,8,-1
 392 690 l 1,9,-1
 499 1195 l 2,10,11
 529 1337 529 1337 534 1491 c 1,12,-1
 899 1561 l 1,13,14
 840 1409 840 1409 810 1269 c 2,15,-1
 751 993 l 1,16,17
 814 1053 814 1053 873 1120 c 1,18,-1
 979 986 l 1,19,20
 852 913 852 913 724 807 c 2,21,-1
 709 795 l 1,22,-1
 602 294 l 2,23,24
 571 150 571 150 568 0 c 1,25,-1
 217 0 l 1,0,1
EndSplineSet
Validated: 1
EndChar

StartChar: eng
Encoding: 331 331 187
Width: 1381
Flags: W
HStem: -430 10<552 561.196> 0 21G<132 484.5> 955 165<804.126 1140>
VStem: 1071 302<509.656 897.349>
DStem2: 68.5312 -430 363.109 -430 0.207912 0.978148<511.381 1372.34> 829.625 -430 1129.62 -430 0.207912 0.978148<295.358 1211.55>
LayerCount: 2
Fore
SplineSet
132 0 m 1,0,1
 191 147 191 147 222 294 c 2,2,-1
 327 786 l 2,3,4
 356 921 356 921 362 1081 c 1,5,-1
 727 1151 l 1,6,7
 693 1071 693 1071 672 995 c 1,8,9
 821 1120 821 1120 1040 1120 c 0,10,11
 1240 1120 1240 1120 1329 966 c 0,12,13
 1373 890 1373 890 1373 773 c 0,14,15
 1373 713 1373 713 1357 638 c 2,16,-1
 1224 14 l 2,17,18
 1130 -429 1130 -429 550 -430 c 1,19,-1
 552 -420 l 1,20,21
 848 -343 848 -343 924 14 c 2,22,-1
 1056 634 l 2,23,24
 1071 705 1071 705 1071 759 c 0,25,26
 1071 823 1071 823 1050 864 c 0,27,28
 1001 955 1001 955 892 955 c 0,29,30
 782 955 782 955 697 866 c 0,31,32
 622 787 622 787 590 634 c 2,33,-1
 517 294 l 2,34,35
 486 150 486 150 483 0 c 1,36,-1
 132 0 l 1,0,1
EndSplineSet
Validated: 1
EndChar

StartChar: eth
Encoding: 240 240 188
Width: 1368
Flags: W
HStem: -20 155<583.787 861.839> 965 155<740.547 1021.16> 1110 179<703.918 793.754> 1351 179<1308.74 1395.16> 1490 20G<805 1139>
VStem: 167 323<234.039 649.156> 1112 325<447.348 867.439>
LayerCount: 2
Fore
SplineSet
712 135 m 0,0,1
 840 135 840 135 950 248 c 0,2,3
 1054 354 1054 354 1095 550 c 0,4,5
 1112 630 1112 630 1112 695 c 0,6,7
 1112 793 1112 793 1074 857 c 0,8,9
 1011 965 1011 965 887.5 965 c 128,-1,10
 764 965 764 965 652 852 c 0,11,12
 549 748 549 748 507 550 c 0,13,14
 490 471 490 471 490 406 c 0,15,16
 490 309 490 309 528 243 c 0,17,18
 591 135 591 135 712 135 c 0,0,1
676 -20 m 0,19,20
 405 -20 405 -20 268 142 c 0,21,22
 167 262 167 262 167 434 c 0,23,24
 167 489 167 489 177 550 c 0,25,26
 222 805 222 805 439 967 c 0,27,28
 646 1120 646 1120 895 1120 c 0,29,30
 972 1120 972 1120 1033 1088 c 1,31,-1
 971 1227 l 1,32,33
 850 1184 850 1184 706 1110 c 1,34,-1
 680 1289 l 1,35,36
 808 1309 808 1309 922 1344 c 1,37,38
 880 1433 880 1433 805 1510 c 1,39,-1
 1139 1510 l 1,40,41
 1139 1466 1139 1466 1147 1419 c 1,42,43
 1279 1466 1279 1466 1393 1530 c 1,44,-1
 1420 1351 l 1,45,46
 1302 1334 1302 1334 1192 1301 c 1,47,-1
 1371 939 l 2,48,49
 1437 806 1437 806 1437 668 c 0,50,51
 1437 607 1437 607 1424 546 c 0,52,53
 1372 295 1372 295 1169 136 c 0,54,55
 970 -20 970 -20 676 -20 c 0,19,20
EndSplineSet
Validated: 1
EndChar

StartChar: oe
Encoding: 339 339 189
Width: 2227
Flags: W
HStem: -20 155<582.29 861.902 1509.77 1892.09> 473 156<1442 1963.69> 965 155<738.187 1018.01 1639.04 1909.14>
VStem: 163 327<232.638 648.202> 1968 329<629.749 888.629>
LayerCount: 2
Fore
SplineSet
712 135 m 0,0,1
 840 135 840 135 950 248 c 0,2,3
 1054 354 1054 354 1095 550 c 0,4,5
 1112 630 1112 630 1112 695 c 0,6,7
 1112 793 1112 793 1074 857 c 0,8,9
 1011 965 1011 965 887.5 965 c 128,-1,10
 764 965 764 965 652 852 c 0,11,12
 549 748 549 748 507 550 c 0,13,14
 490 471 490 471 490 406 c 0,15,16
 490 309 490 309 528 243 c 0,17,18
 591 135 591 135 712 135 c 0,0,1
679 -20 m 0,19,20
 414 -20 414 -20 268 142 c 0,21,22
 163 259 163 259 163 423 c 0,23,24
 163 483 163 483 177 550 c 0,25,26
 230 800 230 800 444 960 c 0,27,28
 659 1120 659 1120 921 1120 c 0,29,30
 1208 1120 1208 1120 1341 951 c 1,31,32
 1546 1120 1546 1120 1821 1120 c 0,33,34
 2118 1120 2118 1120 2236 920 c 0,35,36
 2297 816 2297 816 2297 681 c 0,37,38
 2297 608 2297 608 2279 526 c 1,39,-1
 2218 473 l 1,40,-1
 1409 473 l 1,41,42
 1405 437 1405 437 1405 405 c 0,43,44
 1405 307 1405 307 1444 246 c 0,45,46
 1516 134 1516 134 1692 134 c 0,47,48
 1874 134 1874 134 2018 265 c 0,49,50
 2099 338 2099 338 2152 399 c 1,51,-1
 2162 399 l 1,52,-1
 2107 141 l 1,53,54
 1906 -20 1906 -20 1629 -20 c 0,55,56
 1321 -20 1321 -20 1170 150 c 1,57,58
 949 -20 949 -20 679 -20 c 0,19,20
1442 629 m 1,59,-1
 1958 629 l 1,60,61
 1968 696 1968 696 1968 747 c 0,62,63
 1968 808 1968 808 1954 846 c 0,64,65
 1912 967 1912 967 1789 967 c 0,66,67
 1664 967 1664 967 1561 853 c 0,68,69
 1481 763 1481 763 1442 629 c 1,59,-1
EndSplineSet
Validated: 1
EndChar

StartChar: tbar
Encoding: 359 359 190
Width: 895
Flags: W
HStem: 0 21G<272 624.5> 481 190<197.906 404.217 735.752 943.094> 885 215<240.933 491.973 824.348 1076.07> 913 159<248.22 494 823 1068.66> 1530 20G<794.913 921>
DStem2: 300.021 0 595.021 0 0.207912 0.978148<71.7556 519.349 719.74 933.379 1157.31 1527.77>
LayerCount: 2
Fore
SplineSet
272 0 m 1,0,1
 332 149 332 149 362 294 c 2,2,-1
 408 508 l 1,3,4
 287 505 287 505 160 481 c 1,5,-1
 201 671 l 1,6,7
 318 647 318 647 437 644 c 1,8,-1
 494 913 l 1,9,-1
 484 913 l 2,10,11
 346 913 346 913 198 885 c 1,12,-1
 244 1100 l 1,13,14
 379 1072 379 1072 518 1072 c 2,15,-1
 528 1072 l 1,16,-1
 557 1208 l 2,17,18
 592 1371 592 1371 592 1504 c 1,19,-1
 951 1550 l 1,20,21
 891 1395 891 1395 863 1259 c 2,22,-1
 823 1072 l 1,23,-1
 833 1072 l 2,24,25
 969 1072 969 1072 1119 1100 c 1,26,-1
 1073 885 l 1,27,28
 934 913 934 913 799 913 c 2,29,-1
 789 913 l 1,30,-1
 732 644 l 1,31,32
 852 647 852 647 981 671 c 1,33,-1
 940 481 l 1,34,35
 820 505 820 505 703 508 c 1,36,-1
 657 294 l 2,37,38
 626 150 626 150 623 0 c 1,39,-1
 272 0 l 1,0,1
EndSplineSet
Validated: 1
EndChar

StartChar: thorn
Encoding: 254 254 191
Width: 1388
Flags: W
HStem: -410 21G<45 397.5> -20 153<592.108 868.434> 967 153<749.704 1028.42> 1541 20G<709.714 786.5>
VStem: 1129 331<450.276 855.998>
DStem2: 72.5084 -410 367.508 -410 0.207912 0.978148<71.772 553.132 821.62 1376.61 1540.64 1933>
LayerCount: 2
Fore
SplineSet
748 -20 m 0,0,1
 569 -20 569 -20 470 71 c 1,2,-1
 430 -116 l 2,3,4
 399 -263 399 -263 396 -410 c 1,5,-1
 45 -410 l 1,6,7
 105 -260 105 -260 135 -116 c 2,8,-1
 414 1195 l 2,9,10
 444 1337 444 1337 449 1491 c 1,11,-1
 814 1561 l 1,12,13
 759 1430 759 1430 725 1269 c 2,14,-1
 675 1037 l 1,15,16
 809 1120 809 1120 990 1120 c 0,17,18
 1232 1120 1232 1120 1365 964 c 0,19,20
 1460 852 1460 852 1460 690 c 0,21,22
 1460 624 1460 624 1444 550 c 0,23,24
 1390 294 1390 294 1189 136 c 0,25,26
 990 -20 990 -20 748 -20 c 0,0,1
712 133 m 0,27,28
 844 133 844 133 959.5 248 c 128,-1,29
 1075 363 1075 363 1115 550 c 0,30,31
 1129 619 1129 619 1129 678 c 0,32,33
 1129 778 1129 778 1088 852 c 0,34,35
 1023 967 1023 967 890 967 c 0,36,37
 776 967 776 967 691 874 c 0,38,39
 626 802 626 802 603 696 c 2,40,-1
 541 404 l 2,41,42
 533 366 533 366 533 331 c 0,43,44
 533 275 533 275 554 230 c 0,45,46
 599 133 599 133 712 133 c 0,27,28
EndSplineSet
Validated: 1
EndChar

StartChar: Thorn
Encoding: 222 222 192
Width: 1212
Flags: W
HStem: 0 21G<130 501> 297 176<571 823.047> 1049 174<730 924.375> 1490 20G<450 821>
VStem: 1003 321<658.211 971.26>
DStem2: 160.233 0 470.461 0 0.207912 0.978148<75.2103 368.012 548.067 1136.85 1314.74 1532.89>
LayerCount: 2
Fore
SplineSet
130 0 m 1,0,1
 193 153 193 153 224 300 c 2,2,-1
 417 1210 l 2,3,4
 449 1361 449 1361 451 1510 c 1,5,-1
 821 1510 l 1,6,7
 761 1366 761 1366 730 1223 c 1,8,-1
 831 1223 l 2,9,10
 1097 1223 1097 1223 1225 1092 c 0,11,12
 1324 992 1324 992 1324 854 c 0,13,14
 1324 808 1324 808 1313 758 c 0,15,16
 1268 546 1268 546 1085 422 c 0,17,18
 902 297 902 297 634 297 c 2,19,-1
 533 297 l 1,20,21
 502 149 502 149 500 0 c 1,22,-1
 130 0 l 1,0,1
571 473 m 1,23,-1
 652 473 l 2,24,25
 783 473 783 473 872 549 c 0,26,27
 967 629 967 629 994 759 c 0,28,29
 1003 802 1003 802 1003 839 c 0,30,31
 1003 920 1003 920 960 972 c 0,32,33
 896 1049 896 1049 774 1049 c 2,34,-1
 693 1049 l 1,35,-1
 571 473 l 1,23,-1
EndSplineSet
Validated: 1
EndChar

StartChar: germandbls
Encoding: 223 223 193
Width: 1253
Flags: W
HStem: 0 138<610 765.809> 1396 134<791.919 991.043>
VStem: 980 321<359.625 682.5> 1018 300<1057.52 1341.03>
DStem2: 162.275 0 456.647 0 0.207912 0.978148<72.2025 1367.76>
LayerCount: 2
Fore
SplineSet
132 0 m 1,0,1
 191 140 191 140 224 294 c 2,2,-1
 398 1109 l 2,3,4
 445 1330 445 1330 593 1430 c 128,-1,5
 741 1530 741 1530 942 1530 c 0,6,7
 1139 1530 1139 1530 1239 1427 c 0,8,9
 1318 1345 1318 1345 1318 1228 c 0,10,11
 1318 1200 1318 1200 1313 1170 c 0,12,13
 1288 1002 1288 1002 1114 898 c 0,14,15
 1074 873 1074 873 1040 857 c 1,16,17
 1133 834 1133 834 1190 787 c 0,18,19
 1301 696 1301 696 1301 551 c 0,20,21
 1301 507 1301 507 1291 459 c 0,22,23
 1247 250 1247 250 1053 123 c 0,24,25
 867 0 867 0 581 0 c 1,26,-1
 610 138 l 1,27,28
 733 138 733 138 843 234 c 0,29,30
 940 319 940 319 970 461 c 0,31,32
 980 506 980 506 980 546 c 0,33,34
 980 628 980 628 937 682 c 0,35,36
 874 762 874 762 759 763 c 1,37,-1
 790 906 l 17,38,39
 854 918 854 918 916.5 974 c 128,-1,40
 979 1030 979 1030 1006 1156 c 0,41,42
 1018 1214 1018 1214 1018 1257 c 0,43,44
 1018 1311 1018 1311 999 1342 c 0,45,46
 965 1396 965 1396 900 1396 c 0,47,48
 838 1396 838 1396 784 1345 c 24,49,50
 732 1295 732 1295 703 1159 c 2,51,-1
 519 294 l 2,52,53
 489 153 489 153 487 0 c 1,54,-1
 132 0 l 1,0,1
EndSplineSet
Validated: 1
EndChar

StartChar: afii61352
Encoding: 8470 8470 194
Width: 2216
Flags: W
HStem: 0 192<1532.94 1825.38 1836.62 1853.41 1864.56 2158.06> 30 132<1540.51 2150.49> 260 97<1826.93 1991.81> 769 98<1897.11 2062.68> 1490 20G<450 765 1437 1731>
VStem: 1127 283<0 133> 1609 200<409.91 667.366> 2082 199<463.177 718.028>
DStem2: 159.807 0 401.318 0 0.207912 0.978148<61.1617 1082.78> 848 1252 616 1010 0.477788 -0.878475<101.744 845.487> 1148.17 0 1380.23 0 0.207912 0.978148<523.438 1532.62>
LayerCount: 2
Fore
SplineSet
2011 867 m 0,0,1
 2152 867 2152 867 2225 777 c 0,2,3
 2281 708 2281 708 2281 619 c 0,4,5
 2281 592 2281 592 2276 563 c 0,6,7
 2253 431 2253 431 2136 344 c 0,8,9
 2025 260 2025 260 1879 260 c 0,10,11
 1736 260 1736 260 1665 350 c 0,12,13
 1609 419 1609 419 1609 508 c 0,14,15
 1609 535 1609 535 1614 564 c 0,16,17
 1637 696 1637 696 1754 783 c 0,18,19
 1865 867 1865 867 2011 867 c 0,0,1
1536 192 m 1,20,21
 1680 162 1680 162 1859 162 c 0,22,23
 2037 162 2037 162 2196 192 c 1,24,-1
 2155 0 l 1,25,26
 2011 30 2011 30 1831 30 c 128,-1,27
 1651 30 1651 30 1495 0 c 1,28,-1
 1536 192 l 1,20,21
1989 769 m 0,29,30
 1942 769 1942 769 1893 721 c 0,31,32
 1840 669 1840 669 1818 563 c 0,33,34
 1809 517 1809 517 1809 481 c 0,35,36
 1809 438 1809 438 1822 409 c 0,37,38
 1846 357 1846 357 1903 357 c 0,39,40
 1948 357 1948 357 1998 408 c 0,41,42
 2051 462 2051 462 2073 566 c 0,43,44
 2082 610 2082 610 2082 644 c 0,45,46
 2082 688 2082 688 2067 719 c 0,47,48
 2043 769 2043 769 1989 769 c 0,29,30
130 0 m 1,49,50
 192 151 192 151 224 300 c 2,51,-1
 417 1210 l 2,52,53
 449 1361 449 1361 451 1510 c 1,54,-1
 746 1510 l 1,55,56
 784 1368 784 1368 848 1252 c 2,57,-1
 1257 512 l 1,58,-1
 1405 1210 l 2,59,60
 1435 1352 1435 1352 1439 1510 c 1,61,-1
 1731 1510 l 1,62,63
 1668 1358 1668 1358 1637 1210 c 2,64,-1
 1444 300 l 2,65,66
 1412 149 1412 149 1410 0 c 1,67,-1
 1127 0 l 1,68,69
 1091 137 1091 137 1025 258 c 2,70,-1
 616 1010 l 1,71,-1
 466 300 l 2,72,73
 434 149 434 149 432 0 c 1,74,-1
 130 0 l 1,49,50
EndSplineSet
Validated: 1
EndChar

StartChar: uni2117
Encoding: 8471 8471 195
Width: 1338
Flags: W
HStem: 386 77<584.878 959.312> 857 127<845 948.511> 1245 128<891.52 978.184> 1453 77<785.688 1160.37>
VStem: 303 82<659.426 1055.31> 531 244<552 672.234> 997 210<1030.09 1221.64> 1360 82<860.688 1256.57>
DStem2: 517.818 386 718.03 386 0.207912 0.978148<218.957 523.119 652.957 920.313>
LayerCount: 2
Fore
SplineSet
977 1453 m 0,0,1
 787 1453 787 1453 615 1312 c 0,2,3
 437 1166 437 1166 396 953 c 0,4,5
 385 896 385 896 385 849 c 0,6,7
 385 701 385 701 461 602 c 0,8,9
 568 463 568 463 768 463 c 0,10,11
 958 463 958 463 1130 604 c 0,12,13
 1308 750 1308 750 1349 963 c 0,14,15
 1360 1020 1360 1020 1360 1067 c 0,16,17
 1360 1213 1360 1213 1284 1314 c 0,18,19
 1178 1453 1178 1453 977 1453 c 0,0,1
845 984 m 1,20,-1
 855 984 l 2,21,22
 901 984 901 984 942 1019 c 0,23,24
 980 1052 980 1052 993 1114 c 0,25,26
 997 1134 997 1134 997 1152 c 0,27,28
 997 1187 997 1187 979 1210 c 0,29,30
 953 1244 953 1244 911 1245 c 2,31,-1
 903 1245 l 1,32,33
 895 1216 895 1216 889 1190 c 2,34,-1
 845 984 l 1,20,-1
531 552 m 1,35,36
 575 656 575 656 592 735 c 2,37,-1
 689 1190 l 2,38,39
 706 1270 706 1270 706 1373 c 1,40,-1
 938 1373 l 2,41,42
 1084 1373 1084 1373 1155 1296 c 0,43,44
 1207 1239 1207 1239 1207 1162 c 0,45,46
 1207 1139 1207 1139 1203 1120 c 0,47,48
 1185 1014 1185 1014 1095 944 c 0,49,50
 985 857 985 857 830 857 c 2,51,-1
 818 857 l 1,52,-1
 792 734 l 2,53,54
 775 654 775 654 775 552 c 1,55,-1
 531 552 l 1,35,36
978 1530 m 0,56,57
 1220 1530 1220 1530 1347 1368 c 0,58,59
 1442 1247 1442 1247 1442 1097 c 0,60,61
 1442 1019 1442 1019 1433 964 c 0,62,63
 1393 718 1393 718 1194 553 c 0,64,65
 992 386 992 386 767 386 c 0,66,67
 525 386 525 386 398 548 c 0,68,69
 303 669 303 669 303 819 c 0,70,71
 303 897 303 897 312 952 c 0,72,73
 352 1199 352 1199 551 1363 c 0,74,75
 753 1530 753 1530 978 1530 c 0,56,57
EndSplineSet
Validated: 1
EndChar

StartChar: integral
Encoding: 8747 8747 196
Width: 1125
Flags: W
HStem: -430 135<33.6714 281.049> 1395 135<1077.57 1325.33>
VStem: -21 10<-168.372 -146> 1370 10<1246 1268.37>
DStem2: 323.538 -430 618.949 -430 0.207912 0.978148<265.855 1799.33>
LayerCount: 2
Fore
SplineSet
-77 -411 m 1,0,-1
 -21 -146 l 1,1,-1
 -11 -146 l 1,2,3
 12 -295 12 -295 148 -295 c 0,4,5
 232 -295 232 -295 297 -238 c 0,6,7
 379 -167 379 -167 416 5 c 2,8,-1
 641 1064 l 2,9,10
 693 1310 693 1310 825 1414 c 0,11,12
 970 1530 970 1530 1213 1530 c 0,13,14
 1346 1530 1346 1530 1436 1511 c 1,15,-1
 1380 1246 l 1,16,-1
 1370 1246 l 1,17,18
 1347 1395 1347 1395 1211 1395 c 0,19,20
 1127 1395 1127 1395 1061 1338 c 0,21,22
 979 1267 979 1267 943 1095 c 2,23,-1
 718 36 l 2,24,25
 666 -210 666 -210 534 -314 c 0,26,27
 389 -430 389 -430 146 -430 c 0,28,29
 13 -430 13 -430 -77 -411 c 1,0,-1
EndSplineSet
Validated: 1
EndChar

StartChar: caron
Encoding: 711 711 197
Width: 713
Flags: W
HStem: 1180 350<473.245 609.68 731.913 762.901>
VStem: 345 673
LayerCount: 2
Fore
SplineSet
345 1530 m 1,0,-1
 598 1530 l 1,1,2
 630 1426 630 1426 630 1291 c 1,3,4
 680 1427 680 1427 765 1530 c 1,5,-1
 1018 1530 l 1,6,-1
 1016 1520 l 1,7,8
 875 1413 875 1413 737 1180 c 1,9,-1
 478 1180 l 1,10,11
 457 1395 457 1395 343 1520 c 1,12,-1
 345 1530 l 1,0,-1
EndSplineSet
Validated: 1
EndChar

StartChar: circumflex
Encoding: 710 710 198
Width: 713
Flags: W
HStem: 1180 350<266.929 298.087 420.32 556.755>
VStem: 271 675
LayerCount: 2
Fore
SplineSet
552 1530 m 1,0,-1
 811 1530 l 1,1,2
 832 1315 832 1315 946 1190 c 1,3,-1
 944 1180 l 1,4,-1
 691 1180 l 1,5,6
 659 1283 659 1283 659 1419 c 1,7,8
 609 1283 609 1283 524 1180 c 1,9,-1
 271 1180 l 1,10,-1
 273 1190 l 1,11,12
 413 1297 413 1297 552 1530 c 1,0,-1
EndSplineSet
Validated: 1
EndChar

StartChar: uni02C9
Encoding: 713 713 199
Width: 700
Flags: W
HStem: 1251 227<330.969 616.381 627.616 652.384 663.558 949.031> 1281 167<338.509 941.491>
LayerCount: 2
Fore
SplineSet
334 1478 m 1,0,1
 478 1448 478 1448 658 1448 c 0,2,3
 836 1448 836 1448 994 1478 c 1,4,-1
 946 1251 l 1,5,6
 802 1281 802 1281 622 1281 c 128,-1,7
 442 1281 442 1281 286 1251 c 1,8,-1
 334 1478 l 1,0,1
EndSplineSet
Validated: 1
EndChar

StartChar: dotaccent
Encoding: 729 729 200
Width: 404
Flags: W
HStem: 1217 370<410.695 589.305>
VStem: 314 372<1313 1491>
LayerCount: 2
Fore
SplineSet
539 1587 m 0,0,1
 617 1587 617 1587 657 1533 c 0,2,3
 686 1494 686 1494 686 1443 c 0,4,5
 686 1423 686 1423 682 1402 c 0,6,7
 666 1325 666 1325 601.5 1271 c 128,-1,8
 537 1217 537 1217 461 1217 c 0,9,10
 383 1217 383 1217 343 1271 c 0,11,12
 314 1310 314 1310 314 1361 c 0,13,14
 314 1381 314 1381 318 1402 c 0,15,16
 334 1479 334 1479 398.5 1533 c 128,-1,17
 463 1587 463 1587 539 1587 c 0,0,1
EndSplineSet
Validated: 1
EndChar

StartChar: ring
Encoding: 730 730 201
Width: 482
Flags: W
HStem: 1136 129<445.876 596.788> 1451 129<460.447 611.583>
VStem: 306 129<1292.6 1425.18> 623 130<1290.82 1423.37>
LayerCount: 2
Fore
SplineSet
568 1580 m 256,0,1
 658 1580 658 1580 713 1512 c 0,2,3
 753 1463 753 1463 753 1395 c 0,4,5
 753 1377 753 1377 750 1357 c 0,6,7
 736 1259 736 1259 658 1194 c 0,8,9
 587 1136 587 1136 491 1136 c 0,10,11
 396 1136 396 1136 346 1200 c 0,12,13
 307 1251 307 1251 306 1321 c 0,14,15
 306 1339 306 1339 309 1359 c 0,16,17
 323 1457 323 1457 401 1522 c 0,18,19
 472 1580 472 1580 568 1580 c 256,0,1
509 1265 m 256,20,21
 548 1265 548 1265 580 1292 c 0,22,23
 613 1321 613 1321 621 1358 c 0,24,25
 623 1369 623 1369 623 1378 c 0,26,27
 623 1404 623 1404 608 1424 c 0,28,29
 586 1451 586 1451 549 1451 c 0,30,31
 509 1451 509 1451 478 1424 c 0,32,33
 445 1396 445 1396 437 1358 c 0,34,35
 435 1347 435 1347 435 1337 c 0,36,37
 435 1311 435 1311 450 1292 c 0,38,39
 470 1265 470 1265 509 1265 c 256,20,21
EndSplineSet
Validated: 1
EndChar

StartChar: breve
Encoding: 728 728 202
Width: 700
Flags: W
HStem: 1194 184<481.25 820.498> 1530 20G<344.753 409.5 909.5 1009>
LayerCount: 2
Fore
SplineSet
349 1550 m 1,0,-1
 359 1550 l 1,1,2
 460 1378 460 1378 643 1378 c 0,3,4
 820 1378 820 1378 999 1550 c 1,5,-1
 1009 1550 l 1,6,-1
 954 1291 l 1,7,8
 797 1194 797 1194 604 1194 c 0,9,10
 403 1194 403 1194 294 1291 c 1,11,-1
 349 1550 l 1,0,-1
EndSplineSet
Validated: 1
EndChar

StartChar: hungarumlaut
Encoding: 733 733 203
Width: 849
Flags: W
HStem: 1180 350
LayerCount: 2
Fore
SplineSet
1154 1530 m 1,0,-1
 1152 1520 l 1,1,2
 1051 1309 1051 1309 824 1180 c 1,3,-1
 617 1180 l 1,4,-1
 619 1190 l 1,5,6
 809 1346 809 1346 848 1530 c 1,7,-1
 1154 1530 l 1,0,-1
808 1530 m 1,8,-1
 806 1520 l 1,9,10
 705 1309 705 1309 478 1180 c 1,11,-1
 271 1180 l 1,12,-1
 273 1190 l 1,13,14
 463 1346 463 1346 502 1530 c 1,15,-1
 808 1530 l 1,8,-1
EndSplineSet
Validated: 1
EndChar

StartChar: tilde
Encoding: 732 732 204
Width: 700
Flags: W
HStem: 1208 180<730.526 934.79> 1368 180<350.705 553.586> 1498 20G<962 1003>
VStem: 283 8<1238 1242.03> 993 10<1510 1518>
DStem2: 654 1488 629 1266 0.794611 -0.607119<-85.0441 201.128>
LayerCount: 2
Fore
SplineSet
338 1494 m 1,0,1
 401 1548 401 1548 506 1548 c 0,2,3
 572 1548 572 1548 654 1488 c 2,4,-1
 744 1422 l 2,5,6
 791 1388 791 1388 832 1388 c 256,7,8
 931 1388 931 1388 993 1518 c 1,9,-1
 1003 1518 l 1,10,-1
 948 1262 l 1,11,12
 883 1208 883 1208 780 1208 c 0,13,14
 706 1208 706 1208 629 1266 c 2,15,-1
 540 1334 l 2,16,17
 495 1368 495 1368 454 1368 c 256,18,19
 355 1368 355 1368 291 1238 c 1,20,-1
 283 1238 l 1,21,-1
 338 1494 l 1,0,1
EndSplineSet
Validated: 1
EndChar

StartChar: ogonek
Encoding: 731 731 205
Width: 436
Flags: W
HStem: -486 189<230.5 313>
VStem: -39 263<-394 -155.387>
LayerCount: 2
Fore
SplineSet
312 121 m 1,0,1
 380 0 l 1,2,3
 250 -100 250 -100 226 -211 c 0,4,5
 224 -220 224 -220 224 -229 c 0,6,7
 224 -297 224 -297 353 -297 c 1,8,-1
 313 -486 l 1,9,10
 -39 -486 -39 -486 -39 -302 c 0,11,12
 -39 -279 -39 -279 -34 -254 c 0,13,14
 6 -67 6 -67 312 121 c 1,0,1
EndSplineSet
Validated: 1
EndChar

StartChar: uni1E9E
Encoding: 7838 7838 206
Width: 1410
Flags: W
HStem: -20 154<777.219 1035.3> 0 21G<132 491> 1360 170<889.292 1180.39>
VStem: 688 10<351.135 374> 790 268<878.058 1079.55> 1153 281<257.484 503.74>
DStem2: 162.738 -20 454.173 -20 0.207912 0.978148<92.7594 1236.31> 1286 720 945 650 0.772246 -0.635323<-329.222 79.7211>
LayerCount: 2
Fore
SplineSet
132 0 m 1,0,1
 198 146 198 146 230 296 c 2,2,-1
 350 861 l 2,3,4
 419 1184 419 1184 589 1344 c 0,5,6
 786 1530 786 1530 1062 1530 c 0,7,8
 1390 1530 1390 1530 1513 1181 c 1,9,10
 1344 1181 1344 1181 1222 1144 c 0,11,12
 1079 1101 1079 1101 1061 1010 c 0,13,14
 1058 996 1058 996 1058 983 c 0,15,16
 1058 907 1058 907 1145 836 c 2,17,-1
 1286 720 l 2,18,19
 1434 598 1434 598 1434 434 c 0,20,21
 1434 390 1434 390 1423 342 c 0,22,23
 1387 185 1387 185 1227 76 c 0,24,25
 1085 -20 1085 -20 872 -20 c 0,26,27
 712 -20 712 -20 620 50 c 1,28,-1
 688 374 l 1,29,-1
 698 374 l 1,30,31
 705 292 705 292 745 220 c 0,32,33
 793 134 793 134 889 134 c 0,34,35
 993 134 993 134 1062 199 c 0,36,37
 1129 262 1129 262 1148 350 c 0,38,39
 1153 371 1153 371 1153 390 c 0,40,41
 1153 477 1153 477 1063 552 c 2,42,-1
 945 650 l 2,43,44
 790 779 790 779 790 929 c 0,45,46
 790 967 790 967 800 1007 c 0,47,48
 837 1151 837 1151 994 1239 c 0,49,50
 1079 1287 1079 1287 1204 1296 c 1,51,52
 1145 1360 1145 1360 1061 1360 c 0,53,54
 912 1360 912 1360 800 1249 c 0,55,56
 704 1154 704 1154 651 906 c 2,57,-1
 520 297 l 2,58,59
 491 162 491 162 491 0 c 1,60,-1
 132 0 l 1,0,1
EndSplineSet
Validated: 1
EndChar

StartChar: uni203D
Encoding: 8253 8253 207
Width: 1234
Flags: W
HStem: -20 370<485.695 664.305> 1354 176<622.113 960.325>
VStem: 334 10<1054 1059.49> 1030 333<976.407 1284.96>
DStem2: 414.311 -20 600.38 -20 0.207912 0.978148<854.514 1269.65>
LayerCount: 2
Fore
SplineSet
917 1530 m 0,0,1
 1155 1530 1155 1530 1275 1395 c 0,2,3
 1363 1295 1363 1295 1363 1169 c 0,4,5
 1363 1132 1363 1132 1356 1093 c 0,6,7
 1306 831 1306 831 993 672 c 0,8,9
 773 559 773 559 750 449 c 1,10,-1
 514 449 l 1,11,-1
 659 1226 l 1,12,-1
 879 1226 l 1,13,-1
 770 778 l 1,14,15
 796 797 796 797 825 815 c 0,16,17
 989 920 989 920 1021 1070 c 0,18,19
 1030 1114 1030 1114 1030 1151 c 0,20,21
 1030 1226 1030 1226 993 1277 c 0,22,23
 935 1354 935 1354 814 1354 c 0,24,25
 631 1354 631 1354 484 1215 c 0,26,27
 407 1142 407 1142 344 1054 c 1,28,-1
 334 1054 l 1,29,-1
 407 1395 l 1,30,31
 651 1530 651 1530 917 1530 c 0,0,1
536 -20 m 0,32,33
 458 -20 458 -20 418 34 c 0,34,35
 389 73 389 73 389 124 c 0,36,37
 389 144 389 144 393 165 c 0,38,39
 409 242 409 242 473.5 296 c 128,-1,40
 538 350 538 350 614 350 c 0,41,42
 692 350 692 350 732 296 c 0,43,44
 761 257 761 257 761 206 c 0,45,46
 761 186 761 186 757 165 c 0,47,48
 741 88 741 88 676.5 34 c 128,-1,49
 612 -20 612 -20 536 -20 c 0,32,33
EndSplineSet
Validated: 1
EndChar

StartChar: minus
Encoding: 8722 8722 208
Width: 1173
Flags: W
HStem: 612 264<292.959 1196.04> 642 204<300.501 1188.47>
LayerCount: 2
Fore
SplineSet
296 876 m 1,0,1
 440 846 440 846 590 846 c 2,2,-1
 943 846 l 2,3,4
 1091 846 1091 846 1249 876 c 1,5,-1
 1193 612 l 1,6,7
 1048 642 1048 642 899 642 c 2,8,-1
 546 642 l 2,9,10
 396 642 396 642 240 612 c 1,11,-1
 296 876 l 1,0,1
EndSplineSet
Validated: 1
EndChar

